<?xml version="1.0" standalone="no"?>
<!DOCTYPE svg PUBLIC "-//W3C//DTD SVG 1.1//EN" "http://www.w3.org/Graphics/SVG/1.1/DTD/svg11.dtd">
<svg xmlns="http://www.w3.org/2000/svg">
<defs >
<font id="Spectral" horiz-adv-x="589" ><font-face
    font-family="Spectral"
    units-per-em="1000"
    panose-1="2 2 5 2 6 0 0 0 0 0"
    ascent="1059"
    descent="-463"
    alphabetic="0" />
<glyph unicode=" " glyph-name="uni0020" horiz-adv-x="250" />
<glyph unicode="!" glyph-name="uni0021" horiz-adv-x="250" d="M115 200L70 660H180L135 200H115ZM125 -5Q100 -5 82 13T64 56Q64 81 82 99T125 117Q149 117 167 99T186 56Q186 32 168 14T125 -5Z" />
<glyph unicode="&quot;" glyph-name="uni0022" horiz-adv-x="450" d="M115 490L80 740H170L135 490H115ZM315 490L280 740H370L335 490H315Z" />
<glyph unicode="#" glyph-name="uni0023" horiz-adv-x="500" d="M40 0L99 203H1V250H113L157 403H59V450H171L232 660H282L221 450H351L412 660H462L401 450H499V403H387L343 250H441V203H329L270 0H220L279 203H149L90 0H40ZM163 250H293L337 403H207L163 250Z" />
<glyph unicode="$" glyph-name="uni0024" horiz-adv-x="500" d="M188 -80V-2Q161 5 136 17T97 43Q72 64 60 90T48 140Q48 160 61 166T87 172H115L120 168V141Q120 111 137 85T188 46V319Q117 353 87 392T57 487Q57 521 74 554T122 613T188 655V740H223V666Q242
670 260 670Q273 670 285 669V740H320V664Q363 654 388 632Q437 589 437 542Q437 522 424 516T398 510H370L365 514V541Q365 593 320 612V358Q395 318 423 279T452 180Q452 116 415 70T320 4V-80H285V-6Q263 -10 240 -10Q232 -10 223 -9V-80H188ZM275 380Q280 377
285 375V621Q273 622 260 622Q240 622 223 618V406Q244 394 275 380ZM140 518Q140 490 150 469T188 428V603Q140 574 140 518ZM240 37Q264 37 285 42V271Q261 285 223 302V38Q231 37 240 37ZM373 152Q373 184 363 206T320 250V56Q373 87 373 152Z" />
<glyph unicode="%" glyph-name="uni0025" horiz-adv-x="750" d="M173 345Q106 345 68 401T30 548Q30 605 48 651T99 723T173 750Q240 750 277 695T315 547Q315 491 297 445T246 372T173 345ZM179 371Q198 371 210 394T229 454T235 532Q235 585 228 628T205 698T166
724Q148 724 136 701T117 642T110 563Q110 511 117 467T140 397T179 371ZM143 13L608 750L644 727L179 -10L143 13ZM596 -10Q529 -10 491 46T453 193Q453 250 471 296T522 368T596 395Q663 395 700 340T738 192Q738 136 720 90T669 17T596 -10ZM602 16Q621 16 633
39T652 99T658 177Q658 230 651 273T628 343T589 369Q571 369 559 346T540 287T533 208Q533 156 540 112T563 42T602 16Z" />
<glyph unicode="&amp;" glyph-name="uni0026" horiz-adv-x="695" d="M212 -10Q126 -10 73 37T20 163Q20 210 52 257T160 355Q123 394 106 419T83 466T77 514Q77 549 99 585T163 645T258 670Q336 670 379 634T422 542Q422 496 379 460T262 379Q270 371 278 363T295
346L455 186Q484 230 508 286T555 411L457 450V466H695V450L610 413Q578 339 547 276T481 160L590 52L673 16V0H512L424 88Q381 41 329 16T212 -10ZM164 534Q164 501 181 473T238 403Q285 437 311 467T337 538Q337 578 313 601T251 625Q215 625 190 601T164 534ZM112
187Q112 145 131 116T182 71T251 55Q332 55 397 115L251 261Q231 281 214 298T183 330Q151 305 136 284T117 240T112 187Z" />
<glyph unicode="&apos;" glyph-name="uni0027" horiz-adv-x="250" d="M115 490L80 740H170L135 490H115Z" />
<glyph unicode="(" glyph-name="uni0028" horiz-adv-x="250" d="M224 -150Q145 -52 100 59T55 295Q55 419 100 530T224 740H245V737Q185 641 154 537T122 295Q122 204 136 128T177 -15T245 -147V-150H224Z" />
<glyph unicode=")" glyph-name="uni0029" horiz-adv-x="250" d="M5 -150V-147Q45 -82 72 -15T114 128T128 295Q128 432 97 536T5 737V740H26Q105 642 150 531T195 295Q195 171 150 60T26 -150H5Z" />
<glyph unicode="*" glyph-name="uni002A" horiz-adv-x="350" d="M55 468L156 574L14 600L34 659L164 598L145 740H205L186 598L316 659L336 600L194 574L295 468L243 432L175 556L107 432L55 468Z" />
<glyph unicode="+" glyph-name="uni002B" horiz-adv-x="500" d="M224 62V247H40V297H224V482H276V297H460V247H276V62H224Z" />
<glyph unicode="," glyph-name="uni002C" horiz-adv-x="250" d="M61 -205V-184Q103 -162 122 -134T141 -75Q141 -47 129 -29T91 3L57 21L54 31L83 81Q90 92 95 97T108 103Q116 103 133 94Q164 76 181 44T199 -25Q199 -78 167 -124T61 -205Z" />
<glyph unicode="-" glyph-name="uni002D" horiz-adv-x="375" d="M50 222V292H325V222H50Z" />
<glyph unicode="." glyph-name="uni002E" horiz-adv-x="250" d="M125 -5Q100 -5 82 13T64 56Q64 81 82 99T125 117Q150 117 168 99T186 56Q186 31 168 13T125 -5Z" />
<glyph unicode="/" glyph-name="uni002F" horiz-adv-x="250" d="M0 -120L200 750H250L50 -120H0Z" />
<glyph unicode="0" glyph-name="uni0030" horiz-adv-x="500" d="M250 -10Q146 -10 90 81T33 330Q33 428 60 504T137 625T250 670Q354 670 410 579T467 330Q467 232 439 156T363 35T250 -10ZM271 37Q304 37 327 71T362 164T375 299Q375 450 340 537T233 624Q199
624 175 590T138 497T125 363Q125 212 161 125T271 37Z" />
<glyph unicode="1" glyph-name="uni0031" horiz-adv-x="500" d="M153 0V16L243 56V563L68 475V510L308 660H328V56L408 16V0H153Z" />
<glyph unicode="2" glyph-name="uni0032" horiz-adv-x="500" d="M52 0V25Q139 125 195 192T282 303T328 379T346 435T350 491Q350 552 318 587T240 623Q188 623 160 596T132 513V468L127 461H81Q61 461 51 468T41 503Q41 529 56 556T104 606Q130 624 153 638T204
661T271 670Q322 670 361 646T424 582T447 493Q447 460 439 433T413 376T362 309T280 216T161 82H396L446 179H462L452 0H52Z" />
<glyph unicode="3" glyph-name="uni0033" horiz-adv-x="500" d="M244 -10Q149 -10 89 36Q33 78 33 120Q33 141 42 146T69 152H115L122 145V112Q122 80 152 58T246 35Q309 35 344 73T379 172Q379 240 343 279T213 319H154V363H181Q252 363 298 400T345 505Q345
568 318 596T240 625Q196 625 169 601T142 536V500L134 492H92Q72 492 63 498T53 527Q53 552 70 579T125 628Q159 649 189 659T262 670Q314 670 354 649T418 592T442 512Q442 461 403 419T297 358Q387 344 432 295T477 175Q477 126 445 84T361 16T244 -10Z" />
<glyph unicode="4" glyph-name="uni0034" horiz-adv-x="500" d="M193 0V16L283 56V193H8V213L348 660H368V260H487V193H368V56L448 16V0H193ZM103 260H283V505L103 260Z" />
<glyph unicode="5" glyph-name="uni0035" horiz-adv-x="500" d="M194 -10Q95 -10 63 36Q55 47 55 56Q55 70 73 83L108 110H118L128 93Q142 70 168 55T235 39Q296 39 338 81T381 195Q381 235 364 271T303 331T183 354Q142 354 86 345V660H405V583H134V430Q166 433
193 433Q291 433 348 403T429 328T454 233Q454 158 421 104T329 20T194 -10Z" />
<glyph unicode="6" glyph-name="uni0036" horiz-adv-x="500" d="M255 -10Q190 -10 141 22T64 109T37 234Q37 339 83 425T216 574T420 670V641Q298 602 225 514T136 306Q163 343 203 365T295 388Q348 388 388 363T449 295T471 196Q471 145 447 98T376 20T255 -10ZM132
243Q132 168 149 123T195 57T257 36Q298 36 325 56T365 107T379 174Q379 321 256 321Q217 321 185 303T132 254Q132 249 132 243Z" />
<glyph unicode="7" glyph-name="uni0037" horiz-adv-x="500" d="M83 0Q104 50 122 91T162 175T212 272T282 402T385 583H52V660H462V640Q427 571 387 492T309 329T241 162T195 0H83Z" />
<glyph unicode="8" glyph-name="uni0038" horiz-adv-x="500" d="M252 -10Q196 -10 148 9T71 63T41 145Q41 177 52 206T93 266T177 330Q111 370 85 407T58 499Q58 545 86 584T158 646T252 670Q304 670 347 648T417 588T443 502Q443 461 408 426T313 358Q387 315
423 274T459 171Q459 126 440 92T390 36T323 2T252 -10ZM146 530Q146 502 156 479T194 433T275 379Q313 402 334 429T356 495Q356 560 326 592T243 624Q202 624 174 599T146 530ZM132 168Q132 104 166 69T256 33Q312 33 344 62T376 143Q376 182 356 209T298 259T210
310Q176 285 160 264T138 220T132 168Z" />
<glyph unicode="9" glyph-name="uni0039" horiz-adv-x="500" d="M81 -10V19Q203 58 276 146T365 354Q338 317 298 295T206 272Q152 272 113 297T52 365T30 464Q30 515 54 562T126 640T246 670Q312 670 361 638T437 551T464 426Q464 321 418 235T285 86T81 -10ZM122
486Q122 339 245 339Q284 339 316 357T369 406Q369 411 369 417Q369 492 352 537T306 603T244 624Q204 624 177 604T136 553T122 486Z" />
<glyph unicode=":" glyph-name="uni003A" horiz-adv-x="250" d="M125 -5Q100 -5 82 13T64 56Q64 81 82 99T125 117Q150 117 168 99T186 56Q186 31 168 13T125 -5ZM125 338Q100 338 82 356T64 399Q64 424 82 442T125 460Q150 460 168 442T186 399Q186 374 168 356T125
338Z" />
<glyph unicode=";" glyph-name="uni003B" horiz-adv-x="250" d="M125 338Q100 338 82 356T64 399Q64 424 82 442T125 460Q150 460 168 442T186 399Q186 374 168 356T125 338ZM61 -205V-184Q103 -162 122 -134T141 -75Q141 -47 129 -29T91 3L57 21L54 31L83 81Q90
92 95 97T108 103Q116 103 133 94Q164 76 181 44T199 -25Q199 -78 167 -124T61 -205Z" />
<glyph unicode="&lt;" glyph-name="uni003C" horiz-adv-x="500" d="M460 62L40 247V297L460 482V427L109 272L460 117V62Z" />
<glyph unicode="=" glyph-name="uni003D" horiz-adv-x="500" d="M40 349V399H460V349H40ZM40 145V195H460V145H40Z" />
<glyph unicode="&gt;" glyph-name="uni003E" horiz-adv-x="500" d="M40 62V117L391 272L40 427V482L460 297V247L40 62Z" />
<glyph unicode="?" glyph-name="uni003F" horiz-adv-x="479" d="M200 200L174 345Q248 371 289 406T331 491Q331 562 298 593T216 625Q174 625 151 598T128 518V478L120 468H79Q60 468 51 475T41 508Q41 535 55 562T101 611Q136 636 166 653T246 670Q297 670 337
646T400 582T423 493Q423 429 379 377T228 277L220 200H200ZM210 -5Q185 -5 167 13T149 56Q149 81 167 99T210 117Q234 117 252 99T271 56Q271 32 253 14T210 -5Z" />
<glyph unicode="@" glyph-name="uni0040" horiz-adv-x="813" d="M375 -118Q284 -118 216 -83T109 17T70 167Q70 247 100 318T185 445T310 531T463 562Q549 562 612 526T709 427T743 284Q743 214 716 155T639 58T526 21Q445 21 460 107L465 137Q429 78 391 50T315
21Q280 21 257 51T234 141Q234 195 251 246T300 338T370 404T454 429Q476 429 496 424T532 409L562 429H587L534 133Q526 88 530 74T559 59Q595 59 627 90T681 171T702 281Q702 352 670 410T579 502T441 536Q370 536 313 509T214 434T151 323T129 186Q129 98 163
37T260 -58T402 -91Q467 -91 516 -75T610 -27L619 -48Q566 -81 508 -99T375 -118ZM304 175Q304 120 315 100T356 79Q381 79 411 103T472 172L503 350Q489 369 473 382T429 395Q394 395 366 365T321 285T304 175Z" />
<glyph unicode="A" glyph-name="uni0041" horiz-adv-x="750" d="M33 0V16L97 49L353 665H398L650 52L717 16V0H469V16L557 50L482 235H239L165 50L249 16V0H33ZM262 290H460L361 536L262 290Z" />
<glyph unicode="B" glyph-name="uni0042" horiz-adv-x="658" d="M65 0V16L145 56V604L65 644V660H318Q384 660 436 644T519 595T549 512Q549 461 515 419T417 358Q506 346 556 303T606 192Q606 137 572 94T477 25T341 0H65ZM295 605H235V368H301Q372 368 412 398T452
484Q452 605 295 605ZM333 313H235V55H340Q419 55 464 91T509 184Q509 252 464 282T333 313Z" />
<glyph unicode="C" glyph-name="uni0043" horiz-adv-x="726" d="M400 -10Q298 -10 224 32T110 146T70 312Q70 383 97 447T172 562T282 641T415 670Q465 670 500 664T562 647T618 622L623 447H605L544 569Q506 596 478 608T413 620Q341 620 285 584T196 486T163
342Q163 247 194 180T279 77T398 41Q453 41 490 56T557 91L617 198H634L623 39Q594 24 564 13T494 -4T400 -10Z" />
<glyph unicode="D" glyph-name="uni0044" horiz-adv-x="775" d="M65 0V16L145 56V604L65 644V660H358Q468 660 546 621T664 514T705 360Q705 282 679 216T604 102T492 27T351 0H65ZM335 605H235V55H350Q430 55 488 88T578 183T610 329Q610 412 578 474T485 571T335 605Z" />
<glyph unicode="E" glyph-name="uni0045" horiz-adv-x="652" d="M65 0V16L145 56V604L65 644V660H554V488H538L476 605H235V368H405L455 451H471V232H455L405 313H235V55H504L566 182H582V0H65Z" />
<glyph unicode="F" glyph-name="uni0046" horiz-adv-x="614" d="M65 0V16L145 56V604L65 644V660H544V488H528L466 605H235V368H395L445 451H461V232H445L395 313H235V56L325 16V0H65Z" />
<glyph unicode="G" glyph-name="uni0047" horiz-adv-x="768" d="M403 -10Q307 -10 232 32T113 146T70 312Q70 389 97 454T174 567T288 643T426 670Q478 670 515 664T581 647T639 622L644 457H628L563 569Q521 598 492 609T424 620Q347 620 287 587T193 495T159
362Q159 262 195 192T294 85T432 48Q465 48 495 52T559 69V234L470 274V290H718V274L649 231V74Q603 36 536 13T403 -10Z" />
<glyph unicode="H" glyph-name="uni0048" horiz-adv-x="810" d="M65 0V16L145 56V604L65 644V660H315V644L235 604V368H575V604L495 644V660H745V644L665 604V56L745 16V0H495V16L575 56V313H235V56L315 16V0H65Z" />
<glyph unicode="I" glyph-name="uni0049" horiz-adv-x="390" d="M70 0V16L150 56V604L70 644V660H320V644L240 604V56L320 16V0H70Z" />
<glyph unicode="J" glyph-name="uni004A" horiz-adv-x="390" d="M46 -173Q33 -173 23 -167T13 -145Q13 -143 14 -135T23 -91H29Q46 -96 56 -98T80 -100Q102 -100 117 -90T141 -48T150 51V604L70 644V660H320V644L240 604V240Q240 128 222 39T161 -99Q132 -131
114 -147T81 -168T46 -173Z" />
<glyph unicode="K" glyph-name="uni004B" horiz-adv-x="719" d="M65 0V16L145 56V604L65 644V660H315V644L235 604V56L315 16V0H65ZM236 338L513 610L442 644V660H652V644L590 620L327 362L643 42L704 16V0H560L236 338Z" />
<glyph unicode="L" glyph-name="uni004C" horiz-adv-x="632" d="M65 0V16L145 56V604L65 644V660H325V644L235 604V55H478L546 222H562V0H65Z" />
<glyph unicode="M" glyph-name="uni004D" horiz-adv-x="959" d="M60 0V16L139 56L160 603L74 644V660H259L490 128L720 660H896V644L812 604L829 56L899 16V0H669V16L743 55L733 548L494 -5H449L214 541L201 55L282 16V0H60Z" />
<glyph unicode="N" glyph-name="uni004E" horiz-adv-x="799" d="M60 0V16L140 56V602L61 644V660H208L590 180V606L490 644V660H739V644L660 605V-5H623L210 516V55L310 16V0H60Z" />
<glyph unicode="O" glyph-name="uni004F" horiz-adv-x="807" d="M403 -10Q331 -10 271 15T165 86T95 194T70 330Q70 404 95 466T165 573T270 644T403 670Q475 670 536 645T642 574T712 466T737 330Q737 256 712 194T642 87T536 16T403 -10ZM424 40Q488 40 536
72T612 162T640 299Q640 396 606 468T515 581T386 621Q322 621 273 590T195 500T167 363Q167 266 201 193T294 80T424 40Z" />
<glyph unicode="P" glyph-name="uni0050" horiz-adv-x="638" d="M65 0V16L145 56V604L65 644V660H325Q443 660 514 617T586 481Q586 426 549 384T447 316T301 291H235V56L325 16V0H65ZM235 605V346H320Q399 346 444 381T489 473Q489 543 444 574T313 605H235Z" />
<glyph unicode="Q" glyph-name="uni0051" horiz-adv-x="807" d="M682 -149Q643 -149 601 -139T505 -99T377 -9Q288 -3 219 42T110 162T70 330Q70 404 95 466T165 573T270 644T403 670Q475 670 536 645T642 574T712 466T737 330Q737 249 707 183T624 70T499 3Q556
-41 598 -67T675 -104T743 -115Q764 -115 780 -113T807 -106V-122Q784 -134 752 -141T682 -149ZM424 40Q488 40 536 72T612 162T640 299Q640 396 606 468T515 581T386 621Q322 621 273 590T195 500T167 363Q167 266 201 193T294 80T424 40Z" />
<glyph unicode="R" glyph-name="uni0052" horiz-adv-x="661" d="M65 0V16L145 56V604L65 644V660H323Q428 660 488 617T549 497Q549 441 511 397T410 329L600 52L666 16V0H522L328 303H235V57L310 16V0H65ZM300 605H235V358H306Q369 358 410 393T452 484Q452 540
411 572T300 605Z" />
<glyph unicode="S" glyph-name="uni0053" horiz-adv-x="531" d="M264 -10Q202 -10 159 1T70 36L60 200H76L125 94Q161 64 195 51T264 37Q323 37 356 68T390 152Q390 196 371 221T315 265T228 310Q181 334 148 357T98 410T81 487Q81 521 97 553T142 612T206 654T280
670Q326 670 365 659T445 628L455 468H439L393 573Q358 599 332 610T272 622Q228 622 200 592T171 518Q171 467 202 439T299 378Q360 348 399 323T457 264T476 180Q476 133 456 98T405 38T336 2T264 -10Z" />
<glyph unicode="T" glyph-name="uni0054" horiz-adv-x="674" d="M192 0V16L292 56V605H129L61 458H45V660H629V458H613L545 605H382V56L482 16V0H192Z" />
<glyph unicode="U" glyph-name="uni0055" horiz-adv-x="809" d="M405 -10Q330 -10 272 18T179 104T145 256V604L65 644V660H315V644L235 604V271Q235 188 261 139T331 69T431 48Q475 48 512 67T572 127T595 236V606L495 644V660H744V644L665 605V256Q665 163 631
105T539 18T405 -10Z" />
<glyph unicode="V" glyph-name="uni0056" horiz-adv-x="740" d="M356 -5L104 609L35 644V660H285V644L199 607V602L386 144H391L577 606V610L495 644V660H705V644L648 614L391 -5H356Z" />
<glyph unicode="W" glyph-name="uni0057" horiz-adv-x="981" d="M274 -5L90 608L15 644V660H269V644L184 607L309 174H314L487 665H524L701 174H707L830 606L745 644V660H966V644L899 607L713 -5H678L496 485H491L309 -5H274Z" />
<glyph unicode="X" glyph-name="uni0058" horiz-adv-x="740" d="M35 0V16L108 53L320 329L113 609L50 644V660H300V644L220 607V602L380 391L546 603V607L470 644V660H680V644L617 607L414 346L635 55L705 16V0H450V16L523 52V56L353 285L179 56V52L260 16V0H35Z" />
<glyph unicode="Y" glyph-name="uni0059" horiz-adv-x="718" d="M228 0V16L318 56V308L96 611L35 644V660H277V644L204 609V605L383 362L544 604V608L471 644V660H683V644L619 611L408 309V56L498 16V0H228Z" />
<glyph unicode="Z" glyph-name="uni005A" horiz-adv-x="646" d="M90 0V25L431 605H180L118 478H102V660H545V635L203 55H478L540 192H556V0H90Z" />
<glyph unicode="[" glyph-name="uni005B" horiz-adv-x="250" d="M65 -150V740H245V717H129V-127H245V-150H65Z" />
<glyph unicode="\" glyph-name="uni005C" horiz-adv-x="250" d="M200 -120L0 750H50L250 -120H200Z" />
<glyph unicode="]" glyph-name="uni005D" horiz-adv-x="250" d="M5 -150V-127H121V717H5V740H185V-150H5Z" />
<glyph unicode="^" glyph-name="uni005E" horiz-adv-x="500" d="M40 250L225 670H275L460 250H405L250 601L95 250H40Z" />
<glyph unicode="_" glyph-name="uni005F" horiz-adv-x="500" d="M25 -140V-90H475V-140H25Z" />
<glyph unicode="`" glyph-name="uni0060" horiz-adv-x="500" d="M323 530L198 644Q178 662 172 677T165 707H247L334 530H323Z" />
<glyph unicode="a" glyph-name="uni0061" horiz-adv-x="489" d="M156 -10Q109 -10 78 17T47 94Q47 143 83 179T206 235L301 257V330Q301 364 274 388T211 413Q173 413 158 393T143 338V310L138 305H86Q71 305 66 310T60 333Q60 355 73 378T113 418Q141 436 171
448T237 460Q272 460 305 450T360 417T381 351V67Q388 60 401 55T437 50H475L478 48V45Q466 23 443 7T385 -10Q354 -10 335 6T307 50H301Q275 24 237 7T156 -10ZM125 114Q125 52 200 52Q224 52 247 57T301 75V223Q221 208 184 192T136 156T125 114Z" />
<glyph unicode="b" glyph-name="uni0062" horiz-adv-x="560" d="M103 -10V636L43 688V695L177 750H183V398H187Q225 430 260 445T337 460Q388 460 427 434T488 361T511 247Q511 165 480 108T396 20T277 -10Q236 -10 201 -3T134 16L109 -10H103ZM282 391Q258 391
233 384T183 361V79Q211 57 239 48T303 38Q338 38 367 56T413 116T431 224Q431 311 388 351T282 391Z" />
<glyph unicode="c" glyph-name="uni0063" horiz-adv-x="479" d="M259 -10Q162 -10 106 49T50 205Q50 280 80 337T163 427T280 460Q320 460 358 447T416 411Q432 392 432 381Q432 367 419 357L381 325H374L340 371Q325 391 303 403T247 416Q192 416 161 373T129
251Q129 203 145 161T198 92T302 65Q357 65 431 105H434V95Q411 52 366 21T259 -10Z" />
<glyph unicode="d" glyph-name="uni0064" horiz-adv-x="559" d="M218 -10Q168 -10 129 15T67 85T44 194Q44 279 77 338T165 429T285 460Q313 460 334 458T372 451V636L307 688V695L446 750H452V45L523 16V0H382L374 51H367Q329 19 294 5T218 -10ZM124 217Q124
134 168 97T273 59Q297 59 322 66T372 89V369Q348 390 325 400T272 411Q232 411 199 392T145 330T124 217Z" />
<glyph unicode="e" glyph-name="uni0065" horiz-adv-x="484" d="M259 -10Q162 -10 106 49T50 205Q50 280 79 337T157 427T263 460Q342 460 387 405T433 247L428 242H129Q130 196 147 156T201 90T302 65Q357 65 431 105H434V95Q411 52 366 21T259 -10ZM247 416Q199
416 169 383T131 288H357Q346 356 319 386T247 416Z" />
<glyph unicode="f" glyph-name="uni0066" horiz-adv-x="342" d="M54 0V16L117 48V403H39V450H117V490Q117 510 127 542T156 609T204 677T267 729T346 750Q355 750 365 747T382 741Q397 734 404 728T412 713Q412 704 408 695L388 646H381L354 657Q326 668 289 668Q234
668 216 634T197 530V450H329V403H197V46L268 16V0H54Z" />
<glyph unicode="g" glyph-name="uni0067" horiz-adv-x="546" d="M258 142Q214 142 177 158Q157 150 149 137T140 109Q140 59 211 59H331Q404 59 438 27T473 -68Q473 -111 445 -150T364 -215T239 -240Q144 -240 103 -206T61 -121Q61 -84 79 -57L148 -11V-7Q110
1 90 22T70 75Q70 113 96 139L150 167V173Q118 194 99 227T80 301Q80 346 103 382T166 439T258 460Q279 460 303 455T346 442L496 450V396L403 402L399 398Q415 380 425 354T436 301Q436 256 413 220T350 163T258 142ZM268 183Q308 183 331 217T354 298Q354 353
324 386T251 420Q208 420 185 386T162 304Q162 252 192 218T268 183ZM132 -110Q132 -154 166 -183T251 -212Q296 -212 329 -195T381 -149T400 -88Q400 -44 377 -27T292 -10H185Q182 -10 180 -10Q153 -26 143 -50T132 -110Z" />
<glyph unicode="h" glyph-name="uni0068" horiz-adv-x="582" d="M48 0V16L111 48V636L51 688V695L185 750H191V386H195Q233 424 268 442T347 460Q406 460 443 431T481 343V48L544 16V0H330V16L401 45V296Q401 340 374 363T302 386Q275 386 243 377T191 351V45L262
16V0H48Z" />
<glyph unicode="i" glyph-name="uni0069" horiz-adv-x="313" d="M154 581Q128 581 111 598T94 641Q94 667 111 684T154 701Q180 701 197 684T214 641Q214 616 197 599T154 581ZM54 0V16L117 48V346L57 398V405L191 460H197V48L260 16V0H54Z" />
<glyph unicode="j" glyph-name="uni006A" horiz-adv-x="314" d="M154 581Q128 581 111 598T94 641Q94 667 111 684T154 701Q180 701 197 684T214 641Q214 616 197 599T154 581ZM54 -230V-214Q77 -192 91 -167T111 -104T117 -10V346L57 398V405L191 460H197V0Q197
-76 167 -133T54 -230Z" />
<glyph unicode="k" glyph-name="uni006B" horiz-adv-x="558" d="M48 0V16L111 48V636L51 688V695L185 750H191V255L352 392V398L303 434V450H493V434L429 399L264 272L466 50L530 16V0H398L360 52L191 240V45L262 16V0H48Z" />
<glyph unicode="l" glyph-name="uni006C" horiz-adv-x="294" d="M44 0V16L107 48V636L47 688V695L181 750H187V48L250 16V0H44Z" />
<glyph unicode="m" glyph-name="uni006D" horiz-adv-x="860" d="M48 0V16L111 48V346L51 398V405L175 460H181L190 386H195Q232 424 266 442T342 460Q390 460 424 439T468 374H471Q513 418 549 439T630 460Q686 460 722 431T759 343V48L822 16V0H608V16L679 48V296Q679
340 653 363T585 386Q551 386 521 375T471 342V48L540 16V0H324V16L391 48V296Q391 340 365 363T297 386Q272 386 241 377T191 351V48L256 16V0H48Z" />
<glyph unicode="n" glyph-name="uni006E" horiz-adv-x="582" d="M48 0V16L111 48V346L51 398V405L175 460H181L190 386H195Q233 424 268 442T347 460Q406 460 443 431T481 343V48L544 16V0H330V16L401 48V296Q401 340 374 363T302 386Q275 386 243 377T191 351V48L262
16V0H48Z" />
<glyph unicode="o" glyph-name="uni006F" horiz-adv-x="540" d="M270 -10Q204 -10 155 21T78 105T50 225Q50 292 77 345T154 429T270 460Q336 460 385 429T462 345T490 225Q490 158 463 105T386 21T270 -10ZM284 33Q324 33 350 58T388 122T400 205Q400 258 386
307T340 387T258 418Q217 418 191 393T153 329T140 246Q140 193 155 144T202 64T284 33Z" />
<glyph unicode="p" glyph-name="uni0070" horiz-adv-x="567" d="M48 -230V-214L111 -182V346L51 398V405L175 460H181L189 399H196Q234 431 269 445T345 460Q396 460 435 434T496 361T519 247Q519 165 489 108T406 20T292 -10Q236 -10 191 0V-182L262 -214V-230H48ZM290
391Q266 391 241 384T191 361V80Q221 56 252 47T321 38Q369 38 404 78T439 214Q439 276 419 315T365 372T290 391Z" />
<glyph unicode="q" glyph-name="uni0071" horiz-adv-x="558" d="M305 -230V-214L376 -186V50H370Q301 -10 222 -10Q172 -10 133 15T71 85T48 194Q48 279 81 338T169 429T289 460Q323 460 350 455T406 439L450 460H456V-183L519 -214V-230H305ZM128 217Q128 134
172 97T277 59Q299 59 325 66T376 89V321Q376 346 376 357T373 372T364 381Q343 399 318 405T266 411Q228 411 197 392T147 330T128 217Z" />
<glyph unicode="r" glyph-name="uni0072" horiz-adv-x="397" d="M52 0V16L115 48V346L55 398V405L179 460H185L194 375H198Q221 412 240 430T277 454T311 460Q319 460 329 457T347 451Q358 446 367 439T377 423Q377 414 373 405L353 356H346L308 371Q297 376 287
377T266 378Q224 378 195 335V48L266 16V0H52Z" />
<glyph unicode="s" glyph-name="uni0073" horiz-adv-x="432" d="M213 -10Q166 -10 132 -2T63 24V136H77L109 81Q140 26 210 26Q250 26 272 45T295 97Q295 126 281 142T242 170T181 199Q130 222 103 249T75 327Q75 364 96 394T149 442T217 460Q254 460 285 451T348
426V317H334L301 370Q284 397 264 409T221 421Q187 421 167 404T146 357Q146 323 170 306T242 266Q270 252 298 238T345 199T364 126Q364 82 340 52T281 6T213 -10Z" />
<glyph unicode="t" glyph-name="uni0074" horiz-adv-x="354" d="M208 -10Q164 -10 132 16T100 89V403H18V409L103 450L174 560H180V450H312V403H180V106Q180 80 203 68T257 56Q276 56 292 58T321 63H324V53Q314 30 285 10T208 -10Z" />
<glyph unicode="u" glyph-name="uni0075" horiz-adv-x="561" d="M225 -10Q166 -10 129 19T91 107V403L28 434V450H171V154Q171 110 198 87T270 64Q297 64 329 73T381 99V403L310 434V450H461V45L532 16V0H381V63H376Q338 25 303 8T225 -10Z" />
<glyph unicode="v" glyph-name="uni0076" horiz-adv-x="480" d="M227 0L44 403L-23 434V450H216V434L134 404V398L262 119H266L379 392V398L307 434V450H503V434L429 399L248 0H227Z" />
<glyph unicode="w" glyph-name="uni0077" horiz-adv-x="753" d="M201 0L44 403L-23 434V450H216V434L134 404V398L238 121H242L384 450H405L547 124H551L652 392V398L580 434V450H776V434L702 399L535 0H514L370 326L222 0H201Z" />
<glyph unicode="x" glyph-name="uni0078" horiz-adv-x="496" d="M26 0V16L80 51L211 223L78 403L31 434V450H238V434L170 404V398L263 272L344 392V398L287 434V450H453V434L400 399L283 245L429 47L470 16V0H276V16L337 46V52L231 195L139 58V52L201 16V0H26Z" />
<glyph unicode="y" glyph-name="uni0079" horiz-adv-x="480" d="M83 -241Q60 -241 55 -235T49 -212V-162L53 -158H99Q124 -158 137 -154T161 -131T192 -70L227 8L44 403L-23 434V450H216V434L134 403V398L267 108H270L382 392V398L307 434V450H503V434L428 400L231
-79Q222 -102 216 -117T201 -147T178 -183Q158 -212 133 -226T83 -241Z" />
<glyph unicode="z" glyph-name="uni007A" horiz-adv-x="482" d="M70 0V18L295 406H130L85 306H69L80 460H85Q98 457 117 454T148 450H399V432L174 44H354L391 151H407V0H70Z" />
<glyph unicode="{" glyph-name="uni007B" horiz-adv-x="250" d="M226 -150Q143 -150 106 -113T68 -17Q68 24 80 60T104 131T116 199Q116 233 98 258T30 284H5V307H30Q79 307 97 332T116 391Q116 425 104 459T80 529T68 607Q68 666 105 703T226 740H245V717H218Q174
717 153 692T132 625Q132 586 143 551T164 482T175 413Q175 376 156 347T89 295Q137 272 156 243T175 177Q175 142 165 109T143 40T132 -35Q132 -76 153 -101T218 -127H245V-150H226Z" />
<glyph unicode="|" glyph-name="uni007C" horiz-adv-x="250" d="M100 -250V750H150V-250H100Z" />
<glyph unicode="}" glyph-name="uni007D" horiz-adv-x="250" d="M24 -150H5V-127H32Q76 -127 97 -102T118 -35Q118 4 107 39T86 108T75 177Q75 214 94 243T161 295Q113 318 94 347T75 413Q75 448 85 481T107 550T118 625Q118 666 97 691T32 717H5V740H24Q107 740
144 703T182 607Q182 566 170 530T146 459T134 391Q134 358 152 333T220 307H245V284H220Q171 284 153 259T134 199Q134 165 146 131T170 61T182 -17Q182 -76 145 -113T24 -150Z" />
<glyph unicode="~" glyph-name="uni007E" horiz-adv-x="500" d="M40 201Q40 268 71 305T154 343Q190 343 215 330T261 298T302 266T347 252Q379 252 393 274T408 343H460Q460 276 429 239T346 201Q310 201 285 214T239 246T198 278T153 292Q92 292 92 201H40Z" />
<glyph unicode="&#xa0;" glyph-name="uni00A0" horiz-adv-x="250" />
<glyph unicode="&#xa1;" glyph-name="uni00A1" horiz-adv-x="250" d="M125 338Q100 338 82 356T64 399Q64 423 82 441T125 460Q149 460 167 442T186 399Q186 374 168 356T125 338ZM70 -205L115 255H135L180 -205H70Z" />
<glyph unicode="&#xa2;" glyph-name="uni00A2" horiz-adv-x="500" d="M168 26L188 108Q127 129 93 182T58 311Q58 386 88 443T171 532T288 565Q294 565 301 565L318 635H355L337 560Q364 554 387 543T424 517Q440 498 440 487Q440 473 427 463L389 431H382L348
477Q336 493 322 502L244 184Q273 175 310 175Q365 175 439 215H442V192Q413 150 368 123T267 96Q244 96 223 100L205 26H168ZM141 357Q141 301 158 261T210 199L289 516Q274 519 257 519Q202 519 172 477T141 357Z" />
<glyph unicode="&#xa3;" glyph-name="uni00A3" horiz-adv-x="500" d="M47 0V40Q117 98 145 139T174 218Q174 240 165 264T142 315H43V353H123Q108 383 97 413T85 471Q85 521 109 566T177 641T281 670Q333 670 369 654T426 613Q442 594 442 583Q442 569 429 559L384
523H377L363 549Q340 590 320 606T263 622Q213 622 188 595T163 529Q163 491 186 445T233 353H393V315H251Q259 296 264 279T269 245Q269 205 241 166T149 82H391L421 179H457L447 0H47Z" />
<glyph unicode="&#xa4;" glyph-name="uni00A4" horiz-adv-x="500" d="M40 98L119 177Q105 197 97 221T88 272Q88 298 96 322T119 367L40 446L76 482L155 403Q175 417 199 425T250 434Q276 434 300 426T345 403L424 482L460 446L381 367Q395 347 403 323T412 272Q412
246 404 222T381 177L460 98L424 62L345 141Q325 127 301 119T250 110Q224 110 200 118T155 141L76 62L40 98ZM250 157Q297 157 328 190T360 272Q360 321 329 354T250 387Q203 387 172 354T140 272Q140 223 171 190T250 157Z" />
<glyph unicode="&#xa5;" glyph-name="uni00A5" horiz-adv-x="500" d="M120 0V16L205 56V239H72V277H205V389H72V427H180L35 627L2 644V660H210V644L149 622V620L273 439L384 615V618L322 644V660H498V644L452 625L315 427H422V389H290V277H422V239H290V56L375 16V0H120Z" />
<glyph unicode="&#xa6;" glyph-name="uni00A6" horiz-adv-x="250" d="M100 350V750H150V350H100ZM100 -250V150H150V-250H100Z" />
<glyph unicode="&#xa7;" glyph-name="uni00A7" horiz-adv-x="500" d="M188 -120Q159 -120 130 -108T86 -81Q69 -62 69 -51Q69 -47 71 -41T82 -28L120 8H125L147 -16Q165 -36 188 -51T244 -66Q284 -66 308 -44T333 12Q333 53 312 74T256 107T183 127T110 151T54
194T32 273Q32 319 60 352T136 404Q119 420 109 444T98 503Q98 547 126 585T202 646T314 670Q341 670 362 660T398 636Q405 628 409 622T414 609Q414 600 401 587L366 554H362L341 576Q324 594 303 607T252 620Q217 620 192 598T166 543Q166 502 187 480T243 447T315
427T388 405T443 365T465 291Q465 241 436 206T353 152Q375 136 388 112T401 48Q401 16 383 -14T333 -68T264 -106T188 -120ZM105 302Q105 263 125 242T177 211T246 193T315 172Q348 177 372 199T397 253Q397 286 382 305T341 334T286 350T224 364T166 384Q134
375 120 354T105 302Z" />
<glyph unicode="&#xa8;" glyph-name="uni00A8" horiz-adv-x="500" d="M158 568Q137 568 123 582T109 617Q109 638 123 652T158 666Q179 666 193 652T207 617Q207 596 193 582T158 568ZM342 568Q321 568 307 582T293 617Q293 638 307 652T342 666Q363 666 377 652T391
617Q391 596 377 582T342 568Z" />
<glyph unicode="&#xa9;" glyph-name="uni00A9" horiz-adv-x="806" d="M403 -10Q331 -10 271 15T165 86T95 194T70 330Q70 404 95 466T165 573T270 644T403 670Q475 670 535 645T641 574T711 466T736 330Q736 256 711 194T641 87T536 16T403 -10ZM403 26Q488 26
554 65T659 174T698 330Q698 418 660 486T555 594T403 634Q318 634 252 595T147 487T108 330Q108 243 146 174T251 66T403 26ZM414 129Q352 129 308 154T239 224T215 324Q215 381 243 430T319 510T423 540Q468 540 494 531T547 509L551 394H522L490 469Q470 482
456 488T422 495Q362 495 324 452T285 341Q285 263 321 219T413 175Q438 175 457 180T496 199L529 266H558L550 161Q522 147 491 138T414 129Z" />
<glyph unicode="&#xaa;" glyph-name="uni00AA" horiz-adv-x="400" d="M144 417Q118 417 100 432T82 477Q82 506 100 522T168 552L218 565V598Q218 618 206 630T174 642Q141 642 141 611V588L139 586H105Q91 586 91 602Q91 626 124 646Q142 657 159 663T195 669Q238
669 262 653T287 602V461Q296 452 314 452H329L331 450V444Q325 434 312 426T276 417Q234 417 221 452H218Q204 436 185 427T144 417ZM148 491Q148 458 184 458Q199 458 218 466V543Q174 534 161 522T148 491ZM85 292V342H315V292H85Z" />
<glyph unicode="&#xab;" glyph-name="uni00AB" horiz-adv-x="430" d="M219 70L20 247L219 424H230L118 247L230 70H219ZM399 70L200 247L399 424H410L298 247L410 70H399Z" />
<glyph unicode="&#xac;" glyph-name="uni00AC" horiz-adv-x="500" d="M410 62V247H40V297H460V62H410Z" />
<glyph unicode="&#xad;" glyph-name="uni00AD" horiz-adv-x="375" d="M50 222V292H325V222H50Z" />
<glyph unicode="&#xae;" glyph-name="uni00AE" horiz-adv-x="540" d="M270 238Q209 238 161 266T86 343T58 454Q58 516 85 564T161 641T270 670Q331 670 379 642T454 565T482 454Q482 392 455 344T379 267T270 238ZM270 268Q323 268 363 292T426 359T449 454Q449
507 427 549T364 615T270 640Q217 640 177 616T114 549T91 454Q91 401 113 359T176 293T270 268ZM162 329V336L193 352V562L162 578V584H269Q310 584 333 567T356 521Q356 499 341 482T302 455L356 349L382 336V329H318L260 446H235V352L265 336V329H162ZM257 561H235V469H259Q281
469 296 481T311 516Q311 539 296 550T257 561Z" />
<glyph unicode="&#xaf;" glyph-name="uni00AF" horiz-adv-x="500" d="M117 592V642H383V592H117Z" />
<glyph unicode="&#xb0;" glyph-name="uni00B0" horiz-adv-x="500" d="M250 410Q212 410 183 428T137 475T120 540Q120 575 137 604T183 652T250 670Q288 670 317 652T363 605T380 540Q380 505 363 476T317 428T250 410ZM250 449Q287 449 312 473T338 540Q338 582
313 606T250 631Q213 631 188 607T162 540Q162 498 187 474T250 449Z" />
<glyph unicode="&#xb1;" glyph-name="uni00B1" horiz-adv-x="500" d="M224 152V287H40V337H224V482H276V337H460V287H276V152H224ZM40 62V112H460V62H40Z" />
<glyph unicode="&#xb2;" glyph-name="uni00B2" horiz-adv-x="316" d="M27 505V525Q85 591 120 634T172 707T195 757T201 800Q201 830 187 849T141 869Q114 869 98 851T81 801V774L77 769H40Q30 769 25 773T20 791Q20 812 31 829T64 864Q84 881 106 890T166 900Q219
900 250 871T281 794Q281 771 274 751T247 707T188 648T86 557H254L281 616H296L290 505H27Z" />
<glyph unicode="&#xb3;" glyph-name="uni00B3" horiz-adv-x="320" d="M154 495Q98 495 57 522Q40 533 30 546T20 574Q20 589 25 592T42 596H77L82 591V577Q82 551 100 538T147 525Q183 525 201 547T219 603Q219 644 198 666T124 689H90V716H105Q147 716 173 738T199
804Q199 834 185 851T141 869Q118 869 104 855T90 815V791L85 786H50Q40 786 35 790T29 811Q29 843 68 869Q91 884 111 892T163 900Q216 900 248 875T280 807Q280 772 253 748T180 713Q300 699 300 610Q300 561 259 528T154 495Z" />
<glyph unicode="&#xb4;" glyph-name="uni00B4" horiz-adv-x="500" d="M165 530L252 707H334Q334 692 328 677T301 644L176 530H165Z" />
<glyph unicode="&#xb5;" glyph-name="uni00B5" horiz-adv-x="561" d="M251 -10Q224 -10 200 -3T153 26L171 -210L93 -230H91V450H171V154Q171 110 198 87T270 64Q297 64 329 73T381 99V450H461V67Q468 60 481 55T517 50H555L558 48V45Q546 23 523 7T465 -10Q430
-10 410 10T384 63H378Q346 25 316 8T251 -10Z" />
<glyph unicode="&#xb6;" glyph-name="uni00B6" horiz-adv-x="496" d="M266 -110V359H223Q169 359 127 379T60 434T35 514Q35 590 82 625T207 660H316V-110H266ZM376 -110V660H506V644L426 604V-110H376Z" />
<glyph unicode="&#xb7;" glyph-name="uni00B7" horiz-adv-x="250" d="M125 210Q100 210 82 228T64 271Q64 296 82 314T125 332Q150 332 168 314T186 271Q186 246 168 228T125 210Z" />
<glyph unicode="&#xb8;" glyph-name="uni00B8" horiz-adv-x="500" d="M243 -240Q186 -240 160 -210V-198H163Q176 -204 191 -207T226 -210Q256 -210 268 -199T280 -171Q280 -149 259 -136T179 -103L236 20H271L237 -55Q294 -73 317 -94T340 -155Q340 -191 315
-215T243 -240Z" />
<glyph unicode="&#xb9;" glyph-name="uni00B9" horiz-adv-x="269" d="M64 505V520L119 541V828L15 774V802L157 890H195V541L244 520V505H64Z" />
<glyph unicode="&#xba;" glyph-name="uni00BA" horiz-adv-x="400" d="M200 417Q144 417 110 453T75 543Q75 595 109 632T200 669Q256 669 290 632T325 543Q325 490 291 454T200 417ZM206 442Q228 442 240 466T253 532Q253 583 237 613T195 644Q172 644 160 619T147
554Q147 502 163 472T206 442ZM85 292V342H315V292H85Z" />
<glyph unicode="&#xbb;" glyph-name="uni00BB" horiz-adv-x="430" d="M20 70L132 247L20 424H31L230 247L31 70H20ZM200 70L312 247L200 424H211L410 247L211 70H200Z" />
<glyph unicode="&#xbc;" glyph-name="uni00BC" horiz-adv-x="750" d="M64 355V370L119 391V678L15 624V652L157 740H195V391L244 370V355H64ZM67 13L532 750L568 727L103 -10L67 13ZM505 0V15L560 36V105H394V120L598 385H636V144H706V105H636V36L685 15V0H505ZM452
144H560V288L452 144Z" />
<glyph unicode="&#xbd;" glyph-name="uni00BD" horiz-adv-x="750" d="M64 355V370L119 391V678L15 624V652L157 740H195V391L244 370V355H64ZM67 13L532 750L568 727L103 -10L67 13ZM427 0V20Q485 86 520 129T572 202T595 252T601 295Q601 325 587 344T541 364Q514
364 498 346T481 296V269L477 264H440Q430 264 425 268T420 286Q420 307 431 324T464 359Q484 376 506 385T566 395Q619 395 650 366T681 289Q681 266 674 246T647 202T588 143T486 52H654L681 111H696L690 0H427Z" />
<glyph unicode="&#xbe;" glyph-name="uni00BE" horiz-adv-x="750" d="M154 345Q98 345 57 372Q40 383 30 396T20 424Q20 439 25 442T42 446H77L82 441V427Q82 401 100 388T147 375Q183 375 201 397T219 453Q219 494 198 516T124 539H90V566H105Q147 566 173 588T199
654Q199 684 185 701T141 719Q118 719 104 705T90 665V641L85 636H50Q40 636 35 640T29 661Q29 693 68 719Q91 734 111 742T163 750Q216 750 248 725T280 657Q280 622 253 598T180 563Q300 549 300 460Q300 411 259 378T154 345ZM118 13L583 750L619 727L154 -10L118
13ZM531 0V15L586 36V105H420V120L624 385H662V144H732V105H662V36L711 15V0H531ZM478 144H586V288L478 144Z" />
<glyph unicode="&#xbf;" glyph-name="uni00BF" horiz-adv-x="479" d="M269 338Q245 338 227 356T208 399Q208 423 226 441T269 460Q294 460 312 442T330 399Q330 374 312 356T269 338ZM233 -215Q182 -215 142 -191T79 -127T56 -38Q56 26 100 78T251 178L259 255H279L305
110Q231 84 190 49T148 -36Q148 -106 181 -138T263 -170Q305 -170 328 -143T351 -63V-23L359 -13H400Q420 -13 429 -20T438 -53Q438 -80 424 -107T378 -156Q344 -181 314 -198T233 -215Z" />
<glyph unicode="&#xc0;" glyph-name="uni00C0" horiz-adv-x="750" d="M33 0V16L97 49L353 665H398L650 52L717 16V0H469V16L557 50L482 235H239L165 50L249 16V0H33ZM262 290H460L361 536L262 290ZM370 710L245 799Q223 815 218 831T212 862H294L381 710H370Z" />
<glyph unicode="&#xc1;" glyph-name="uni00C1" horiz-adv-x="750" d="M33 0V16L97 49L353 665H398L650 52L717 16V0H469V16L557 50L482 235H239L165 50L249 16V0H33ZM262 290H460L361 536L262 290ZM371 710L458 862H540Q540 847 535 831T507 799L382 710H371Z" />
<glyph unicode="&#xc2;" glyph-name="uni00C2" horiz-adv-x="750" d="M33 0V16L97 49L353 665H398L650 52L717 16V0H469V16L557 50L482 235H239L165 50L249 16V0H33ZM262 290H460L361 536L262 290ZM229 710L361 862H391L523 710H512L376 785L240 710H229Z" />
<glyph unicode="&#xc3;" glyph-name="uni00C3" horiz-adv-x="750" d="M33 0V16L97 49L353 665H398L650 52L717 16V0H469V16L557 50L482 235H239L165 50L249 16V0H33ZM262 290H460L361 536L262 290ZM224 726Q240 776 254 800T284 832T319 840Q345 840 367 827T409
801T453 788Q472 788 487 798T515 840H528Q512 790 498 766T468 734T433 726Q407 726 385 739T343 765T299 778Q280 778 265 768T237 726H224Z" />
<glyph unicode="&#xc4;" glyph-name="uni00C4" horiz-adv-x="750" d="M33 0V16L97 49L353 665H398L650 52L717 16V0H469V16L557 50L482 235H239L165 50L249 16V0H33ZM262 290H460L361 536L262 290ZM284 737Q263 737 249 751T235 786Q235 807 249 821T284 835Q305
835 319 821T333 786Q333 765 319 751T284 737ZM468 737Q447 737 433 751T419 786Q419 807 433 821T468 835Q489 835 503 821T517 786Q517 765 503 751T468 737Z" />
<glyph unicode="&#xc5;" glyph-name="uni00C5" horiz-adv-x="750" d="M33 0V16L97 49L353 665H398L650 52L717 16V0H469V16L557 50L482 235H239L165 50L249 16V0H33ZM262 290H460L361 536L262 290ZM376 710Q338 710 314 733T290 793Q290 828 314 852T376 876Q415
876 438 852T462 793Q462 757 439 734T376 710ZM381 734Q414 734 414 786Q414 852 372 852Q356 852 348 840T340 800Q340 734 381 734Z" />
<glyph unicode="&#xc6;" glyph-name="uni00C6" horiz-adv-x="982" d="M464 660H884V488H868L806 605H565V368H735L785 451H801V232H785L735 313H565V55H834L896 182H912V0H395V16L475 56V235H272L163 50L243 16V0H28V16L92 49L464 660ZM305 290H475V578L305 290Z" />
<glyph unicode="&#xc7;" glyph-name="uni00C7" horiz-adv-x="726" d="M383 -210Q413 -210 425 -199T437 -171Q437 -149 416 -136T336 -103L379 -10Q283 -5 214 37T107 151T70 312Q70 383 97 447T172 562T282 641T415 670Q465 670 500 664T562 647T618 622L623
447H605L544 569Q506 596 478 608T413 620Q341 620 285 584T196 486T163 342Q163 247 194 180T279 77T398 41Q453 41 490 56T557 91L617 198H634L623 39Q595 25 566 15T501 -2T414 -10L394 -55Q451 -73 474 -94T497 -155Q497 -191 472 -215T400 -240Q343 -240 317
-210V-198H320Q334 -204 348 -207T383 -210Z" />
<glyph unicode="&#xc8;" glyph-name="uni00C8" horiz-adv-x="652" d="M65 0V16L145 56V604L65 644V660H554V488H538L476 605H235V368H405L455 451H471V232H455L405 313H235V55H504L566 182H582V0H65ZM329 710L204 799Q182 815 177 831T171 862H253L340 710H329Z" />
<glyph unicode="&#xc9;" glyph-name="uni00C9" horiz-adv-x="652" d="M65 0V16L145 56V604L65 644V660H554V488H538L476 605H235V368H405L455 451H471V232H455L405 313H235V55H504L566 182H582V0H65ZM330 710L417 862H499Q499 847 494 831T466 799L341 710H330Z" />
<glyph unicode="&#xca;" glyph-name="uni00CA" horiz-adv-x="652" d="M65 0V16L145 56V604L65 644V660H554V488H538L476 605H235V368H405L455 451H471V232H455L405 313H235V55H504L566 182H582V0H65ZM188 710L320 862H350L482 710H471L335 785L199 710H188Z" />
<glyph unicode="&#xcb;" glyph-name="uni00CB" horiz-adv-x="652" d="M65 0V16L145 56V604L65 644V660H554V488H538L476 605H235V368H405L455 451H471V232H455L405 313H235V55H504L566 182H582V0H65ZM243 737Q222 737 208 751T194 786Q194 807 208 821T243 835Q264
835 278 821T292 786Q292 765 278 751T243 737ZM427 737Q406 737 392 751T378 786Q378 807 392 821T427 835Q448 835 462 821T476 786Q476 765 462 751T427 737Z" />
<glyph unicode="&#xcc;" glyph-name="uni00CC" horiz-adv-x="390" d="M70 0V16L150 56V604L70 644V660H320V644L240 604V56L320 16V0H70ZM189 710L64 799Q42 815 37 831T31 862H113L200 710H189Z" />
<glyph unicode="&#xcd;" glyph-name="uni00CD" horiz-adv-x="390" d="M70 0V16L150 56V604L70 644V660H320V644L240 604V56L320 16V0H70ZM190 710L277 862H359Q359 847 354 831T326 799L201 710H190Z" />
<glyph unicode="&#xce;" glyph-name="uni00CE" horiz-adv-x="390" d="M70 0V16L150 56V604L70 644V660H320V644L240 604V56L320 16V0H70ZM48 710L180 862H210L342 710H331L195 785L59 710H48Z" />
<glyph unicode="&#xcf;" glyph-name="uni00CF" horiz-adv-x="390" d="M70 0V16L150 56V604L70 644V660H320V644L240 604V56L320 16V0H70ZM103 737Q82 737 68 751T54 786Q54 807 68 821T103 835Q124 835 138 821T152 786Q152 765 138 751T103 737ZM287 737Q266
737 252 751T238 786Q238 807 252 821T287 835Q308 835 322 821T336 786Q336 765 322 751T287 737Z" />
<glyph unicode="&#xd0;" glyph-name="uni00D0" horiz-adv-x="775" d="M65 0V16L145 56V317H65V367H145V604L65 644V660H358Q468 660 546 621T664 514T705 360Q705 282 679 216T604 102T492 27T351 0H65ZM410 317H235V55H350Q430 55 488 88T578 183T610 329Q610
412 578 474T485 571T335 605H235V367H410V317Z" />
<glyph unicode="&#xd1;" glyph-name="uni00D1" horiz-adv-x="799" d="M60 0V16L140 56V602L61 644V660H208L590 180V606L490 644V660H739V644L660 605V-5H623L210 516V55L310 16V0H60ZM258 726Q274 776 288 800T318 832T353 840Q379 840 401 827T443 801T487 788Q506
788 521 798T549 840H562Q546 790 532 766T502 734T467 726Q441 726 419 739T377 765T333 778Q314 778 299 768T271 726H258Z" />
<glyph unicode="&#xd2;" glyph-name="uni00D2" horiz-adv-x="807" d="M403 -10Q331 -10 271 15T165 86T95 194T70 330Q70 404 95 466T165 573T270 644T403 670Q475 670 536 645T642 574T712 466T737 330Q737 256 712 194T642 87T536 16T403 -10ZM424 40Q488 40
536 72T612 162T640 299Q640 396 606 468T515 581T386 621Q322 621 273 590T195 500T167 363Q167 266 201 193T294 80T424 40ZM385 710L260 799Q238 815 233 831T227 862H309L396 710H385Z" />
<glyph unicode="&#xd3;" glyph-name="uni00D3" horiz-adv-x="807" d="M403 -10Q331 -10 271 15T165 86T95 194T70 330Q70 404 95 466T165 573T270 644T403 670Q475 670 536 645T642 574T712 466T737 330Q737 256 712 194T642 87T536 16T403 -10ZM424 40Q488 40
536 72T612 162T640 299Q640 396 606 468T515 581T386 621Q322 621 273 590T195 500T167 363Q167 266 201 193T294 80T424 40ZM386 710L473 862H555Q555 847 550 831T522 799L397 710H386Z" />
<glyph unicode="&#xd4;" glyph-name="uni00D4" horiz-adv-x="807" d="M403 -10Q331 -10 271 15T165 86T95 194T70 330Q70 404 95 466T165 573T270 644T403 670Q475 670 536 645T642 574T712 466T737 330Q737 256 712 194T642 87T536 16T403 -10ZM424 40Q488 40
536 72T612 162T640 299Q640 396 606 468T515 581T386 621Q322 621 273 590T195 500T167 363Q167 266 201 193T294 80T424 40ZM244 710L376 862H406L538 710H527L391 785L255 710H244Z" />
<glyph unicode="&#xd5;" glyph-name="uni00D5" horiz-adv-x="807" d="M403 -10Q331 -10 271 15T165 86T95 194T70 330Q70 404 95 466T165 573T270 644T403 670Q475 670 536 645T642 574T712 466T737 330Q737 256 712 194T642 87T536 16T403 -10ZM424 40Q488 40
536 72T612 162T640 299Q640 396 606 468T515 581T386 621Q322 621 273 590T195 500T167 363Q167 266 201 193T294 80T424 40ZM239 726Q255 776 269 800T299 832T334 840Q360 840 382 827T424 801T468 788Q487 788 502 798T530 840H543Q527 790 513 766T483 734T448
726Q422 726 400 739T358 765T314 778Q295 778 280 768T252 726H239Z" />
<glyph unicode="&#xd6;" glyph-name="uni00D6" horiz-adv-x="807" d="M403 -10Q331 -10 271 15T165 86T95 194T70 330Q70 404 95 466T165 573T270 644T403 670Q475 670 536 645T642 574T712 466T737 330Q737 256 712 194T642 87T536 16T403 -10ZM424 40Q488 40
536 72T612 162T640 299Q640 396 606 468T515 581T386 621Q322 621 273 590T195 500T167 363Q167 266 201 193T294 80T424 40ZM299 737Q278 737 264 751T250 786Q250 807 264 821T299 835Q320 835 334 821T348 786Q348 765 334 751T299 737ZM483 737Q462 737 448
751T434 786Q434 807 448 821T483 835Q504 835 518 821T532 786Q532 765 518 751T483 737Z" />
<glyph unicode="&#xd7;" glyph-name="uni00D7" horiz-adv-x="500" d="M102 88L66 125L213 272L66 419L102 456L250 308L398 456L434 419L287 272L434 125L398 88L250 236L102 88Z" />
<glyph unicode="&#xd8;" glyph-name="uni00D8" horiz-adv-x="807" d="M70 -10L160 92Q117 137 94 198T70 330Q70 404 95 466T165 573T270 644T403 670Q462 670 514 653T609 603L668 670H737L647 568Q690 523 713 462T737 330Q737 256 712 194T642 87T536 16T403
-10Q344 -10 292 7T198 57L139 -10H70ZM167 363Q167 303 181 252T219 160L557 544Q523 581 480 601T386 621Q322 621 273 590T195 500T167 363ZM424 40Q488 40 536 72T612 162T640 299Q640 359 627 410T589 501L251 118Q285 80 329 60T424 40Z" />
<glyph unicode="&#xd9;" glyph-name="uni00D9" horiz-adv-x="809" d="M405 -10Q330 -10 272 18T179 104T145 256V604L65 644V660H315V644L235 604V271Q235 188 261 139T331 69T431 48Q475 48 512 67T572 127T595 236V606L495 644V660H744V644L665 605V256Q665
163 631 105T539 18T405 -10ZM409 710L284 799Q262 815 257 831T251 862H333L420 710H409Z" />
<glyph unicode="&#xda;" glyph-name="uni00DA" horiz-adv-x="809" d="M405 -10Q330 -10 272 18T179 104T145 256V604L65 644V660H315V644L235 604V271Q235 188 261 139T331 69T431 48Q475 48 512 67T572 127T595 236V606L495 644V660H744V644L665 605V256Q665
163 631 105T539 18T405 -10ZM410 710L497 862H579Q579 847 574 831T546 799L421 710H410Z" />
<glyph unicode="&#xdb;" glyph-name="uni00DB" horiz-adv-x="809" d="M405 -10Q330 -10 272 18T179 104T145 256V604L65 644V660H315V644L235 604V271Q235 188 261 139T331 69T431 48Q475 48 512 67T572 127T595 236V606L495 644V660H744V644L665 605V256Q665
163 631 105T539 18T405 -10ZM268 710L400 862H430L562 710H551L415 785L279 710H268Z" />
<glyph unicode="&#xdc;" glyph-name="uni00DC" horiz-adv-x="809" d="M405 -10Q330 -10 272 18T179 104T145 256V604L65 644V660H315V644L235 604V271Q235 188 261 139T331 69T431 48Q475 48 512 67T572 127T595 236V606L495 644V660H744V644L665 605V256Q665
163 631 105T539 18T405 -10ZM323 737Q302 737 288 751T274 786Q274 807 288 821T323 835Q344 835 358 821T372 786Q372 765 358 751T323 737ZM507 737Q486 737 472 751T458 786Q458 807 472 821T507 835Q528 835 542 821T556 786Q556 765 542 751T507 737Z" />
<glyph unicode="&#xdd;" glyph-name="uni00DD" horiz-adv-x="718" d="M228 0V16L318 56V308L96 611L35 644V660H277V644L204 609V605L383 362L544 604V608L471 644V660H683V644L619 611L408 309V56L498 16V0H228ZM369 710L456 862H538Q538 847 533 831T505 799L380
710H369Z" />
<glyph unicode="&#xde;" glyph-name="uni00DE" horiz-adv-x="638" d="M65 0V16L145 56V604L65 644V660H315V644L235 604V540H325Q443 540 514 497T586 361Q586 306 549 264T447 196T301 171H235V56L315 16V0H65ZM313 485H235V226H320Q399 226 444 261T489 353Q489
423 444 454T313 485Z" />
<glyph unicode="&#xdf;" glyph-name="uni00DF" horiz-adv-x="603" d="M64 0V16L127 48V403H49V450H127V480Q127 531 143 579T188 666T261 727T358 750Q435 750 479 713T523 623Q523 592 511 567T479 520T441 476T410 430T397 374Q397 354 407 339T439 308T493
265Q543 225 563 195T583 124Q583 87 563 57T508 8T435 -10Q388 -10 355 -2T287 24V136H301L333 81Q348 55 371 41T427 26Q464 26 488 45T513 101Q513 142 482 168T404 228Q370 253 346 279T321 351Q321 379 333 400T365 441T403 483T434 536T447 608Q447 651 418
680T334 710Q265 710 236 666T207 552V0H64Z" />
<glyph unicode="&#xe0;" glyph-name="uni00E0" horiz-adv-x="489" d="M156 -10Q109 -10 78 17T47 94Q47 143 83 179T206 235L301 257V330Q301 364 274 388T211 413Q173 413 158 393T143 338V310L138 305H86Q71 305 66 310T60 333Q60 355 73 378T113 418Q141 436
171 448T237 460Q272 460 305 450T360 417T381 351V67Q388 60 401 55T437 50H475L478 48V45Q466 23 443 7T385 -10Q354 -10 335 6T307 50H301Q275 24 237 7T156 -10ZM125 114Q125 52 200 52Q224 52 247 57T301 75V223Q221 208 184 192T136 156T125 114ZM220 530L95
644Q75 662 69 677T62 707H144L231 530H220Z" />
<glyph unicode="&#xe1;" glyph-name="uni00E1" horiz-adv-x="489" d="M156 -10Q109 -10 78 17T47 94Q47 143 83 179T206 235L301 257V330Q301 364 274 388T211 413Q173 413 158 393T143 338V310L138 305H86Q71 305 66 310T60 333Q60 355 73 378T113 418Q141 436
171 448T237 460Q272 460 305 450T360 417T381 351V67Q388 60 401 55T437 50H475L478 48V45Q466 23 443 7T385 -10Q354 -10 335 6T307 50H301Q275 24 237 7T156 -10ZM125 114Q125 52 200 52Q224 52 247 57T301 75V223Q221 208 184 192T136 156T125 114ZM225 530L312
707H394Q394 692 388 677T361 644L236 530H225Z" />
<glyph unicode="&#xe2;" glyph-name="uni00E2" horiz-adv-x="489" d="M156 -10Q109 -10 78 17T47 94Q47 143 83 179T206 235L301 257V330Q301 364 274 388T211 413Q173 413 158 393T143 338V310L138 305H86Q71 305 66 310T60 333Q60 355 73 378T113 418Q141 436
171 448T237 460Q272 460 305 450T360 417T381 351V67Q388 60 401 55T437 50H475L478 48V45Q466 23 443 7T385 -10Q354 -10 335 6T307 50H301Q275 24 237 7T156 -10ZM125 114Q125 52 200 52Q224 52 247 57T301 75V223Q221 208 184 192T136 156T125 114ZM78 530L210
707H240L372 530H361L225 625L89 530H78Z" />
<glyph unicode="&#xe3;" glyph-name="uni00E3" horiz-adv-x="489" d="M156 -10Q109 -10 78 17T47 94Q47 143 83 179T206 235L301 257V330Q301 364 274 388T211 413Q173 413 158 393T143 338V310L138 305H86Q71 305 66 310T60 333Q60 355 73 378T113 418Q141 436
171 448T237 460Q272 460 305 450T360 417T381 351V67Q388 60 401 55T437 50H475L478 48V45Q466 23 443 7T385 -10Q354 -10 335 6T307 50H301Q275 24 237 7T156 -10ZM125 114Q125 52 200 52Q224 52 247 57T301 75V223Q221 208 184 192T136 156T125 114ZM73 556Q91
610 105 636T134 671T168 680Q187 680 204 670T238 648T269 625T302 615Q321 615 334 628T364 680H377Q359 626 345 600T316 565T282 556Q263 556 246 566T212 588T181 611T148 621Q129 621 116 608T86 556H73Z" />
<glyph unicode="&#xe4;" glyph-name="uni00E4" horiz-adv-x="489" d="M156 -10Q109 -10 78 17T47 94Q47 143 83 179T206 235L301 257V330Q301 364 274 388T211 413Q173 413 158 393T143 338V310L138 305H86Q71 305 66 310T60 333Q60 355 73 378T113 418Q141 436
171 448T237 460Q272 460 305 450T360 417T381 351V67Q388 60 401 55T437 50H475L478 48V45Q466 23 443 7T385 -10Q354 -10 335 6T307 50H301Q275 24 237 7T156 -10ZM125 114Q125 52 200 52Q224 52 247 57T301 75V223Q221 208 184 192T136 156T125 114ZM133 568Q112
568 98 582T84 617Q84 638 98 652T133 666Q154 666 168 652T182 617Q182 596 168 582T133 568ZM317 568Q296 568 282 582T268 617Q268 638 282 652T317 666Q338 666 352 652T366 617Q366 596 352 582T317 568Z" />
<glyph unicode="&#xe5;" glyph-name="uni00E5" horiz-adv-x="489" d="M156 -10Q109 -10 78 17T47 94Q47 143 83 179T206 235L301 257V330Q301 364 274 388T211 413Q173 413 158 393T143 338V310L138 305H86Q71 305 66 310T60 333Q60 355 73 378T113 418Q141 436
171 448T237 460Q272 460 305 450T360 417T381 351V67Q388 60 401 55T437 50H475L478 48V45Q466 23 443 7T385 -10Q354 -10 335 6T307 50H301Q275 24 237 7T156 -10ZM125 114Q125 52 200 52Q224 52 247 57T301 75V223Q221 208 184 192T136 156T125 114ZM225 701Q264
701 287 677T311 618Q311 582 288 559T225 535Q187 535 163 558T139 618Q139 653 163 677T225 701ZM221 677Q205 677 197 665T189 625Q189 559 230 559Q263 559 263 611Q263 677 221 677Z" />
<glyph unicode="&#xe6;" glyph-name="uni00E6" horiz-adv-x="737" d="M157 -10Q110 -10 79 17T48 94Q48 143 84 179T207 235L302 257V330Q302 364 274 388T212 413Q174 413 159 393T144 338V310L139 305H87Q72 305 67 310T61 333Q61 355 74 378T114 418Q142 436
173 448T238 460Q280 460 319 446T374 395Q402 426 439 443T516 460Q595 460 640 405T686 247L681 242H382Q383 196 400 156T454 90T555 65Q610 65 684 105H687V95Q664 52 619 21T512 -10Q456 -10 412 11T341 71H336Q308 37 262 14T157 -10ZM500 416Q452 416 422
383T384 288H610Q599 356 572 386T500 416ZM126 114Q126 52 201 52Q236 52 266 62T329 89Q302 140 302 207V223Q222 208 185 192T137 156T126 114Z" />
<glyph unicode="&#xe7;" glyph-name="uni00E7" horiz-adv-x="479" d="M243 -210Q273 -210 285 -199T297 -171Q297 -149 276 -136T196 -103L239 -9Q151 -3 101 55T50 205Q50 280 80 337T163 427T280 460Q320 460 358 447T416 411Q432 392 432 381Q432 367 419 357L381
325H374L340 371Q325 391 303 403T247 416Q192 416 161 373T129 251Q129 203 145 161T198 92T302 65Q357 65 431 105H434V95Q412 54 371 25T274 -9L254 -55Q311 -73 334 -94T357 -155Q357 -191 332 -215T260 -240Q203 -240 177 -210V-198H180Q194 -204 208 -207T243
-210Z" />
<glyph unicode="&#xe8;" glyph-name="uni00E8" horiz-adv-x="484" d="M259 -10Q162 -10 106 49T50 205Q50 280 79 337T157 427T263 460Q342 460 387 405T433 247L428 242H129Q130 196 147 156T201 90T302 65Q357 65 431 105H434V95Q411 52 366 21T259 -10ZM247
416Q199 416 169 383T131 288H357Q346 356 319 386T247 416ZM255 530L130 644Q110 662 104 677T97 707H179L266 530H255Z" />
<glyph unicode="&#xe9;" glyph-name="uni00E9" horiz-adv-x="484" d="M259 -10Q162 -10 106 49T50 205Q50 280 79 337T157 427T263 460Q342 460 387 405T433 247L428 242H129Q130 196 147 156T201 90T302 65Q357 65 431 105H434V95Q411 52 366 21T259 -10ZM247
416Q199 416 169 383T131 288H357Q346 356 319 386T247 416ZM260 530L347 707H429Q429 692 423 677T396 644L271 530H260Z" />
<glyph unicode="&#xea;" glyph-name="uni00EA" horiz-adv-x="484" d="M259 -10Q162 -10 106 49T50 205Q50 280 79 337T157 427T263 460Q342 460 387 405T433 247L428 242H129Q130 196 147 156T201 90T302 65Q357 65 431 105H434V95Q411 52 366 21T259 -10ZM247
416Q199 416 169 383T131 288H357Q346 356 319 386T247 416ZM113 530L245 707H275L407 530H396L260 625L124 530H113Z" />
<glyph unicode="&#xeb;" glyph-name="uni00EB" horiz-adv-x="484" d="M259 -10Q162 -10 106 49T50 205Q50 280 79 337T157 427T263 460Q342 460 387 405T433 247L428 242H129Q130 196 147 156T201 90T302 65Q357 65 431 105H434V95Q411 52 366 21T259 -10ZM247
416Q199 416 169 383T131 288H357Q346 356 319 386T247 416ZM168 568Q147 568 133 582T119 617Q119 638 133 652T168 666Q189 666 203 652T217 617Q217 596 203 582T168 568ZM352 568Q331 568 317 582T303 617Q303 638 317 652T352 666Q373 666 387 652T401 617Q401
596 387 582T352 568Z" />
<glyph unicode="&#xec;" glyph-name="uni00EC" horiz-adv-x="313" d="M54 0V16L117 48V346L57 398V405L191 460H197V48L260 16V0H54ZM152 530L27 644Q7 662 1 677T-6 707H76L163 530H152Z" />
<glyph unicode="&#xed;" glyph-name="uni00ED" horiz-adv-x="313" d="M54 0V16L117 48V346L57 398V405L191 460H197V48L260 16V0H54ZM157 530L244 707H326Q326 692 320 677T293 644L168 530H157Z" />
<glyph unicode="&#xee;" glyph-name="uni00EE" horiz-adv-x="313" d="M54 0V16L117 48V346L57 398V405L191 460H197V48L260 16V0H54ZM10 530L142 707H172L304 530H293L157 625L21 530H10Z" />
<glyph unicode="&#xef;" glyph-name="uni00EF" horiz-adv-x="313" d="M54 0V16L117 48V346L57 398V405L191 460H197V48L260 16V0H54ZM65 568Q44 568 30 582T16 617Q16 638 30 652T65 666Q86 666 100 652T114 617Q114 596 100 582T65 568ZM249 568Q228 568 214
582T200 617Q200 638 214 652T249 666Q270 666 284 652T298 617Q298 596 284 582T249 568Z" />
<glyph unicode="&#xf0;" glyph-name="uni00F0" horiz-adv-x="545" d="M270 -10Q204 -10 155 20T78 102T50 215Q50 296 83 350T170 432T289 460Q315 460 335 458T372 452Q342 537 286 601L207 523H138L252 635Q191 688 112 716V749Q207 719 283 666L360 741H429L322
636Q404 566 449 470T495 259Q495 181 467 121T389 25T270 -10ZM140 226Q140 194 148 161T173 98T216 51T280 33Q330 33 366 87T402 264Q402 312 395 358Q368 384 340 397T276 411Q240 411 209 395T159 338T140 226Z" />
<glyph unicode="&#xf1;" glyph-name="uni00F1" horiz-adv-x="582" d="M48 0V16L111 48V346L51 398V405L175 460H181L190 386H195Q233 424 268 442T347 460Q406 460 443 431T481 343V48L544 16V0H330V16L401 48V296Q401 340 374 363T302 386Q275 386 243 377T191
351V48L262 16V0H48ZM144 556Q162 610 176 636T205 671T239 680Q258 680 275 670T309 648T340 625T373 615Q392 615 405 628T435 680H448Q430 626 416 600T387 565T353 556Q334 556 317 566T283 588T252 611T219 621Q200 621 187 608T157 556H144Z" />
<glyph unicode="&#xf2;" glyph-name="uni00F2" horiz-adv-x="540" d="M270 -10Q204 -10 155 21T78 105T50 225Q50 292 77 345T154 429T270 460Q336 460 385 429T462 345T490 225Q490 158 463 105T386 21T270 -10ZM284 33Q324 33 350 58T388 122T400 205Q400 258
386 307T340 387T258 418Q217 418 191 393T153 329T140 246Q140 193 155 144T202 64T284 33ZM262 530L137 644Q117 662 111 677T104 707H186L273 530H262Z" />
<glyph unicode="&#xf3;" glyph-name="uni00F3" horiz-adv-x="540" d="M270 -10Q204 -10 155 21T78 105T50 225Q50 292 77 345T154 429T270 460Q336 460 385 429T462 345T490 225Q490 158 463 105T386 21T270 -10ZM284 33Q324 33 350 58T388 122T400 205Q400 258
386 307T340 387T258 418Q217 418 191 393T153 329T140 246Q140 193 155 144T202 64T284 33ZM267 530L354 707H436Q436 692 430 677T403 644L278 530H267Z" />
<glyph unicode="&#xf4;" glyph-name="uni00F4" horiz-adv-x="540" d="M270 -10Q204 -10 155 21T78 105T50 225Q50 292 77 345T154 429T270 460Q336 460 385 429T462 345T490 225Q490 158 463 105T386 21T270 -10ZM284 33Q324 33 350 58T388 122T400 205Q400 258
386 307T340 387T258 418Q217 418 191 393T153 329T140 246Q140 193 155 144T202 64T284 33ZM120 530L252 707H282L414 530H403L267 625L131 530H120Z" />
<glyph unicode="&#xf5;" glyph-name="uni00F5" horiz-adv-x="540" d="M270 -10Q204 -10 155 21T78 105T50 225Q50 292 77 345T154 429T270 460Q336 460 385 429T462 345T490 225Q490 158 463 105T386 21T270 -10ZM284 33Q324 33 350 58T388 122T400 205Q400 258
386 307T340 387T258 418Q217 418 191 393T153 329T140 246Q140 193 155 144T202 64T284 33ZM115 556Q133 610 147 636T176 671T210 680Q229 680 246 670T280 648T311 625T344 615Q363 615 376 628T406 680H419Q401 626 387 600T358 565T324 556Q305 556 288 566T254
588T223 611T190 621Q171 621 158 608T128 556H115Z" />
<glyph unicode="&#xf6;" glyph-name="uni00F6" horiz-adv-x="540" d="M270 -10Q204 -10 155 21T78 105T50 225Q50 292 77 345T154 429T270 460Q336 460 385 429T462 345T490 225Q490 158 463 105T386 21T270 -10ZM284 33Q324 33 350 58T388 122T400 205Q400 258
386 307T340 387T258 418Q217 418 191 393T153 329T140 246Q140 193 155 144T202 64T284 33ZM175 568Q154 568 140 582T126 617Q126 638 140 652T175 666Q196 666 210 652T224 617Q224 596 210 582T175 568ZM359 568Q338 568 324 582T310 617Q310 638 324 652T359
666Q380 666 394 652T408 617Q408 596 394 582T359 568Z" />
<glyph unicode="&#xf7;" glyph-name="uni00F7" horiz-adv-x="500" d="M218 418V482H282V418H218ZM40 247V297H460V247H40ZM218 62V126H282V62H218Z" />
<glyph unicode="&#xf8;" glyph-name="uni00F8" horiz-adv-x="540" d="M50 -10L107 62Q80 93 65 134T50 225Q50 292 77 345T154 429T270 460Q306 460 337 451T394 423L424 460H490L433 388Q460 357 475 316T490 225Q490 158 463 105T386 21T270 -10Q234 -10 203
-1T146 27L116 -10H50ZM140 246Q140 215 145 185T160 129L353 371Q336 393 313 405T258 418Q217 418 191 393T153 329T140 246ZM284 33Q324 33 350 58T388 122T400 205Q400 236 395 266T380 322L188 80Q205 58 229 46T284 33Z" />
<glyph unicode="&#xf9;" glyph-name="uni00F9" horiz-adv-x="561" d="M225 -10Q166 -10 129 19T91 107V403L28 434V450H171V154Q171 110 198 87T270 64Q297 64 329 73T381 99V403L310 434V450H461V45L532 16V0H381V63H376Q338 25 303 8T225 -10ZM265 530L140 644Q120
662 114 677T107 707H189L276 530H265Z" />
<glyph unicode="&#xfa;" glyph-name="uni00FA" horiz-adv-x="561" d="M225 -10Q166 -10 129 19T91 107V403L28 434V450H171V154Q171 110 198 87T270 64Q297 64 329 73T381 99V403L310 434V450H461V45L532 16V0H381V63H376Q338 25 303 8T225 -10ZM270 530L357 707H439Q439
692 433 677T406 644L281 530H270Z" />
<glyph unicode="&#xfb;" glyph-name="uni00FB" horiz-adv-x="561" d="M225 -10Q166 -10 129 19T91 107V403L28 434V450H171V154Q171 110 198 87T270 64Q297 64 329 73T381 99V403L310 434V450H461V45L532 16V0H381V63H376Q338 25 303 8T225 -10ZM123 530L255 707H285L417
530H406L270 625L134 530H123Z" />
<glyph unicode="&#xfc;" glyph-name="uni00FC" horiz-adv-x="561" d="M225 -10Q166 -10 129 19T91 107V403L28 434V450H171V154Q171 110 198 87T270 64Q297 64 329 73T381 99V403L310 434V450H461V45L532 16V0H381V63H376Q338 25 303 8T225 -10ZM178 568Q157 568
143 582T129 617Q129 638 143 652T178 666Q199 666 213 652T227 617Q227 596 213 582T178 568ZM362 568Q341 568 327 582T313 617Q313 638 327 652T362 666Q383 666 397 652T411 617Q411 596 397 582T362 568Z" />
<glyph unicode="&#xfd;" glyph-name="uni00FD" horiz-adv-x="480" d="M83 -241Q60 -241 55 -235T49 -212V-162L53 -158H99Q124 -158 137 -154T161 -131T192 -70L227 8L44 403L-23 434V450H216V434L134 403V398L267 108H270L382 392V398L307 434V450H503V434L428
400L231 -79Q222 -102 216 -117T201 -147T178 -183Q158 -212 133 -226T83 -241ZM264 530L351 707H433Q433 692 427 677T400 644L275 530H264Z" />
<glyph unicode="&#xfe;" glyph-name="uni00FE" horiz-adv-x="567" d="M48 -230V-214L111 -182V636L51 688V695L175 750H191V399H196Q234 431 269 445T345 460Q396 460 435 434T496 361T519 247Q519 165 489 108T406 20T292 -10Q236 -10 191 0V-182L262 -214V-230H48ZM290
391Q266 391 241 384T191 361V80Q221 56 252 47T321 38Q369 38 404 78T439 214Q439 276 419 315T365 372T290 391Z" />
<glyph unicode="&#xff;" glyph-name="uni00FF" horiz-adv-x="480" d="M83 -241Q60 -241 55 -235T49 -212V-162L53 -158H99Q124 -158 137 -154T161 -131T192 -70L227 8L44 403L-23 434V450H216V434L134 403V398L267 108H270L382 392V398L307 434V450H503V434L428
400L231 -79Q222 -102 216 -117T201 -147T178 -183Q158 -212 133 -226T83 -241ZM172 568Q151 568 137 582T123 617Q123 638 137 652T172 666Q193 666 207 652T221 617Q221 596 207 582T172 568ZM356 568Q335 568 321 582T307 617Q307 638 321 652T356 666Q377 666
391 652T405 617Q405 596 391 582T356 568Z" />
<glyph unicode="&#x2013;" glyph-name="uni2013" horiz-adv-x="500" d="M50 247V297H450V247H50Z" />
<glyph unicode="&#x2014;" glyph-name="uni2014" horiz-adv-x="1000" d="M50 247V297H950V247H50Z" />
<glyph unicode="&#x2018;" glyph-name="uni2018" horiz-adv-x="250" d="M154 482Q149 482 142 483T126 489Q89 511 71 538T52 604Q52 632 68 662T117 716T198 750V729Q165 722 138 701T110 649Q110 632 119 616T161 582L198 563V551L179 504Q171 482 154 482Z" />
<glyph unicode="&#x2019;" glyph-name="uni2019" horiz-adv-x="250" d="M52 482V503Q85 510 112 531T140 583Q140 600 131 616T89 650L52 669V681L71 728Q79 750 96 750Q101 750 108 749T124 743Q161 721 179 694T198 628Q198 604 183 574T135 518T52 482Z" />
<glyph unicode="&#x201a;" glyph-name="uni201A" horiz-adv-x="250" d="M52 -193V-172Q85 -165 112 -144T140 -92Q140 -75 131 -59T89 -25L52 -6V6L71 53Q79 75 96 75Q101 75 108 74T124 68Q161 46 179 19T198 -47Q198 -71 183 -101T135 -157T52 -193Z" />
<glyph unicode="&#x201c;" glyph-name="uni201C" horiz-adv-x="450" d="M154 482Q149 482 142 483T126 489Q89 511 71 538T52 604Q52 632 68 662T117 716T198 750V729Q165 722 138 701T110 649Q110 632 119 616T161 582L198 563V551L179 504Q171 482 154 482ZM354
482Q349 482 342 483T326 489Q289 511 271 538T252 604Q252 632 268 662T317 716T398 750V729Q365 722 338 701T310 649Q310 632 319 616T361 582L398 563V551L379 504Q371 482 354 482Z" />
<glyph unicode="&#x201d;" glyph-name="uni201D" horiz-adv-x="450" d="M52 482V503Q85 510 112 531T140 583Q140 600 131 616T89 650L52 669V681L71 728Q79 750 96 750Q101 750 108 749T124 743Q161 721 179 694T198 628Q198 604 183 574T135 518T52 482ZM252
482V503Q285 510 312 531T340 583Q340 600 331 616T289 650L252 669V681L271 728Q279 750 296 750Q301 750 308 749T324 743Q361 721 379 694T398 628Q398 604 383 574T335 518T252 482Z" />
<glyph unicode="&#x201e;" glyph-name="uni201E" horiz-adv-x="450" d="M52 -193V-172Q85 -165 112 -144T140 -92Q140 -75 131 -59T89 -25L52 -6V6L71 53Q79 75 96 75Q101 75 108 74T124 68Q161 46 179 19T198 -47Q198 -71 183 -101T135 -157T52 -193ZM252 -193V-172Q285
-165 312 -144T340 -92Q340 -75 331 -59T289 -25L252 -6V6L271 53Q279 75 296 75Q301 75 308 74T324 68Q361 46 379 19T398 -47Q398 -71 383 -101T335 -157T252 -193Z" />
<glyph unicode="&#x2022;" glyph-name="uni2022" horiz-adv-x="500" d="M250 150Q197 150 163 185T128 272Q128 324 162 358T250 393Q301 393 336 359T371 272Q371 220 336 185T250 150Z" />
<glyph unicode="&#x2039;" glyph-name="uni2039" horiz-adv-x="250" d="M219 70L20 247L219 424H230L118 247L230 70H219Z" />
<glyph unicode="&#x203a;" glyph-name="uni203A" horiz-adv-x="250" d="M20 70L132 247L20 424H31L230 247L31 70H20Z" />
</font>
</defs>
</svg>
