<?xml version="1.0" standalone="no"?>
<!DOCTYPE svg PUBLIC "-//W3C//DTD SVG 1.1//EN" "http://www.w3.org/Graphics/SVG/1.1/DTD/svg11.dtd">
<svg xmlns="http://www.w3.org/2000/svg">
<defs >
<font id="Lora" horiz-adv-x="582" ><font-face
    font-family="Lora"
    units-per-em="1000"
    panose-1="0 0 0 0 0 0 0 0 0 0"
    ascent="1033"
    descent="-274"
    alphabetic="0" />
<glyph unicode=" " glyph-name="space" horiz-adv-x="263" />
<glyph unicode="!" glyph-name="exclam" horiz-adv-x="255" d="M149 716Q176 716 191 702T212 668T215 625L157 213H90L74 625Q73 657 92 686T149 716ZM119 140Q151 140 169 117T187 62Q185 30 162 7T110 -16Q81 -16 62 7T43 62Q45 94 68 117T119 140Z" />
<glyph unicode="&quot;" glyph-name="quotedbl" horiz-adv-x="324" d="M307 716L287 491H208L212 716H307ZM164 716L144 491H65L69 716H164Z" />
<glyph unicode="#" glyph-name="numbersign" horiz-adv-x="842" d="M715 716L663 527H830V526L805 441H639L582 241H749L723 155H559L511 -16H407L456 155H286L238 -16H134L184 155H18L43 241H207L267 441H99L125 527H291L345 716H443L390 527H563L618 716H715ZM540
441H367L309 241H479L540 441Z" />
<glyph unicode="$" glyph-name="dollar" horiz-adv-x="570" d="M230 -154L236 -13Q205 -8 173 3T112 33L113 -9H36L48 225H113Q122 141 166 99T280 57Q333 57 363 85T396 156Q398 190 379 212T327 250T256 281Q214 299 177 321T110 372T66 438T53 525Q55 555 65
587T99 647T163 694T263 716L270 837H363L355 706Q377 700 397 691T435 668L434 709H511L499 476H433Q427 532 410 570T361 629T283 648Q255 648 234 636T199 603T185 558Q183 527 196 505T241 463T329 416Q365 399 402 379T469 333T516 271T531 186Q528 134 504
92T435 23T329 -13L321 -154H230Z" />
<glyph unicode="%" glyph-name="percent" horiz-adv-x="885" d="M167 -17L105 44L710 716L780 650L167 -17ZM223 325Q162 325 122 352T62 424T44 517Q47 564 71 609T138 684T241 716Q302 717 342 689T401 616T418 526Q416 473 389 427T319 353T223 325ZM227 393Q248
393 261 407T283 442T294 485T298 525Q298 547 295 569T285 609T267 637T237 648Q214 648 200 634T178 597T167 554T164 518Q164 499 167 478T177 437T196 405T227 393ZM651 -16Q590 -16 550 11T490 83T474 176Q477 223 500 268T567 344T669 375Q731 377 771 349T831
276T848 185Q845 133 819 87T750 13T651 -16ZM656 52Q684 52 699 75T721 130T728 185Q728 207 725 228T715 268T696 296T667 307Q643 307 629 293T607 256T596 213T593 177Q593 158 596 137T606 96T625 64T656 52Z" />
<glyph unicode="&amp;" glyph-name="ampersand" horiz-adv-x="685" d="M287 -16Q213 -16 153 5T58 71T22 185Q22 234 46 274T111 344T207 386Q146 398 110 433T74 518Q74 582 106 626T193 694T311 716Q372 716 416 699T485 654T509 589Q509 561 491 540T443 519Q415
519 399 535T380 579Q380 587 383 602T393 624Q381 636 364 642T322 648Q297 648 275 634T237 593T220 530Q219 511 224 491T243 453T280 424T340 413Q348 413 354 413T374 414L370 344L335 345Q300 346 272 336T222 307T189 262T175 204Q172 155 190 122T242 71T315
53Q380 53 420 78T481 144T508 230Q495 230 477 226T436 213T390 185L356 221Q385 264 409 285T463 315T536 323Q568 323 599 330T664 371L702 338Q685 308 668 287T628 252T569 234Q565 194 549 150T501 69T416 8T287 -16Z" />
<glyph unicode="&apos;" glyph-name="quotesingle" horiz-adv-x="188" d="M171 716L150 491H66L69 716H171Z" />
<glyph unicode="(" glyph-name="parenleft" horiz-adv-x="296" d="M219 -271Q184 -237 147 -185T80 -65T33 79T20 239Q24 322 49 401T112 549T191 672T273 760L307 725Q274 684 249 631T207 521T178 410T160 311T152 239Q150 212 151 169T159 73T177 -35T209 -143T257
-236L219 -271Z" />
<glyph unicode=")" glyph-name="parenright" horiz-adv-x="296" d="M70 760Q105 726 142 674T209 554T256 410T269 250Q265 167 240 88T177 -60T98 -183T16 -271L-18 -236Q15 -195 40 -142T82 -32T111 79T129 178T137 250Q139 277 138 320T130 416T112 524T80
632T32 725L70 760Z" />
<glyph unicode="*" glyph-name="asterisk" horiz-adv-x="512" d="M282 716Q304 716 314 706T326 679T328 645Q327 624 320 593T295 518Q334 545 362 559T410 581Q427 587 444 588T474 583T494 556Q502 525 483 510T438 486Q417 480 386 476T308 471Q344 444 365
423T398 385Q408 371 414 355T417 324T396 296Q369 277 349 290T315 323Q304 341 292 370T268 443Q251 399 237 371T208 326Q192 305 171 291T123 296Q107 309 105 324T110 354T127 383Q141 400 165 422T229 471Q183 471 152 475T101 486Q85 492 71 501T51 524T52
559Q64 589 88 589T138 581Q158 574 184 560T247 518Q234 562 231 593T228 645Q229 662 233 678T248 705T282 716Z" />
<glyph unicode="+" glyph-name="plus" horiz-adv-x="530" d="M50 399H496L492 321H46L50 399ZM322 583L298 137H220L244 583H322Z" />
<glyph unicode="," glyph-name="comma" horiz-adv-x="249" d="M103 137Q150 138 170 108T189 32Q188 0 176 -36T142 -110T86 -187L49 -159Q60 -145 75 -119T102 -62T114 -1Q107 -3 103 -3T93 -4Q66 -4 46 12T27 62Q29 92 50 114T103 137Z" />
<glyph unicode="-" glyph-name="hyphen" horiz-adv-x="473" d="M424 366L418 265L50 261L56 366H424Z" />
<glyph unicode="." glyph-name="period" horiz-adv-x="233" d="M105 140Q136 140 155 117T173 62Q172 30 151 7T98 -16Q65 -16 46 7T28 62Q30 94 53 117T105 140Z" />
<glyph unicode="/" glyph-name="slash" horiz-adv-x="665" d="M592 755L677 697L51 -271L-20 -220L592 755Z" />
<glyph unicode="0" glyph-name="zero" horiz-adv-x="625" d="M339 716Q412 716 461 683T540 597T581 479T590 352Q587 290 567 225T510 106T420 18T296 -16Q220 -16 169 16T89 102T49 220T41 347Q44 410 65 475T123 594T215 682T339 716ZM333 648Q297 648 272
626T229 564T203 475T191 368Q189 326 189 282T195 197T214 123T249 71T306 52Q342 52 366 74T406 136T429 226T440 331Q443 392 442 448T429 550T395 621T333 648Z" />
<glyph unicode="1" glyph-name="one" horiz-adv-x="397" d="M313 716L284 164Q283 137 280 112T275 74Q291 76 315 76T350 77L346 0H62L65 66Q88 67 104 72T129 95T141 153L162 554L49 489L17 549L252 716H313Z" />
<glyph unicode="2" glyph-name="two" horiz-adv-x="522" d="M275 716Q315 716 354 706T425 674T475 616T490 527Q489 502 478 475T442 415T371 340T254 242Q197 197 169 160T135 103L331 98Q353 97 370 101T398 120T410 163H473L457 0H19Q22 52 37 93T76 167T130
228T189 283Q266 351 300 406T338 515Q340 547 333 577T305 626T246 645Q219 645 197 633T164 603Q174 592 178 576T181 549Q180 530 163 508T108 487Q77 488 63 509T49 560Q50 583 65 609T110 660T180 700T275 716Z" />
<glyph unicode="3" glyph-name="three" horiz-adv-x="546" d="M229 -16Q154 -16 108 6T40 63T21 131Q22 161 41 183T92 207Q117 208 130 197T149 171T154 143Q153 133 149 121T136 97Q145 78 170 68T224 57Q286 57 320 95T357 189Q359 215 353 241T332 288T288
323T217 335Q210 335 192 334T165 332L168 404Q176 403 183 403T198 403Q242 403 274 419T324 463T344 528Q347 563 339 589T312 631T257 646Q239 646 223 640T195 625T176 604Q185 593 187 579T189 555Q189 543 182 528T159 501T119 491Q88 492 73 513T59 563Q61
593 86 629T159 690T277 716Q339 716 388 699T464 643T488 539Q487 513 471 481T422 421T332 382Q427 364 468 312T506 196Q503 128 467 81T369 9T229 -16Z" />
<glyph unicode="4" glyph-name="four" horiz-adv-x="533" d="M180 0L183 66Q206 67 222 72T247 95T259 153L260 181H0L5 275L368 716H429L405 271H503L498 181H400L398 131Q397 112 396 100T391 74L466 77L462 0H180ZM265 273L278 494H277L97 274L265 273Z" />
<glyph unicode="5" glyph-name="five" horiz-adv-x="529" d="M484 765L468 603L164 597L145 419Q168 429 203 436T268 443Q330 443 374 425T447 376T488 304T499 218Q495 141 455 89T354 10T229 -16Q164 -16 119 5T51 57T29 121Q31 150 50 173T100 197Q125 198
139 188T158 162T163 133Q162 125 159 114T149 92Q153 81 166 73T195 60T225 55Q265 55 291 76T330 130T345 197Q347 220 345 249T333 306T298 352T232 370Q211 370 179 362T110 333L69 366L93 700H342Q376 700 397 711T421 765H484Z" />
<glyph unicode="6" glyph-name="six" horiz-adv-x="560" d="M333 716Q396 716 435 695T493 644T509 582Q508 555 491 533T442 511Q405 511 392 532T379 574Q380 582 383 595T396 618Q389 630 372 639T329 646Q300 644 278 628T240 585T214 525T197 457T188 390Q199
403 220 415T268 436T319 446Q374 448 413 432T476 384T510 309T517 215Q514 152 480 100T390 16T262 -16Q173 -16 123 25T54 143T42 322Q44 357 53 407T81 510T134 611T216 687T333 716ZM286 366Q265 366 245 357T209 333T183 300Q181 265 183 223T195 143T223
79T271 54Q306 54 326 73T355 124T367 190Q368 213 367 242T359 300T334 347T286 366Z" />
<glyph unicode="7" glyph-name="seven" horiz-adv-x="460" d="M183 -16Q152 -16 140 1T127 39Q127 53 132 71T153 127T201 232Q220 272 245 324T304 445T378 599L167 601Q133 602 112 587T88 530H25L42 700H467L462 609Q425 540 397 475T347 345T303 210T258 60Q250
32 233 8T183 -16Z" />
<glyph unicode="8" glyph-name="eight" horiz-adv-x="562" d="M261 -16Q226 -16 187 -7T115 22T61 75T44 158Q46 196 67 231T120 296T186 345Q122 387 97 436T74 525Q77 574 99 610T156 669T231 704T311 716Q363 716 409 697T483 639T509 546Q507 512 487 481T439
424T381 382Q419 345 446 322T490 278T514 234T519 172Q516 107 479 66T384 4T261 -16ZM266 54Q314 53 343 81T374 151Q375 170 370 190T350 230T312 270T252 309Q211 278 190 238T167 168Q162 121 190 88T266 54ZM318 422Q351 445 374 479T400 542Q405 592 379
619T315 646Q286 646 264 634T230 600T215 553Q214 527 227 501T265 455T318 422Z" />
<glyph unicode="9" glyph-name="nine" horiz-adv-x="561" d="M301 716Q368 716 413 691T483 621T519 513T525 378Q523 333 514 280T487 175T435 80T353 10T233 -16Q168 -16 129 3T73 52T58 115Q60 142 78 165T127 189Q165 189 177 168T188 126Q187 118 183 105T171
83Q179 71 196 63T238 55Q267 57 290 71T329 111T357 168T374 236T380 311Q363 292 326 274T251 254Q196 253 157 269T93 318T58 393T50 487Q54 554 86 605T174 686T301 716ZM296 646Q266 646 246 627T214 576T201 510Q200 488 201 458T209 400T234 353T283 334Q304
334 323 343T359 367T384 400Q387 448 385 492T373 571T345 626T296 646Z" />
<glyph unicode=":" glyph-name="colon" horiz-adv-x="250" d="M132 140Q163 140 182 117T200 62Q199 30 178 7T125 -16Q92 -16 73 7T55 62Q57 94 80 117T132 140ZM132 543Q163 543 182 520T200 465Q199 433 178 410T125 387Q92 387 73 410T55 465Q57 497 80 520T132 543Z" />
<glyph unicode=";" glyph-name="semicolon" horiz-adv-x="270" d="M123 137Q170 138 190 108T209 32Q208 0 196 -36T162 -110T106 -187L69 -159Q80 -145 95 -119T122 -62T134 -1Q127 -3 123 -3T113 -4Q86 -4 66 12T47 62Q49 92 70 114T123 137ZM138 543Q169 543
188 520T206 465Q205 433 184 410T131 387Q98 387 79 410T61 465Q63 497 86 520T138 543Z" />
<glyph unicode="&lt;" glyph-name="less" horiz-adv-x="530" d="M480 72L41 268L45 357L506 557L500 457L172 315L486 173L480 72Z" />
<glyph unicode="=" glyph-name="equal" horiz-adv-x="530" d="M55 493H501L497 415H51L55 493ZM45 315H491L487 237H41L45 315Z" />
<glyph unicode="&gt;" glyph-name="greater" horiz-adv-x="530" d="M57 557L496 361L492 272L31 72L37 172L365 314L51 456L57 557Z" />
<glyph unicode="?" glyph-name="question" horiz-adv-x="485" d="M225 181Q204 181 184 188T153 210T142 250Q143 267 150 282T176 318T230 373Q255 396 274 419T306 471T321 537Q323 568 316 592T291 631T239 646Q223 646 208 641T180 629T161 614Q171 604 175
588T177 560Q176 547 168 532T144 506T104 497Q73 499 59 518T45 568Q47 604 76 638T153 694T262 716Q341 716 386 693T450 634T466 557Q464 515 441 481T386 417T321 365T266 320T243 280Q242 267 251 259T282 250Q288 250 295 251T312 254L325 203Q300 190 272
186T225 181ZM225 -16Q196 -16 176 7T157 62Q159 94 182 117T234 140Q265 140 284 117T302 62Q301 30 278 7T225 -16Z" />
<glyph unicode="@" glyph-name="at" horiz-adv-x="767" d="M422 637Q505 637 565 609T665 532T720 425T732 303Q728 242 706 197T652 124T585 82T518 71Q500 72 483 78T452 98T434 137T433 200Q402 133 366 105T298 76Q256 76 227 110T202 221Q204 270 221 317T268
402T343 462T443 485Q465 485 495 480T559 464Q553 430 545 389T530 307T517 231T511 178Q510 156 516 138T548 119Q578 119 599 139T633 189T654 253T663 312Q668 403 636 466T547 561T415 594Q351 594 297 567T201 493T136 387T108 262Q104 186 125 128T186 31T280
-29T396 -50Q437 -50 481 -39T567 -4T643 55L664 28Q605 -34 532 -65T380 -99Q289 -101 222 -73T111 5T47 119T31 256Q35 320 62 386T140 510T261 602T422 637ZM418 435Q392 433 371 412T334 359T309 290T298 218Q297 183 305 164T329 145Q348 145 368 173T406
245T438 339T455 432Q449 434 438 435T418 435Z" />
<glyph unicode="A" glyph-name="A" horiz-adv-x="667" d="M384 718L569 173Q574 158 582 128T592 74L649 77L646 0H378L382 66Q410 66 421 77T433 109T424 154L407 209L188 205L169 158Q164 145 154 120T133 77L207 80L202 0H-12L-8 69Q20 69 37 85T68 127T94
183L317 718H384ZM315 542Q311 525 299 491T268 410L217 280H385L346 405Q336 441 327 477T315 542Z" />
<glyph unicode="B" glyph-name="B" horiz-adv-x="659" d="M347 702Q466 703 533 658T590 520Q587 491 570 464T522 414T442 379V378Q540 362 583 312T624 199Q621 134 588 90T499 23T373 0H35L39 66Q61 67 77 72T102 95T114 153L134 536Q136 563 138 588T143 626Q127
625 103 625T68 623L72 700Q141 701 209 701T347 702ZM346 323Q321 323 303 323T265 322L257 159Q256 132 253 108T248 71Q266 71 282 71T314 71T346 72Q407 75 436 111T469 202Q472 248 455 274T408 312T346 323ZM340 632Q324 632 310 627T288 605T277 548L269
393Q282 393 295 393T321 394Q364 395 389 413T427 461T440 528Q443 568 428 590T390 623T340 632Z" />
<glyph unicode="C" glyph-name="C" horiz-adv-x="690" d="M408 716Q447 716 492 704T577 667H578L577 709H654L642 476H576Q567 559 527 603T417 648Q365 648 325 624T256 559T213 466T194 360Q190 274 211 207T278 100T391 60Q451 59 516 88T632 184L671 144Q619
77 564 43T456 -4T362 -16Q285 -16 224 11T119 87T55 200T38 340Q42 408 67 475T139 596T253 683T408 716Z" />
<glyph unicode="D" glyph-name="D" horiz-adv-x="755" d="M361 701Q460 701 530 672T644 592T707 481T723 357Q720 296 696 233T623 118T499 33T319 0H35L39 66Q61 67 77 72T102 95T114 153L134 536Q136 563 138 588T143 626Q127 625 103 625T68 623L72 700L361
701ZM355 634Q331 635 314 630T288 606T277 549L257 164Q256 137 254 112T249 74Q259 75 276 75T313 74T344 73Q417 73 465 111T538 209T566 336Q574 489 517 560T355 634Z" />
<glyph unicode="E" glyph-name="E" horiz-adv-x="623" d="M570 700L565 506H500Q503 561 485 589T440 626T385 635L349 634Q328 634 313 629T288 605T277 547L270 397H387Q387 411 387 426T387 457T387 484H464L452 241H386Q388 283 376 301T341 325T292 329L266
328L257 164Q256 137 254 113T249 76H383Q413 76 441 89T489 134T512 220H578L561 0H35L39 66Q61 67 77 72T102 95T114 153L134 536Q136 563 138 588T143 626Q127 625 103 625T68 623L72 700H570Z" />
<glyph unicode="F" glyph-name="F" horiz-adv-x="566" d="M570 700L565 506H500Q503 561 485 589T440 626T385 635L349 634Q328 634 313 629T288 605T277 547L268 373H372Q372 387 372 402T372 432T372 459H449L436 216H370Q373 258 361 277T326 300T277 304Q274
304 271 304T265 304L257 164Q256 137 254 112T249 74Q260 75 278 75T313 76T337 77L333 0H35L39 66Q61 67 77 72T102 95T114 153L134 536Q136 563 138 588T143 626Q127 625 103 625T68 623L72 700H570Z" />
<glyph unicode="G" glyph-name="G" horiz-adv-x="756" d="M361 -16Q253 -16 179 31T70 160T39 340Q42 408 67 475T138 596T252 683T406 716Q432 716 466 711T534 694T593 667V709H670L658 476H592Q586 532 562 569T501 625T416 644Q364 644 324 620T256 556T213
465T194 360Q190 274 210 207T276 102T390 63Q409 63 436 66T489 75T535 90L540 183Q542 210 544 235T548 273Q532 272 508 272T473 270L477 347H740L737 281Q720 280 708 277T686 266T673 240T666 194L658 34H633Q607 34 581 28T525 12Q491 2 451 -7T361 -16Z"
/>
<glyph unicode="H" glyph-name="H" horiz-adv-x="802" d="M774 700L771 634Q749 633 733 628T707 606T695 547L675 164Q674 137 671 112T666 74Q683 76 707 76T741 77L737 0H453L456 66Q479 67 495 72T520 95T532 153L541 315L265 312L257 164Q256 137 254 112T249
74Q265 76 289 76T324 77L320 0H35L39 66Q61 67 77 72T102 95T114 153L134 536Q136 563 138 588T143 626Q127 625 103 625T68 623L72 700H356L353 634Q331 633 315 628T289 606T277 547L269 391H544L552 536Q554 563 556 588T561 626Q545 625 521 625T485 623L489
700H774Z" />
<glyph unicode="I" glyph-name="I" horiz-adv-x="384" d="M356 700L353 634Q331 633 315 628T289 606T277 547L257 164Q256 137 254 112T249 74Q265 76 289 76T324 77L320 0H35L39 66Q61 67 77 72T102 95T114 153L134 536Q136 563 138 588T143 626Q127 625 103
625T68 623L72 700H356Z" />
<glyph unicode="J" glyph-name="J" horiz-adv-x="445" d="M440 700L437 634Q415 633 399 628T373 606T361 547L346 254Q341 158 314 99T240 12T125 -16Q86 -16 55 -2T5 36T-11 91Q-9 123 9 148T62 174Q100 176 115 156T130 109Q130 101 128 91T120 72Q124 62 134
59T149 56Q164 56 174 64T190 89T197 135L218 536Q220 563 222 588T227 626Q217 626 201 626T169 625T147 623L151 700H440Z" />
<glyph unicode="K" glyph-name="K" horiz-adv-x="711" d="M35 0L39 66Q61 67 77 72T102 95T114 153L134 536Q136 563 138 588T143 626Q127 625 103 625T68 623L72 700H356L353 634Q331 633 315 628T289 606T277 547L269 395H342L425 526Q445 556 465 586T499 627Q483
626 465 625T436 623L439 700H684L681 634Q659 633 633 626T579 598T521 532L417 378Q436 365 451 351T476 319L570 174Q589 146 609 122T652 82T696 66L692 0H540Q532 1 515 18T479 59T447 102L356 246Q343 265 329 285T301 315Q300 315 287 315T265 315L257 164Q256
137 254 112T249 74Q265 76 289 76T324 77L320 0H35Z" />
<glyph unicode="L" glyph-name="L" horiz-adv-x="606" d="M356 700L353 634Q331 633 315 628T289 606T277 547L257 164Q256 137 254 113T249 76H383Q442 77 478 117T518 240H584L566 0H35L39 66Q61 67 77 72T102 95T114 153L134 536Q136 563 138 588T143 626Q127
625 103 625T68 623L72 700H356Z" />
<glyph unicode="M" glyph-name="M" horiz-adv-x="970" d="M397 -10L275 319Q268 338 257 373T235 452T216 535H215Q214 484 213 437T208 345L197 164Q196 137 193 112T188 74Q205 76 229 76T264 77L260 0H32L36 66Q59 67 74 72T99 95T111 153L137 536Q139 563
141 588T146 626Q130 625 106 625T70 623L75 700H289L426 312Q443 266 453 226T474 150H475Q489 185 503 220T530 287Q559 356 588 425T645 562T703 700H936L932 634Q910 633 893 628T867 606T856 547L851 164Q851 137 848 112T842 74Q859 76 883 76T918 77L914
0H634L638 66Q661 67 677 72T703 95T713 153L716 365Q717 377 717 407T717 474T717 542H716L669 428L487 -10H397Z" />
<glyph unicode="N" glyph-name="N" horiz-adv-x="772" d="M566 -10L268 401Q256 418 243 437T217 476H216L202 164Q201 137 198 112T193 74Q210 76 234 76T269 77L264 0H36L40 66Q63 67 79 72T104 95T116 153L133 536Q135 563 137 588T142 626Q126 625 102 625T66
623L71 700H228L513 313Q536 281 551 258T578 217H579L595 536Q597 563 599 588T604 626Q588 625 564 625T528 623L533 700H760L757 634Q734 633 718 628T693 606T681 547L651 -10H566Z" />
<glyph unicode="O" glyph-name="O" horiz-adv-x="762" d="M406 716Q497 716 560 683T662 596T717 477T730 350Q727 288 703 224T633 106T521 18T365 -16Q270 -16 206 16T104 101T51 220T40 350Q43 413 67 477T137 596T250 683T406 716ZM389 648Q338 647 302 620T242
550T208 458T194 362Q191 315 198 262T227 160T285 82T379 52Q431 52 467 78T527 147T562 238T576 333Q579 402 570 460T538 560T478 626T389 648Z" />
<glyph unicode="P" glyph-name="P" horiz-adv-x="632" d="M354 702Q442 703 505 679T601 605T627 475Q624 435 605 397T549 327T459 275T334 253Q312 252 296 252T262 253L257 165Q256 137 254 112T249 74Q260 75 277 75T310 76T333 77L330 0H35L39 66Q61 67 77
72T102 95T114 153L134 536Q136 563 138 588T143 626Q127 625 103 625T68 623L72 700Q143 701 213 701T354 702ZM349 632Q328 632 313 627T288 605T277 553L266 328Q277 327 288 326T311 325Q366 325 401 343T455 397T476 484Q478 534 466 564T434 608T391 627T349
632Z" />
<glyph unicode="Q" glyph-name="Q" horiz-adv-x="764" d="M407 716Q498 716 561 683T664 596T719 477T732 350Q729 300 713 249T667 150T593 65T491 6V5Q520 5 542 1T585 -14T630 -51Q663 -83 683 -103T715 -133T739 -147T767 -151L763 -218H722Q676 -218 649
-215T600 -200T552 -164Q522 -136 499 -110T454 -62T410 -29T355 -16Q263 -16 201 16T102 102T51 221T39 350Q42 413 67 477T137 596T250 683T407 716ZM390 643Q338 642 302 616T243 548T209 457T194 362Q192 315 199 262T227 162T285 86T379 57Q431 57 467 82T527
149T562 238T576 333Q580 402 571 459T539 557T479 621T390 643Z" />
<glyph unicode="R" glyph-name="R" horiz-adv-x="681" d="M354 702Q442 703 505 682T600 614T625 487Q622 445 601 407T539 340T440 294Q449 290 458 284T475 268T492 250T506 230L549 160Q570 126 585 106T617 77T656 66L652 0H490Q473 13 456 37T421 94L354
214Q343 234 334 248T315 272Q305 272 297 272T281 272T263 272L257 165Q256 137 254 112T249 74Q260 75 277 75T310 76T333 77L330 0H35L39 66Q61 67 77 72T102 95T114 153L134 536Q136 563 138 588T143 626Q127 625 103 625T68 623L72 700Q143 701 213 701T354
702ZM349 632Q328 632 313 627T288 605T277 553L267 348Q278 347 290 346T315 344Q371 344 406 360T458 410T478 495Q481 543 467 570T432 611T387 628T349 632Z" />
<glyph unicode="S" glyph-name="S" horiz-adv-x="600" d="M291 -16Q252 -16 206 -4T121 33V-9H44L56 225H122Q128 169 152 132T214 75T298 56Q334 56 361 69T405 103T423 150Q425 185 402 208T343 248T270 280Q207 306 157 338T80 415T56 525Q58 556 71 589T113
651T188 698T300 716Q340 716 387 704T465 668V709H542L530 476H464Q458 532 437 569T382 626T300 644Q257 644 224 620T188 558Q187 527 203 504T253 460T342 417Q379 402 418 382T489 335T541 272T559 186Q556 127 522 81T428 10T291 -16Z" />
<glyph unicode="T" glyph-name="T" horiz-adv-x="648" d="M650 700L644 474H578Q581 528 568 563T528 616T463 633H415L391 164Q390 137 387 112T382 74Q393 75 409 75T440 76T462 77L458 0H168L172 66Q195 67 211 72T236 95T248 153L273 632H227Q170 631 135
593T95 474H29L46 700H650Z" />
<glyph unicode="U" glyph-name="U" horiz-adv-x="755" d="M756 700L752 634Q730 633 714 628T689 606T677 547L664 297Q659 211 635 151T571 54T479 1T367 -16Q283 -16 229 8T144 75T104 174T97 294L110 536Q112 563 114 588T119 626Q103 625 79 625T43 623L47
700H333L329 634Q307 633 291 628T265 606T253 547L239 272Q236 209 247 169T279 105T329 71T387 60Q442 58 482 81T546 152T573 274L587 536Q589 563 591 588T596 626Q580 625 556 625T521 623L524 700H756Z" />
<glyph unicode="V" glyph-name="V" horiz-adv-x="702" d="M726 700L722 634Q688 633 662 609T611 527Q592 483 573 439T535 350T497 261T459 172T421 83T383 -6H305L102 531Q93 556 86 583T79 626Q63 625 50 625T25 623L29 700H320L317 634Q280 635 260 618T255
557L335 331Q350 289 360 257T384 187H385Q398 216 412 254T441 326Q456 361 470 396T499 465T528 535Q545 576 555 596T574 627Q558 626 533 625T497 623L500 700H726Z" />
<glyph unicode="W" glyph-name="W" horiz-adv-x="1010" d="M256 -6L105 533Q96 558 89 584T82 626Q66 625 53 625T29 623L33 700H325L321 634Q284 635 266 620T258 559L307 331Q314 297 320 267T333 189H334Q338 203 347 232T368 294T388 355T401 394L510 700H600L694
332Q703 298 709 262T722 188H723Q734 220 745 254T769 326Q777 352 785 378T802 430T818 483T835 535Q843 559 854 584T881 627Q865 626 840 625T804 623L808 700H1033L1030 634Q1013 633 998 627T968 609T942 577T918 527L727 -6H640L540 352Q529 391 523 428T511
500H510Q503 466 495 435T474 369L340 -6H256Z" />
<glyph unicode="X" glyph-name="X" horiz-adv-x="700" d="M21 0L25 66Q54 73 84 98T154 173L279 328Q242 379 204 430T128 532Q112 553 98 577T73 626Q57 625 51 625T33 623L37 700H339L335 634Q299 634 285 625T272 601T289 566L371 453L453 558Q476 587 489
600T515 627Q499 626 475 625T440 623L444 700H672L668 634Q645 631 622 618T575 582T521 521L418 390L594 150Q610 129 623 110T644 74Q661 76 666 76T683 77L679 0H382L386 66Q423 66 435 75T442 99T422 134L327 263L233 142Q211 114 199 100T174 73Q191 75 213
76T246 77L242 0H21Z" />
<glyph unicode="Y" glyph-name="Y" horiz-adv-x="665" d="M190 0L194 66Q217 67 233 72T258 95T270 153L274 240L105 531Q92 554 82 582T72 626Q56 625 45 625T23 623L27 700H319L316 634Q287 636 268 628T244 603T253 557Q270 526 288 495T323 432Q327 424 336
407T354 370T368 335H370Q375 347 388 371T421 433Q435 459 450 484T479 535Q485 546 495 563T516 598T536 626Q520 625 495 625T459 623L463 700H684L681 634Q646 629 620 606T562 527L418 277L413 164Q412 137 409 112T404 74Q415 75 431 75T462 76T484 77L480
0H190Z" />
<glyph unicode="Z" glyph-name="Z" horiz-adv-x="603" d="M25 0L29 75L353 531Q376 564 392 586T428 630L256 635Q201 637 164 603T122 487H56L73 700H580L576 625L265 189Q243 158 220 128T173 71L355 66Q411 65 448 98T489 214H555L538 0H25Z" />
<glyph unicode="[" glyph-name="bracketleft" horiz-adv-x="388" d="M406 755L402 684L209 681L160 -181L359 -184L355 -255H32L86 755H406Z" />
<glyph unicode="\" glyph-name="backslash" horiz-adv-x="792" d="M669 -271L44 697L128 755L740 -220L669 -271Z" />
<glyph unicode="]" glyph-name="bracketright" horiz-adv-x="388" d="M-25 -255L-21 -184L172 -181L221 681L22 684L26 755H349L295 -255H-25Z" />
<glyph unicode="^" glyph-name="asciicircum" horiz-adv-x="823" d="M619 437L411 643L184 441H53L375 716H464L756 437H619Z" />
<glyph unicode="_" glyph-name="underscore" horiz-adv-x="835" d="M82 -50L696 -54V-151H82V-50Z" />
<glyph unicode="`" glyph-name="grave" horiz-adv-x="277" d="M184 565L70 672Q58 685 51 702T45 738T64 770Q81 783 98 783T130 773T154 746L232 606L184 565Z" />
<glyph unicode="a" glyph-name="a" horiz-adv-x="549" d="M327 511Q355 511 392 506T471 490Q466 453 458 399T443 289T430 185T425 111Q425 93 429 88T439 82Q451 82 464 99T490 161L544 145Q540 124 530 97T504 46T463 5T405 -11Q373 -11 349 8T325 80Q325 93
326 109T329 138H328Q310 95 290 66T248 20T204 -4T158 -11Q103 -11 64 33T25 171Q25 240 45 301T104 409T199 484T327 511ZM290 445Q262 445 239 427T198 374T171 287T162 166Q162 125 172 102T200 78Q222 78 241 100T275 161T302 247T321 344T331 439Q326 441
314 443T290 445Z" />
<glyph unicode="b" glyph-name="b" horiz-adv-x="513" d="M225 755Q221 726 217 686T210 609T204 551Q203 540 201 513T195 453T186 393H187Q204 426 223 448T262 484T300 504T335 511Q386 511 417 484T463 414T478 320Q478 253 463 193T416 87T333 15T207 -11Q191
-11 163 -9T104 0T47 16Q50 96 53 161T59 288T67 415T76 560Q77 577 79 603T84 652Q68 651 47 651T15 649L19 725Q65 725 96 730T145 742T171 755H225ZM295 419Q276 419 258 401T225 349T199 271T180 174T172 64Q180 60 195 58T221 55Q254 55 275 73T310 122T330
189T339 261T341 325Q341 379 327 399T295 419Z" />
<glyph unicode="c" glyph-name="c" horiz-adv-x="467" d="M273 511Q319 511 355 496T413 455T435 391Q435 361 418 342T371 322Q337 321 323 342T309 381Q309 390 311 401T319 423Q315 432 302 438T271 445Q239 445 219 424T187 369T170 300T164 233Q162 179 174
146T206 98T247 81Q266 80 290 86T339 115T384 185L441 157Q413 92 378 56T304 5T223 -11Q135 -10 81 43T27 207Q27 255 42 308T87 407T164 482T273 511Z" />
<glyph unicode="d" glyph-name="d" horiz-adv-x="564" d="M176 -11Q126 -11 93 14T44 83T28 180Q28 275 57 350T148 468T305 511Q312 511 329 511T353 509Q358 555 360 582T365 625T369 652Q353 651 332 651T299 649L303 725Q350 725 381 730T430 742T456 755H510Q501
675 492 595T473 435Q466 367 458 304T445 191T440 111Q440 93 445 88T455 82Q466 82 478 99T503 161L558 145Q554 124 544 97T518 46T479 5T422 -11Q390 -11 366 8T342 80Q342 100 343 111T346 140H345Q321 81 292 48T233 2T176 -11ZM213 80Q238 80 258 105T295
174T324 277Q331 313 336 353T345 437Q338 440 320 442T292 445Q258 445 235 426T198 375T177 308T167 239T164 181Q164 130 177 105T213 80Z" />
<glyph unicode="e" glyph-name="e" horiz-adv-x="470" d="M280 511Q324 511 358 498T411 457T430 385Q430 344 406 316T342 269T255 240T164 222Q164 165 177 135T212 93T254 81Q271 81 294 87T342 115T384 177L440 150Q412 85 377 50T304 2T227 -11Q135 -12 81
42T27 207Q27 255 42 308T87 407T166 482T280 511ZM269 445Q235 445 214 421T182 361T167 287Q221 297 253 314T299 353T313 399Q312 424 298 434T269 445Z" />
<glyph unicode="f" glyph-name="f" horiz-adv-x="353" d="M329 760Q374 760 398 739T423 686Q423 675 417 661T398 636T361 625Q339 626 324 643T312 687Q311 688 308 688T299 689Q282 689 271 671T254 624T244 562T237 500H366L359 431L233 429Q230 386 226 329T217
209T207 89T197 -11Q192 -57 181 -97T152 -169T110 -224T53 -259T-20 -271Q-66 -271 -90 -252T-115 -199Q-115 -187 -109 -172T-89 -146T-53 -136Q-30 -137 -15 -154T-4 -198Q2 -200 9 -200Q26 -200 37 -182T54 -135T64 -73T71 -11Q75 32 79 89T87 209T96 329T104
428L24 427L33 500H113Q122 577 146 635T216 727T329 760Z" />
<glyph unicode="g" glyph-name="g" horiz-adv-x="520" d="M182 -271Q145 -271 115 -265T64 -245T31 -213T19 -168Q19 -153 26 -136T47 -107T86 -95Q113 -95 131 -112T149 -158Q149 -174 143 -188Q148 -195 164 -200T191 -205Q231 -205 253 -183T285 -121T302 -33Q309
20 316 59T336 138H335Q316 94 296 65T255 20T211 -4T165 -11Q129 -11 98 8T47 68T27 171Q27 240 43 301T95 410T186 484T317 511Q345 511 387 506T470 490Q468 454 465 397T457 273T447 146T438 40Q430 -54 403 -124T322 -232T182 -271ZM206 78Q228 78 247 100T281
161T309 247T329 344T339 439Q333 441 320 443T293 445Q259 445 234 427T194 372T171 285T163 166Q163 139 168 119T184 89T206 78Z" />
<glyph unicode="h" glyph-name="h" horiz-adv-x="574" d="M417 -11Q362 -11 342 19T322 102Q322 132 326 169T334 246T343 319T347 377Q347 392 344 401T335 415T319 419Q301 419 282 397T244 338T211 255T188 162T179 72Q179 59 180 36T182 0H54Q52 21 52 29T51
48Q51 97 53 152T58 264T65 375T73 476T82 559Q84 576 87 604T95 652L25 649L29 725Q76 725 107 730T156 742T181 755H235Q232 726 227 686T218 609T210 551Q209 543 207 523T201 474T193 417T182 360H183Q206 420 235 453T295 498T354 511Q418 511 447 470T476
357Q476 321 470 277T458 189T451 108Q451 92 455 87T466 82Q477 82 489 99T514 161L568 145Q564 124 553 97T522 46T477 5T417 -11Z" />
<glyph unicode="i" glyph-name="i" horiz-adv-x="344" d="M156 511Q208 511 228 480T249 395Q249 371 244 330T233 244T222 162T217 108Q217 92 222 87T232 82Q244 82 256 99T281 161L335 145Q331 124 320 97T289 46T244 5T183 -11Q128 -11 108 19T87 102Q87 131
92 171T103 253T115 331T120 392Q120 409 115 413T104 418Q93 418 81 401T56 339L2 355Q6 376 18 403T49 454T95 495T156 511ZM191 763Q224 763 244 739T263 680Q262 646 240 623T185 599Q151 599 131 622T111 680Q113 715 137 739T191 763Z" />
<glyph unicode="j" glyph-name="j" horiz-adv-x="313" d="M157 511Q209 511 231 480T254 395Q255 344 252 274T243 134Q238 81 229 25T203 -84T158 -179T89 -246T-10 -271Q-56 -271 -82 -251T-108 -197Q-108 -185 -102 -170T-82 -144T-45 -134Q-23 -135 -7 -153T4
-203Q8 -205 19 -205Q36 -205 49 -185T73 -131T90 -58T103 21T111 93T115 145Q120 211 122 278T125 392Q125 409 120 413T110 418Q99 418 87 401T62 339L7 355Q12 376 23 403T52 454T97 495T157 511ZM196 763Q229 763 249 739T268 680Q267 646 245 623T189 599Q155
599 135 622T116 680Q118 715 142 739T196 763Z" />
<glyph unicode="k" glyph-name="k" horiz-adv-x="518" d="M370 -11Q326 -11 298 17T243 118Q233 145 225 166T206 194Q202 197 198 198T188 198Q182 170 179 132T176 67Q176 54 177 34T179 0H49Q47 21 47 30T46 49Q46 60 47 94T52 180T60 293T71 424T87 559Q89
579 93 604T102 652Q86 651 64 651T30 649L34 725Q81 725 112 730T161 742T187 755H241Q236 719 231 681T220 603T210 521Q206 480 201 449T190 391H191Q213 435 240 461T296 499T351 511Q388 511 412 498T447 462T459 405Q459 375 442 338T383 269T269 222V221Q311
220 329 200T356 158Q366 137 373 121T388 97T404 88Q415 88 425 103T447 157L501 140Q494 104 477 70T433 12T370 -11ZM195 262Q269 262 304 299T339 401Q339 414 337 424T328 439T313 445Q297 445 274 424T229 362T195 262Z" />
<glyph unicode="l" glyph-name="l" horiz-adv-x="303" d="M243 755Q240 724 237 695T230 638T224 585Q213 489 205 418T192 295T183 208T178 150T176 111Q176 93 180 88T190 82Q202 82 214 99T239 161L293 145Q287 120 276 93T246 42T202 4T139 -11Q103 -11 76
11T49 85Q49 121 51 164T58 255T67 353T79 456T91 559Q93 579 96 604T104 652Q88 651 67 651T34 649L38 725Q84 725 115 730T164 742T189 755H243Z" />
<glyph unicode="m" glyph-name="m" horiz-adv-x="878" d="M721 -11Q666 -11 647 19T627 102Q627 132 631 169T639 246T648 319T652 377Q652 392 650 401T641 415T624 419Q606 419 587 398T551 340T520 258T498 166T490 77Q490 64 491 42T493 0H364Q362 21 362
39T361 67Q361 110 364 154T372 241T380 319T384 377Q384 400 378 409T356 419Q338 419 319 397T281 338T249 255T226 162T217 72Q217 59 218 36T220 0H92Q90 21 90 29T89 48Q89 68 91 94T97 152T105 215Q108 244 111 271T118 322T123 364T125 392Q125 409 121
413T111 418Q100 418 88 401T63 339L8 355Q13 376 22 403T47 454T86 495T142 511Q164 511 183 503T214 476T226 420Q226 401 224 389T220 360H221Q245 420 274 453T335 498T395 511Q428 511 449 498T482 458T493 396Q493 388 493 379T491 360H492Q516 420 543 453T601
498T659 511Q702 511 728 492T767 439T780 357Q780 321 774 277T762 189T755 108Q755 92 760 87T770 82Q781 82 793 99T818 161L873 145Q869 124 857 97T827 46T782 5T721 -11Z" />
<glyph unicode="n" glyph-name="n" horiz-adv-x="610" d="M453 -11Q398 -11 379 19T359 102Q359 132 363 169T371 246T380 319T384 377Q384 392 381 401T372 415T356 419Q338 419 319 397T281 338T249 255T227 162T218 72Q218 59 219 36T221 0H92Q90 21 90 29T89
48Q89 69 91 97T98 159T106 226Q109 253 112 278T119 326T123 366T125 392Q125 409 121 413T111 418Q100 418 88 401T63 339L8 355Q13 376 22 403T47 454T86 495T142 511Q164 511 183 503T214 476T226 420Q226 401 224 389T220 360H221Q245 420 273 453T332 498T392
511Q435 511 461 492T499 439T512 357Q512 321 506 277T494 189T487 108Q487 92 492 87T502 82Q513 82 525 99T550 161L604 145Q600 124 589 97T558 46T513 5T453 -11Z" />
<glyph unicode="o" glyph-name="o" horiz-adv-x="515" d="M279 511Q335 511 380 485T453 409T480 288Q480 209 450 141T363 31T229 -11Q162 -11 117 19T50 102T28 216Q28 296 58 363T145 470T279 511ZM264 445Q234 446 212 419T177 345T164 244Q164 214 167 181T180
120T205 73T245 55Q271 55 289 75T318 126T335 193T342 259Q343 286 340 318T329 379T305 426T264 445Z" />
<glyph unicode="p" glyph-name="p" horiz-adv-x="575" d="M28 -255V-190Q53 -190 65 -179T83 -147T91 -100Q102 17 109 102T119 246T124 338T126 389Q126 407 122 412T111 418Q100 418 88 401T63 339L9 355Q13 376 22 403T47 454T86 495T143 511Q175 511 200 492T225
420Q225 401 224 389T221 360H222Q246 420 275 453T336 498T393 511Q441 511 474 487T524 420T541 320Q541 225 511 150T418 32T259 -11Q254 -11 245 -11T227 -10Q225 -58 223 -90T219 -144T215 -182Q231 -180 251 -180T281 -179V-255H28ZM271 55Q305 55 328 74T367
125T390 192T402 261T405 319Q405 356 399 378T382 410T356 420Q336 420 319 404T287 356T261 277T242 168Q239 143 236 117T231 61Q242 58 253 57T271 55Z" />
<glyph unicode="q" glyph-name="q" horiz-adv-x="522" d="M314 511Q335 511 363 509T420 503T475 494Q470 421 465 348T454 201T443 54T432 -93Q431 -107 429 -133T424 -182Q441 -180 461 -180T492 -179V-255H239V-190Q272 -190 284 -173T301 -117T310 -10Q312
16 315 48T323 106H322Q296 56 270 31T218 -2T169 -11Q122 -11 90 16T43 86T27 179Q27 269 57 344T150 465T314 511ZM300 445Q259 445 233 422T191 362T170 278T164 185Q164 124 181 102T215 80Q234 80 251 101T285 158T313 240T333 338T342 439Q336 442 322 443T300
445Z" />
<glyph unicode="r" glyph-name="r" horiz-adv-x="459" d="M92 0Q90 21 90 29T89 48Q89 69 91 98T98 162T106 229Q111 265 115 297T122 355T125 392Q125 409 121 413T111 418Q100 418 88 401T63 339L8 355Q13 376 22 403T47 454T86 495T142 511Q174 511 200 492T226
420Q226 404 224 382T216 331H217Q244 407 272 445T329 497T381 511Q419 511 442 491T465 435Q465 409 447 388T398 367Q376 367 359 381T343 419Q326 421 309 400T276 341T248 257T228 163T220 72Q220 59 221 36T223 0H92Z" />
<glyph unicode="s" glyph-name="s" horiz-adv-x="446" d="M200 -11Q152 -11 112 3T46 43T21 105Q21 136 39 155T85 175Q112 175 129 157T146 113Q146 106 145 99T140 83Q145 73 166 64T203 55Q247 55 264 74T282 117Q282 136 268 150T230 179T181 208Q134 235
103 258T58 306T43 367Q43 402 65 435T129 489T233 511Q273 511 311 498T375 461T401 401Q401 375 384 355T338 335Q311 335 295 353T278 396Q278 404 279 411T284 425Q276 436 260 440T229 445Q215 445 200 439T173 422T162 393Q162 379 168 369T195 345T255 307Q288
288 322 266T380 215T404 143Q404 98 377 63T304 9T200 -11Z" />
<glyph unicode="t" glyph-name="t" horiz-adv-x="395" d="M253 651L233 500H358L352 431L227 429Q223 393 218 352T210 271T204 200T201 151Q201 138 204 123T217 96T249 85Q257 85 272 89T306 107T339 148L390 116Q356 52 307 21T202 -11Q147 -11 120 12T83 72T75
151Q77 185 80 231T88 329T98 428L18 427L27 500Q101 500 136 539T186 651H253Z" />
<glyph unicode="u" glyph-name="u" horiz-adv-x="598" d="M211 -11Q169 -11 143 8T104 61T91 143Q91 180 97 224T110 312T117 392Q117 409 112 413T101 418Q90 418 78 401T53 339L-1 355Q3 376 14 403T45 454T90 495T150 511Q206 511 225 481T245 398Q245 368
241 331T232 254T223 181T219 123Q219 108 222 99T231 85T247 81Q264 81 282 103T318 162T349 245T371 338T380 428Q380 442 380 465T377 500H506Q508 479 508 471T509 452Q509 431 507 402T500 338T491 270Q488 243 485 218T478 172T474 134T472 108Q472 92 476
87T486 82Q497 82 509 99T534 161L588 145Q584 124 575 97T550 46T511 5T455 -11Q423 -11 397 8T371 80Q371 100 373 114T376 145H375Q352 85 325 51T269 3T211 -11Z" />
<glyph unicode="v" glyph-name="v" horiz-adv-x="523" d="M361 511Q393 511 417 497T458 457T483 399T492 329Q492 277 474 218T422 107T338 22T225 -11Q180 -11 152 8T111 62T98 145Q98 171 100 205T106 276T111 343T114 392Q114 409 109 413T98 418Q87 418 75
401T50 339L-4 355Q0 376 11 403T42 454T87 495T147 511Q186 511 206 495T235 453T243 395Q243 363 241 325T234 249T228 177T225 121Q225 111 227 98T237 74T261 64Q288 65 315 85T366 140T404 221T418 320Q418 331 416 342T411 364T403 383T393 397Q384 390 373
385T347 379Q327 379 306 393T285 441Q285 455 292 471T316 499T361 511Z" />
<glyph unicode="w" glyph-name="w" horiz-adv-x="795" d="M634 511Q666 511 690 497T731 457T756 399T765 329Q765 276 744 217T685 106T596 22T484 -11Q441 -11 417 9T386 62T383 135Q369 81 343 49T283 3T216 -11Q152 -11 123 30T94 145Q94 171 97 205T105 276T113
343T117 392Q117 409 112 413T101 418Q89 418 77 401T52 339L-2 355Q2 376 13 403T44 454T89 495T149 511Q188 511 209 495T238 453T246 395Q246 363 243 325T234 249T226 177T222 121Q222 111 223 98T231 74T250 64Q279 64 300 90T335 157T358 248T370 344T374
428Q374 442 373 465T371 500H500Q502 479 502 471T502 452Q502 420 499 373T491 277T483 186T479 121Q479 105 487 85T519 64Q545 64 574 84T630 140T674 222T691 320Q691 331 689 342T684 364T676 383T666 397Q657 390 646 385T620 379Q600 379 579 393T558 441Q558
455 565 471T589 499T634 511Z" />
<glyph unicode="x" glyph-name="x" horiz-adv-x="543" d="M96 -11Q59 -11 38 8T16 58Q16 89 35 108T79 128Q103 128 117 117T135 91Q150 101 166 139T208 251Q192 293 183 324T160 384Q150 405 143 411T125 418Q112 419 100 404T82 343L26 351Q28 373 36 400T61
452T105 494T173 511Q214 511 235 487T271 424Q277 409 281 397T293 356Q314 410 333 441T370 487T403 506T432 511Q468 511 485 492T502 443Q502 418 484 399T439 380Q421 380 410 386T391 401Q382 394 373 381T352 342T322 274Q332 246 345 213T372 150T401 101T427
82Q441 82 450 96T465 157L521 149Q519 127 512 100T490 48T449 6T383 -11Q358 -11 340 -3T307 24T276 76T238 161H237Q218 105 200 71T165 19T131 -5T96 -11Z" />
<glyph unicode="y" glyph-name="y" horiz-adv-x="561" d="M123 -271Q77 -271 53 -249T28 -193Q28 -161 48 -142T92 -123Q145 -123 153 -177Q155 -178 158 -178T163 -178Q180 -178 198 -165T234 -133T264 -95T284 -61Q277 -13 261 42T225 155T182 266T141 364Q134
380 123 399T94 418Q81 418 68 404T49 343L-7 351Q-5 373 3 400T29 452T74 494T142 511Q175 511 198 496T238 456T265 407Q279 373 299 319T337 202T367 73H368Q389 119 403 162T425 244T436 316Q437 327 436 350T424 386Q420 385 417 385T410 385Q385 385 367
402T349 443Q349 478 371 494T418 511Q455 511 477 490T510 437T520 371Q520 328 506 267T467 138T407 2Q369 -71 323 -133T226 -233T123 -271Z" />
<glyph unicode="z" glyph-name="z" horiz-adv-x="491" d="M61 -11L18 29Q41 62 74 106T145 195T213 276Q246 315 270 338T315 380T363 423H362Q322 390 294 380T243 369Q222 369 205 375T170 388T134 394Q114 394 104 379T93 343Q93 326 99 309L49 292Q43 308
40 327T37 370Q37 406 50 438T91 490T160 511Q188 511 219 504T281 489T341 481Q352 481 374 485T421 511L464 471Q439 439 414 408T365 344T315 280Q251 199 201 155T113 78H114Q155 111 185 120T239 129Q264 129 282 123T317 110T353 104Q372 104 382 116T393
147Q394 157 392 168T385 189L436 206Q441 190 445 172T450 130Q450 95 437 63T396 10T327 -11Q299 -11 266 -4T199 11T136 19Q125 19 105 15T61 -11Z" />
<glyph unicode="{" glyph-name="braceleft" horiz-adv-x="345" d="M356 760L353 694Q306 696 280 675T241 617T226 537Q226 530 226 510T228 465T230 416T230 380Q229 328 200 301T124 256V255Q168 236 193 206T217 126Q217 115 214 92T207 39T200 -17T197 -62Q197
-98 207 -131T243 -185T311 -205L307 -271Q295 -271 283 -271T258 -271Q192 -271 154 -243T100 -165T83 -54Q83 -43 85 -16T91 43T98 105T101 150Q102 181 90 201T43 221H-3L2 288H46Q83 288 97 305T113 357Q113 361 113 383T113 434T112 489T111 527Q111 599 130
651T192 732T306 760Q319 760 331 760T356 760Z" />
<glyph unicode="|" glyph-name="bar" horiz-adv-x="234" d="M197 760L139 -271H34L85 760H197Z" />
<glyph unicode="}" glyph-name="braceright" horiz-adv-x="345" d="M-19 -271L-16 -205Q31 -207 57 -186T96 -128T111 -48Q111 -41 111 -21T109 24T107 73T107 109Q108 161 137 188T213 233V234Q169 253 144 283T120 363Q120 374 123 397T130 450T137 506T140
551Q140 587 130 620T94 674T26 694L30 760Q42 760 54 760T79 760Q145 760 183 732T237 654T254 543Q254 532 252 505T246 446T239 384T236 339Q235 308 247 288T294 268H340L335 201H291Q254 201 240 184T224 132Q224 128 224 106T224 55T225 0T226 -38Q226 -110
207 -162T145 -243T31 -271Q18 -271 6 -271T-19 -271Z" />
<glyph unicode="~" glyph-name="asciitilde" horiz-adv-x="530" d="M366 201Q328 201 303 212T259 238T218 264T167 276Q127 276 99 262T41 228L47 346Q80 372 109 385T177 399Q216 399 240 389T282 364T318 338T364 324Q400 321 433 334T494 371L488 253Q466
231 436 216T366 201Z" />
<glyph unicode="&#xa0;" glyph-name="uni00A0" horiz-adv-x="263" />
<glyph unicode="&#xa1;" glyph-name="exclamdown" horiz-adv-x="235" d="M89 -216Q62 -216 47 -202T26 -168T23 -125L81 287H148L164 -125Q165 -157 146 -186T89 -216ZM119 360Q87 360 69 383T51 438Q53 470 76 493T128 516Q157 516 176 493T195 438Q193 406 170
383T119 360Z" />
<glyph unicode="&#xa2;" glyph-name="cent" horiz-adv-x="488" d="M339 625L327 507Q378 497 410 467T442 391Q442 361 425 342T378 322Q344 321 330 342T316 381Q316 390 318 401T326 423Q322 432 309 438T279 445Q247 445 226 424T194 369T177 300T171 233Q169
179 181 146T213 98T254 81Q273 80 297 86T346 115T392 185L449 157Q412 73 366 37T267 -8L253 -134H157L170 -3Q108 13 71 64T34 207Q34 250 45 296T81 385T141 459T225 504L237 625H339Z" />
<glyph unicode="&#xa3;" glyph-name="sterling" horiz-adv-x="550" d="M77 -16Q46 -16 35 1T24 40Q26 69 52 92T115 128Q137 167 137 209T129 299L50 298L55 375H111Q107 397 105 421T104 475Q108 552 140 606T223 688T328 716Q390 716 426 696T477 647T490 592Q489
563 471 541T421 518Q397 517 383 527T363 552T357 579Q358 592 363 606T378 632Q374 638 363 643T334 648Q299 648 277 627T245 574T233 512Q231 473 233 439T239 375H398L394 304L247 301Q251 268 244 234T219 171T174 124Q203 136 223 140T260 144Q280 144 296
139T327 127Q349 116 368 105T407 94Q418 94 431 108T448 151H510Q503 78 472 31T385 -16Q352 -16 325 -1T270 32Q247 46 219 58T165 72Q153 35 128 10T77 -16Z" />
<glyph unicode="&#xa4;" glyph-name="currency" horiz-adv-x="553" d="M113 27L44 84L105 149Q81 196 84 254Q86 282 94 310T119 362L63 431L136 488L183 425Q204 438 229 445T283 453Q312 453 336 446T380 425L433 487L501 428L437 359Q451 335 457 309T461 254Q460
226 452 199T429 149L483 84L409 27L364 87Q342 75 317 69T262 62Q233 62 208 68T163 87L113 27ZM266 135Q286 135 300 148T323 183T336 227T342 269Q343 283 341 302T331 340T312 370T279 382Q260 382 247 370T224 340T211 303T206 269Q205 250 206 227T214 183T233
149T266 135Z" />
<glyph unicode="&#xa5;" glyph-name="yen" horiz-adv-x="706" d="M214 0L217 66Q238 67 254 71T279 90T292 138H186L190 215H296L299 265L190 264L195 342L247 341L128 531Q114 554 104 582T95 626Q79 625 69 625T47 623L51 700H343L339 634Q296 637 275 618T276
557Q293 526 311 495T346 432Q350 425 358 409T376 374T390 341H396Q407 363 433 410T502 535Q508 546 518 563T540 598T560 626Q544 625 519 625T483 623L487 700H708L704 634Q669 629 643 606T585 527Q558 481 532 434T478 340H548L544 266L441 265L438 214L543
213L540 140L435 139Q434 119 432 102T427 74Q444 76 470 76T507 77L503 0H214Z" />
<glyph unicode="&#xa6;" glyph-name="brokenbar" horiz-adv-x="249" d="M203 760L179 375H75L93 760H203ZM169 113L145 -271H42L59 113H169Z" />
<glyph unicode="&#xa7;" glyph-name="section" horiz-adv-x="527" d="M227 -228Q172 -228 132 -209T70 -158T49 -95Q51 -66 68 -44T114 -21Q138 -20 151 -31T170 -56T175 -82Q175 -104 162 -123Q167 -133 177 -141T201 -153T230 -157Q261 -157 282 -145T315 -115T327
-76Q329 -45 313 -21T270 22T216 57T166 88Q139 106 115 126T71 171T41 227T32 297Q34 337 57 382T118 461Q96 490 90 515T84 569Q85 598 97 631T134 693T199 741T293 760Q348 760 388 740T451 690T471 626Q470 598 453 577T406 554Q383 554 369 564T350 588T345
613Q345 624 348 634T358 655Q354 666 344 673T321 685T293 689Q262 689 241 677T209 645T196 606Q195 572 211 548T253 504T307 469T360 434Q407 399 435 370T477 307T490 226Q490 203 479 173T448 114T404 61Q416 42 428 17T438 -45Q437 -74 426 -106T390 -165T325
-210T227 -228ZM357 117Q365 132 370 159T375 202Q375 233 360 257T322 302T270 339T214 372T167 405Q159 390 154 364T148 321Q148 290 163 266T202 221T254 184T309 150T357 117Z" />
<glyph unicode="&#xa8;" glyph-name="dieresis" horiz-adv-x="415" d="M290 600Q264 600 247 620T229 670Q229 703 250 727T299 751Q326 751 342 731T359 681Q359 647 339 624T290 600ZM116 600Q90 600 73 620T55 670Q55 703 76 727T125 751Q152 751 168 731T185
681Q185 647 165 624T116 600Z" />
<glyph unicode="&#xa9;" glyph-name="copyright" horiz-adv-x="890" d="M443 94Q374 94 322 126T241 214T216 338Q219 382 236 427T285 510T363 570T470 590Q500 589 529 582T583 555V586H655L646 411H584Q580 471 546 497T472 523Q437 523 406 501T355 439T332
349Q330 304 346 265T396 202T476 176Q511 175 551 194T622 250L662 209Q626 164 586 139T509 104T443 94ZM428 -71Q336 -71 262 -41T136 45T58 176T36 340Q41 426 76 501T170 633T306 722T473 755Q563 755 636 723T760 633T838 500T859 339Q855 254 820 180T725
49T590 -39T428 -71ZM434 -14Q511 -14 574 14T685 91T758 204T789 340Q793 412 773 476T710 590T606 668T468 697Q392 697 328 669T215 591T139 477T107 340Q103 268 123 204T186 91T291 14T434 -14Z" />
<glyph unicode="&#xaa;" glyph-name="ordfeminine" horiz-adv-x="406" d="M243 716Q261 716 293 713T353 703Q349 679 344 643T333 567T324 496T320 446Q320 435 323 431T330 427Q338 427 347 438T365 478L398 468Q395 450 384 426T352 385T301 367Q273 367 258
380T243 426Q243 434 244 445T247 463H246Q230 426 213 405T178 376T140 367Q106 367 77 396T47 485Q47 553 70 605T137 686T243 716ZM219 666Q201 665 186 649T162 596T149 494Q148 468 154 453T174 437Q188 437 200 458T223 514T241 588T250 662Q246 664 237
665T219 666Z" />
<glyph unicode="&#xab;" glyph-name="guillemotleft" horiz-adv-x="489" d="M267 -13L17 256L18 280L299 558L339 514L138 267V266L311 28L267 -13ZM396 65L236 259L237 282L419 481L459 448L347 274V273L439 99L396 65Z" />
<glyph unicode="&#xac;" glyph-name="logicalnot" horiz-adv-x="530" d="M397 149L401 266L41 264L47 362L496 359L485 149H397Z" />
<glyph unicode="&#xad;" glyph-name="uni00AD" horiz-adv-x="473" d="M424 370L418 272L52 269L57 370H424Z" />
<glyph unicode="&#xae;" glyph-name="registered" horiz-adv-x="890" d="M473 755Q563 755 636 723T760 633T838 500T859 339Q855 254 820 180T725 49T590 -39T428 -71Q336 -71 262 -41T136 45T58 176T36 340Q41 426 76 501T170 633T306 722T473 755ZM468 697Q392
697 328 669T215 591T139 477T107 340Q103 268 123 204T186 91T291 14T434 -14Q511 -14 574 14T685 91T758 204T789 340Q793 412 773 476T710 590T606 668T468 697ZM244 162Q267 164 280 172T295 221L308 474Q309 494 311 510T314 535Q303 534 287 534T263 533L266
585Q297 585 328 585T391 586T453 586Q512 586 554 572T617 527T633 441Q631 413 619 387T582 342T517 311Q530 306 538 294T555 268Q582 221 595 199T618 170T646 162L644 118H541Q530 127 518 143T494 181Q467 231 455 254T440 284T433 297Q422 297 414 297T395
297L391 229Q390 211 389 194T387 168Q398 169 417 169T443 170L440 118H241L244 162ZM397 357Q406 355 412 355T425 354Q458 354 481 365T517 397T532 447Q534 486 519 503T483 525T448 530Q427 530 417 520T404 476L397 357Z" />
<glyph unicode="&#xaf;" glyph-name="overscore" horiz-adv-x="378" d="M45 629L49 722H333L329 632L45 629Z" />
<glyph unicode="&#xb0;" glyph-name="degree" horiz-adv-x="384" d="M219 716Q293 716 334 670T373 556Q371 510 346 474T283 417T199 395Q150 395 115 416T62 474T46 556Q49 602 73 638T136 695T219 716ZM213 648Q179 648 155 620T130 553Q130 515 149 490T204
465Q242 465 265 493T289 560Q289 600 269 624T213 648Z" />
<glyph unicode="&#xb1;" glyph-name="plusminus" horiz-adv-x="530" d="M50 399H496L492 321H46L50 399ZM322 583L298 137H220L244 583H322ZM50 78H496L492 0H46L50 78Z" />
<glyph unicode="&#xb2;" glyph-name="uni00B2" horiz-adv-x="376" d="M208 716Q241 716 270 707T318 676T337 619Q337 586 323 563T287 520T236 480T180 432Q167 419 158 409T141 384L262 382Q271 382 277 384T288 395T293 419H340L329 302H50Q53 348 68 380T108
437T160 485Q204 523 217 556T230 608Q230 635 217 647T184 660Q174 660 164 656T148 645Q156 639 158 629T160 613Q160 600 149 582T108 563Q86 563 75 577T63 613Q63 634 79 658T128 699T208 716Z" />
<glyph unicode="&#xb3;" glyph-name="uni00B3" horiz-adv-x="365" d="M171 292Q109 292 76 322T43 389Q45 411 59 428T96 446Q124 447 133 431T142 396Q142 391 138 380T126 361Q133 351 147 348T169 344Q200 344 219 364T240 413Q241 434 232 450T204 476T159
485Q152 485 142 485T125 484L128 538Q137 537 146 537T163 536Q188 536 203 547T227 574T235 605Q237 632 223 648T183 664Q170 664 161 660T147 652Q155 645 157 635T159 619Q158 606 147 589T108 572Q86 573 74 587T62 623Q63 642 78 663T124 700T202 716Q259
716 296 690T331 611Q330 581 306 556T251 522Q298 513 319 487T341 423Q340 368 297 330T171 292Z" />
<glyph unicode="&#xb4;" glyph-name="acute" horiz-adv-x="292" d="M89 565L45 606L134 746Q145 763 162 773T197 783T229 770Q245 756 246 738T240 701T216 671L89 565Z" />
<glyph unicode="&#xb5;" glyph-name="uni00B5" horiz-adv-x="597" d="M115 -271Q76 -271 63 -242T52 -167L87 500H209L195 228Q193 181 198 147T220 94T264 75Q287 75 308 86T346 116L366 500H488L468 142Q468 134 468 122T472 101T490 91Q497 91 506 95T527 109L559
67Q547 51 527 35T483 7T434 -5Q405 -5 385 10T357 59H356Q308 -11 250 -11Q218 -11 195 6T158 49H157Q157 -5 164 -54T177 -139T183 -195Q182 -223 167 -247T115 -271Z" />
<glyph unicode="&#xb6;" glyph-name="paragraph" horiz-adv-x="557" d="M129 -255L166 401Q134 407 106 423T61 469T46 549Q49 601 73 634T133 683T207 700H496L444 -255H334L382 631L288 630L240 -255H129Z" />
<glyph unicode="&#xb7;" glyph-name="middot" horiz-adv-x="227" d="M120 419Q151 419 170 396T188 341Q187 309 166 286T113 263Q80 263 61 286T43 341Q45 373 68 396T120 419Z" />
<glyph unicode="&#xb8;" glyph-name="cedilla" horiz-adv-x="330" d="M50 -259L45 -207Q57 -205 77 -201T119 -189T154 -170T170 -144Q171 -127 158 -122T128 -121T101 -133L64 -117L102 10H178L145 -69Q159 -62 180 -58T215 -53Q246 -54 266 -70T284 -123Q282
-158 257 -182T194 -221T118 -246T50 -259Z" />
<glyph unicode="&#xb9;" glyph-name="uni00B9" horiz-adv-x="276" d="M68 301L70 339Q89 340 100 347T113 389L125 619L59 582L41 621L189 716H224L207 395Q206 380 205 366T203 344Q212 345 225 345T246 345L243 301H68Z" />
<glyph unicode="&#xba;" glyph-name="ordmasculine" horiz-adv-x="368" d="M217 716Q273 716 313 676T354 564Q354 513 334 467T275 393T185 364Q139 364 109 385T63 442T47 520Q47 573 68 617T127 689T217 716ZM209 666Q184 666 168 628T152 530Q152 496 156
471T169 431T193 417Q212 417 224 435T242 484T249 550Q249 587 245 612T233 652T209 666Z" />
<glyph unicode="&#xbb;" glyph-name="guillemotright" horiz-adv-x="490" d="M218 554L468 285L467 261L186 -17L146 27L347 274V275L174 513L218 554ZM89 476L249 282L248 259L66 60L26 93L138 267V268L46 442L89 476Z" />
<glyph unicode="&#xbc;" glyph-name="onequarter" horiz-adv-x="794" d="M68 301L70 339Q89 340 100 347T113 389L125 619L59 582L41 621L189 716H224L207 395Q206 380 205 366T203 344Q212 345 225 345T246 345L243 301H68ZM596 716L660 665L180 -16L119 31L596
716ZM549 0L551 38Q570 39 581 46T595 88V101L444 102L446 160L673 415H707L694 156L753 155L750 100H691L686 43L729 44L726 0H549ZM600 157L611 277H610L513 159L600 157Z" />
<glyph unicode="&#xbd;" glyph-name="onehalf" horiz-adv-x="833" d="M68 301L70 339Q89 340 100 347T113 389L125 619L59 582L41 621L189 716H224L207 395Q206 380 205 366T203 344Q212 345 225 345T246 345L243 301H68ZM596 716L660 665L180 -16L119 31L596
716ZM659 414Q692 414 721 405T769 374T788 317Q788 284 774 261T738 218T687 178T631 130Q618 117 609 107T592 82L713 80Q722 80 728 82T739 93T744 117H791L780 0H501Q504 46 519 78T559 135T611 183Q655 221 668 254T681 306Q681 333 668 345T635 358Q625 358
615 354T599 343Q607 337 609 327T611 311Q611 298 600 280T559 261Q537 261 526 275T514 311Q514 332 530 356T579 397T659 414Z" />
<glyph unicode="&#xbe;" glyph-name="threequarters" horiz-adv-x="889" d="M171 292Q109 292 76 322T43 389Q45 411 59 428T96 446Q124 447 133 431T142 396Q142 391 138 380T126 361Q133 351 147 348T169 344Q200 344 219 364T240 413Q241 434 232 450T204 476T159
485Q152 485 142 485T125 484L128 538Q137 537 146 537T163 536Q188 536 203 547T227 574T235 605Q237 632 223 648T183 664Q170 664 161 660T147 652Q155 645 157 635T159 619Q158 606 147 589T108 572Q86 573 74 587T62 623Q63 642 78 663T124 700T202 716Q259
716 296 690T331 611Q330 581 306 556T251 522Q298 513 319 487T341 423Q340 368 297 330T171 292ZM691 716L755 665L275 -16L214 31L691 716ZM644 0L646 38Q665 39 676 46T690 88V101L539 102L541 160L768 415H802L789 156L848 155L845 100H786L781 43L824 44L821
0H644ZM695 157L706 277H705L608 159L695 157Z" />
<glyph unicode="&#xbf;" glyph-name="questiondown" horiz-adv-x="478" d="M249 319Q270 319 290 312T321 290T332 250Q331 233 324 218T298 182T244 127Q219 104 200 81T168 29T153 -37Q151 -68 158 -92T183 -131T235 -146Q251 -146 266 -141T294 -129T313 -114Q303
-104 299 -88T297 -60Q298 -47 306 -32T330 -6T370 3Q401 1 415 -18T429 -68Q427 -104 398 -138T321 -194T212 -216Q133 -216 88 -193T24 -134T8 -57Q10 -15 33 19T88 83T153 135T208 180T231 220Q232 233 223 241T192 250Q186 250 179 249T162 246L149 297Q174
310 202 314T249 319ZM249 516Q278 516 298 493T317 438Q315 406 292 383T240 360Q209 360 190 383T172 438Q173 470 196 493T249 516Z" />
<glyph unicode="&#xc0;" glyph-name="Agrave" horiz-adv-x="667" d="M384 718L569 173Q574 158 582 128T592 74L649 77L646 0H378L382 66Q410 66 421 77T433 109T424 154L407 209L188 205L169 158Q164 145 154 120T133 77L207 80L202 0H-12L-8 69Q20 69 37 85T68
127T94 183L317 718H384ZM315 542Q311 525 299 491T268 410L217 280H385L346 405Q336 441 327 477T315 542ZM395 770L254 854Q239 864 228 878T216 910T228 943Q241 960 258 962T294 958T325 936L434 819L395 770Z" />
<glyph unicode="&#xc1;" glyph-name="Aacute" horiz-adv-x="667" d="M384 718L569 173Q574 158 582 128T592 74L649 77L646 0H378L382 66Q410 66 421 77T433 109T424 154L407 209L188 205L169 158Q164 145 154 120T133 77L207 80L202 0H-12L-8 69Q20 69 37 85T68
127T94 183L317 718H384ZM315 542Q311 525 299 491T268 410L217 280H385L346 405Q336 441 327 477T315 542ZM315 770L281 818L403 936Q418 950 436 957T471 963T500 943Q512 926 509 909T494 878T465 854L315 770Z" />
<glyph unicode="&#xc2;" glyph-name="Acircumflex" horiz-adv-x="667" d="M384 718L569 173Q574 158 582 128T592 74L649 77L646 0H378L382 66Q410 66 421 77T433 109T424 154L407 209L188 205L169 158Q164 145 154 120T133 77L207 80L202 0H-12L-8 69Q20 69 37
85T68 127T94 183L317 718H384ZM315 542Q311 525 299 491T268 410L217 280H385L346 405Q336 441 327 477T315 542ZM535 779L356 867L163 781L144 821L356 971H375L563 821L535 779Z" />
<glyph unicode="&#xc3;" glyph-name="Atilde" horiz-adv-x="667" d="M384 718L569 173Q574 158 582 128T592 74L649 77L646 0H378L382 66Q410 66 421 77T433 109T424 154L407 209L188 205L169 158Q164 145 154 120T133 77L207 80L202 0H-12L-8 69Q20 69 37 85T68
127T94 183L317 718H384ZM315 542Q311 525 299 491T268 410L217 280H385L346 405Q336 441 327 477T315 542ZM285 848Q266 848 241 839T196 799L145 831Q168 887 206 912T281 937Q306 937 325 930T360 912T392 895T428 887Q448 887 474 904T514 949L566 922Q548
871 525 844T478 808T433 798Q410 798 392 805T357 823T323 840T285 848Z" />
<glyph unicode="&#xc4;" glyph-name="Adieresis" horiz-adv-x="667" d="M384 718L569 173Q574 158 582 128T592 74L649 77L646 0H378L382 66Q410 66 421 77T433 109T424 154L407 209L188 205L169 158Q164 145 154 120T133 77L207 80L202 0H-12L-8 69Q20 69 37
85T68 127T94 183L317 718H384ZM315 542Q311 525 299 491T268 410L217 280H385L346 405Q336 441 327 477T315 542ZM264 797Q239 797 222 817T204 868Q204 901 225 925T274 949Q300 949 316 928T333 878Q333 846 313 822T264 797ZM439 797Q413 797 396 817T379 868Q379
901 399 925T448 949Q475 949 491 928T507 878Q507 845 488 821T439 797Z" />
<glyph unicode="&#xc5;" glyph-name="Aring" horiz-adv-x="667" d="M384 718L569 173Q574 158 582 128T592 74L649 77L646 0H378L382 66Q410 66 421 77T433 109T424 154L407 209L188 205L169 158Q164 145 154 120T133 77L207 80L202 0H-12L-8 69Q20 69 37 85T68
127T94 183L317 718H384ZM315 542Q311 525 299 491T268 410L217 280H385L346 405Q336 441 327 477T315 542ZM356 751Q324 751 293 764T242 806T222 877Q222 916 242 945T292 990T355 1006Q387 1006 417 993T468 951T489 879Q489 839 469 810T419 766T356 751ZM359
802Q376 802 389 818T402 867Q402 909 390 932T355 956Q330 956 320 933T309 885Q309 846 323 824T359 802Z" />
<glyph unicode="&#xc6;" glyph-name="AE" horiz-adv-x="931" d="M-24 0L-21 66Q3 66 24 82T66 123T104 171L451 625Q435 625 411 625T375 623L379 700H877L873 506H807Q810 561 793 589T748 626T692 635L656 634Q635 634 620 629T596 605T585 547L577 397H695Q695
411 695 426T695 457T695 484H772L759 241H693Q696 283 684 301T649 325T600 329Q593 329 587 329T573 328L565 164Q564 137 562 113T556 76H690Q720 76 749 89T797 134T820 220H886L868 0H343L346 66Q369 67 385 72T410 95T422 153L424 207Q378 206 327 205T229
202L191 151Q174 128 158 108T124 75V74L204 77L200 0H-24ZM281 276H428L445 501H444Q432 481 423 467T402 437T368 392L281 276Z" />
<glyph unicode="&#xc7;" glyph-name="Ccedilla" horiz-adv-x="690" d="M408 716Q447 716 492 704T577 667H578L577 709H654L642 476H576Q567 559 527 603T417 648Q365 648 325 624T256 559T213 466T194 360Q190 274 211 207T278 100T391 60Q451 59 516 88T632
184L671 144Q619 77 564 43T456 -4T362 -16Q285 -16 224 11T119 87T55 200T38 340Q42 408 67 475T139 596T253 683T408 716ZM269 -275L264 -220Q276 -218 296 -212T338 -197T373 -174T389 -146Q390 -132 383 -127T364 -121Q353 -121 341 -125T321 -136L280 -121L318
10H398L365 -67Q379 -61 400 -56T435 -52Q466 -53 487 -71T507 -125Q505 -160 479 -186T415 -231T338 -260T269 -275Z" />
<glyph unicode="&#xc8;" glyph-name="Egrave" horiz-adv-x="623" d="M570 700L565 506H500Q503 561 485 589T440 626T385 635L349 634Q328 634 313 629T288 605T277 547L270 397H387Q387 411 387 426T387 457T387 484H464L452 241H386Q388 283 376 301T341 325T292
329L266 328L257 164Q256 137 254 113T249 76H383Q413 76 441 89T489 134T512 220H578L561 0H35L39 66Q61 67 77 72T102 95T114 153L134 536Q136 563 138 588T143 626Q127 625 103 625T68 623L72 700H570ZM392 770L251 854Q236 864 225 878T213 910T225 943Q238
960 255 962T291 958T322 936L431 819L392 770Z" />
<glyph unicode="&#xc9;" glyph-name="Eacute" horiz-adv-x="623" d="M570 700L565 506H500Q503 561 485 589T440 626T385 635L349 634Q328 634 313 629T288 605T277 547L270 397H387Q387 411 387 426T387 457T387 484H464L452 241H386Q388 283 376 301T341 325T292
329L266 328L257 164Q256 137 254 113T249 76H383Q413 76 441 89T489 134T512 220H578L561 0H35L39 66Q61 67 77 72T102 95T114 153L134 536Q136 563 138 588T143 626Q127 625 103 625T68 623L72 700H570ZM312 770L278 818L400 936Q415 950 433 957T468 963T497
943Q509 926 506 909T491 878T462 854L312 770Z" />
<glyph unicode="&#xca;" glyph-name="Ecircumflex" horiz-adv-x="623" d="M570 700L565 506H500Q503 561 485 589T440 626T385 635L349 634Q328 634 313 629T288 605T277 547L270 397H387Q387 411 387 426T387 457T387 484H464L452 241H386Q388 283 376 301T341
325T292 329L266 328L257 164Q256 137 254 113T249 76H383Q413 76 441 89T489 134T512 220H578L561 0H35L39 66Q61 67 77 72T102 95T114 153L134 536Q136 563 138 588T143 626Q127 625 103 625T68 623L72 700H570ZM532 779L353 867L160 781L141 821L353 971H372L560
821L532 779Z" />
<glyph unicode="&#xcb;" glyph-name="Edieresis" horiz-adv-x="623" d="M570 700L565 506H500Q503 561 485 589T440 626T385 635L349 634Q328 634 313 629T288 605T277 547L270 397H387Q387 411 387 426T387 457T387 484H464L452 241H386Q388 283 376 301T341
325T292 329L266 328L257 164Q256 137 254 113T249 76H383Q413 76 441 89T489 134T512 220H578L561 0H35L39 66Q61 67 77 72T102 95T114 153L134 536Q136 563 138 588T143 626Q127 625 103 625T68 623L72 700H570ZM261 797Q236 797 219 817T201 868Q201 901 222
925T271 949Q297 949 313 928T330 878Q330 846 310 822T261 797ZM436 797Q410 797 393 817T376 868Q376 901 396 925T445 949Q472 949 488 928T504 878Q504 845 485 821T436 797Z" />
<glyph unicode="&#xcc;" glyph-name="Igrave" horiz-adv-x="384" d="M356 700L353 634Q331 633 315 628T289 606T277 547L257 164Q256 137 254 112T249 74Q265 76 289 76T324 77L320 0H35L39 66Q61 67 77 72T102 95T114 153L134 536Q136 563 138 588T143 626Q127
625 103 625T68 623L72 700H356ZM275 770L134 854Q119 864 108 878T96 910T108 943Q121 960 138 962T174 958T205 936L314 819L275 770Z" />
<glyph unicode="&#xcd;" glyph-name="Iacute" horiz-adv-x="384" d="M356 700L353 634Q331 633 315 628T289 606T277 547L257 164Q256 137 254 112T249 74Q265 76 289 76T324 77L320 0H35L39 66Q61 67 77 72T102 95T114 153L134 536Q136 563 138 588T143 626Q127
625 103 625T68 623L72 700H356ZM195 770L161 818L283 936Q298 950 316 957T351 963T380 943Q392 926 389 909T374 878T345 854L195 770Z" />
<glyph unicode="&#xce;" glyph-name="Icircumflex" horiz-adv-x="384" d="M356 700L353 634Q331 633 315 628T289 606T277 547L257 164Q256 137 254 112T249 74Q265 76 289 76T324 77L320 0H35L39 66Q61 67 77 72T102 95T114 153L134 536Q136 563 138 588T143
626Q127 625 103 625T68 623L72 700H356ZM608 768L485 867L346 771L310 818L485 971H500L651 814L608 768Z" />
<glyph unicode="&#xcf;" glyph-name="Idieresis" horiz-adv-x="384" d="M356 700L353 634Q331 633 315 628T289 606T277 547L257 164Q256 137 254 112T249 74Q265 76 289 76T324 77L320 0H35L39 66Q61 67 77 72T102 95T114 153L134 536Q136 563 138 588T143 626Q127
625 103 625T68 623L72 700H356ZM144 797Q119 797 102 817T84 868Q84 901 105 925T154 949Q180 949 196 928T213 878Q213 846 193 822T144 797ZM319 797Q293 797 276 817T259 868Q259 901 279 925T328 949Q355 949 371 928T387 878Q387 845 368 821T319 797Z" />
<glyph unicode="&#xd0;" glyph-name="Eth" horiz-adv-x="756" d="M36 0L40 66Q62 67 78 72T103 95T115 153L123 304L24 302L29 400H128L135 536Q137 563 139 588T144 626Q128 625 104 625T69 623L73 700L362 701Q461 701 531 672T644 592T707 481T724 357Q721
296 697 233T624 118T500 33T320 0H36ZM345 73Q418 73 466 111T539 209T567 336Q575 489 518 560T356 634Q332 635 315 630T289 606T278 549L270 400H372L367 309L265 307L258 164Q257 137 255 112T250 74Q260 75 277 75T314 74T345 73Z" />
<glyph unicode="&#xd1;" glyph-name="Ntilde" horiz-adv-x="772" d="M566 -10L268 401Q256 418 243 437T217 476H216L202 164Q201 137 198 112T193 74Q210 76 234 76T269 77L264 0H36L40 66Q63 67 79 72T104 95T116 153L133 536Q135 563 137 588T142 626Q126 625
102 625T66 623L71 700H228L513 313Q536 281 551 258T578 217H579L595 536Q597 563 599 588T604 626Q588 625 564 625T528 623L533 700H760L757 634Q734 633 718 628T693 606T681 547L651 -10H566ZM349 848Q330 848 305 839T260 799L209 831Q232 887 270 912T345
937Q370 937 389 930T424 912T456 895T492 887Q512 887 538 904T578 949L630 922Q612 871 589 844T542 808T497 798Q474 798 456 805T421 823T387 840T349 848Z" />
<glyph unicode="&#xd2;" glyph-name="Ograve" horiz-adv-x="762" d="M406 716Q497 716 560 683T662 596T717 477T730 350Q727 288 703 224T633 106T521 18T365 -16Q270 -16 206 16T104 101T51 220T40 350Q43 413 67 477T137 596T250 683T406 716ZM389 648Q338
647 302 620T242 550T208 458T194 362Q191 315 198 262T227 160T285 82T379 52Q431 52 467 78T527 147T562 238T576 333Q579 402 570 460T538 560T478 626T389 648ZM448 770L307 854Q292 864 281 878T269 910T281 943Q294 960 311 962T347 958T378 936L487 819L448
770Z" />
<glyph unicode="&#xd3;" glyph-name="Oacute" horiz-adv-x="762" d="M406 716Q497 716 560 683T662 596T717 477T730 350Q727 288 703 224T633 106T521 18T365 -16Q270 -16 206 16T104 101T51 220T40 350Q43 413 67 477T137 596T250 683T406 716ZM389 648Q338
647 302 620T242 550T208 458T194 362Q191 315 198 262T227 160T285 82T379 52Q431 52 467 78T527 147T562 238T576 333Q579 402 570 460T538 560T478 626T389 648ZM368 770L334 818L456 936Q471 950 489 957T524 963T553 943Q565 926 562 909T547 878T518 854L368
770Z" />
<glyph unicode="&#xd4;" glyph-name="Ocircumflex" horiz-adv-x="762" d="M406 716Q497 716 560 683T662 596T717 477T730 350Q727 288 703 224T633 106T521 18T365 -16Q270 -16 206 16T104 101T51 220T40 350Q43 413 67 477T137 596T250 683T406 716ZM389 648Q338
647 302 620T242 550T208 458T194 362Q191 315 198 262T227 160T285 82T379 52Q431 52 467 78T527 147T562 238T576 333Q579 402 570 460T538 560T478 626T389 648ZM588 779L409 867L216 781L197 821L409 971H428L616 821L588 779Z" />
<glyph unicode="&#xd5;" glyph-name="Otilde" horiz-adv-x="762" d="M406 716Q497 716 560 683T662 596T717 477T730 350Q727 288 703 224T633 106T521 18T365 -16Q270 -16 206 16T104 101T51 220T40 350Q43 413 67 477T137 596T250 683T406 716ZM389 648Q338
647 302 620T242 550T208 458T194 362Q191 315 198 262T227 160T285 82T379 52Q431 52 467 78T527 147T562 238T576 333Q579 402 570 460T538 560T478 626T389 648ZM338 848Q319 848 294 839T249 799L198 831Q221 887 259 912T334 937Q359 937 378 930T413 912T445
895T481 887Q501 887 527 904T567 949L619 922Q601 871 578 844T531 808T486 798Q463 798 445 805T410 823T376 840T338 848Z" />
<glyph unicode="&#xd6;" glyph-name="Odieresis" horiz-adv-x="762" d="M406 716Q497 716 560 683T662 596T717 477T730 350Q727 288 703 224T633 106T521 18T365 -16Q270 -16 206 16T104 101T51 220T40 350Q43 413 67 477T137 596T250 683T406 716ZM389 648Q338
647 302 620T242 550T208 458T194 362Q191 315 198 262T227 160T285 82T379 52Q431 52 467 78T527 147T562 238T576 333Q579 402 570 460T538 560T478 626T389 648ZM317 797Q292 797 275 817T257 868Q257 901 278 925T327 949Q353 949 369 928T386 878Q386 846
366 822T317 797ZM492 797Q466 797 449 817T432 868Q432 901 452 925T501 949Q528 949 544 928T560 878Q560 845 541 821T492 797Z" />
<glyph unicode="&#xd7;" glyph-name="multiply" horiz-adv-x="530" d="M151 545L449 230L391 175L93 490L151 545ZM463 491L130 175L79 229L412 545L463 491Z" />
<glyph unicode="&#xd8;" glyph-name="Oslash" horiz-adv-x="761" d="M159 -102L87 -52L152 50Q108 86 83 135T47 239T40 350Q43 413 67 477T137 596T250 683T406 716Q450 716 487 708T555 685L618 783L694 734L630 633Q687 578 710 501T730 350Q727 288 703 224T633
106T521 18T365 -16Q325 -16 292 -10T229 7L159 -102ZM225 165L505 605Q483 627 454 638T389 648Q338 647 302 620T242 550T208 458T194 362Q191 316 198 264T225 165ZM379 52Q431 52 467 78T527 147T562 238T576 333Q579 386 574 433T556 518L280 86Q300 70 324
61T379 52Z" />
<glyph unicode="&#xd9;" glyph-name="Ugrave" horiz-adv-x="755" d="M756 700L752 634Q730 633 714 628T689 606T677 547L664 297Q659 211 635 151T571 54T479 1T367 -16Q283 -16 229 8T144 75T104 174T97 294L110 536Q112 563 114 588T119 626Q103 625 79 625T43
623L47 700H333L329 634Q307 633 291 628T265 606T253 547L239 272Q236 209 247 169T279 105T329 71T387 60Q442 58 482 81T546 152T573 274L587 536Q589 563 591 588T596 626Q580 625 556 625T521 623L524 700H756ZM471 770L330 854Q315 864 304 878T292 910T304
943Q317 960 334 962T370 958T401 936L510 819L471 770Z" />
<glyph unicode="&#xda;" glyph-name="Uacute" horiz-adv-x="755" d="M756 700L752 634Q730 633 714 628T689 606T677 547L664 297Q659 211 635 151T571 54T479 1T367 -16Q283 -16 229 8T144 75T104 174T97 294L110 536Q112 563 114 588T119 626Q103 625 79 625T43
623L47 700H333L329 634Q307 633 291 628T265 606T253 547L239 272Q236 209 247 169T279 105T329 71T387 60Q442 58 482 81T546 152T573 274L587 536Q589 563 591 588T596 626Q580 625 556 625T521 623L524 700H756ZM391 770L357 818L479 936Q494 950 512 957T547
963T576 943Q588 926 585 909T570 878T541 854L391 770Z" />
<glyph unicode="&#xdb;" glyph-name="Ucircumflex" horiz-adv-x="755" d="M756 700L752 634Q730 633 714 628T689 606T677 547L664 297Q659 211 635 151T571 54T479 1T367 -16Q283 -16 229 8T144 75T104 174T97 294L110 536Q112 563 114 588T119 626Q103 625 79
625T43 623L47 700H333L329 634Q307 633 291 628T265 606T253 547L239 272Q236 209 247 169T279 105T329 71T387 60Q442 58 482 81T546 152T573 274L587 536Q589 563 591 588T596 626Q580 625 556 625T521 623L524 700H756ZM611 779L432 867L239 781L220 821L432
971H451L639 821L611 779Z" />
<glyph unicode="&#xdc;" glyph-name="Udieresis" horiz-adv-x="755" d="M756 700L752 634Q730 633 714 628T689 606T677 547L664 297Q659 211 635 151T571 54T479 1T367 -16Q283 -16 229 8T144 75T104 174T97 294L110 536Q112 563 114 588T119 626Q103 625 79
625T43 623L47 700H333L329 634Q307 633 291 628T265 606T253 547L239 272Q236 209 247 169T279 105T329 71T387 60Q442 58 482 81T546 152T573 274L587 536Q589 563 591 588T596 626Q580 625 556 625T521 623L524 700H756ZM340 797Q315 797 298 817T280 868Q280
901 301 925T350 949Q376 949 392 928T409 878Q409 846 389 822T340 797ZM515 797Q489 797 472 817T455 868Q455 901 475 925T524 949Q551 949 567 928T583 878Q583 845 564 821T515 797Z" />
<glyph unicode="&#xdd;" glyph-name="Yacute" horiz-adv-x="665" d="M190 0L194 66Q217 67 233 72T258 95T270 153L274 240L105 531Q92 554 82 582T72 626Q56 625 45 625T23 623L27 700H319L316 634Q287 636 268 628T244 603T253 557Q270 526 288 495T323 432Q327
424 336 407T354 370T368 335H370Q375 347 388 371T421 433Q435 459 450 484T479 535Q485 546 495 563T516 598T536 626Q520 625 495 625T459 623L463 700H684L681 634Q646 629 620 606T562 527L418 277L413 164Q412 137 409 112T404 74Q415 75 431 75T462 76T484
77L480 0H190ZM346 770L312 818L434 936Q449 950 467 957T502 963T531 943Q543 926 540 909T525 878T496 854L346 770Z" />
<glyph unicode="&#xde;" glyph-name="Thorn" horiz-adv-x="630" d="M35 0L39 66Q61 67 77 72T102 95T114 153L134 536Q136 563 138 588T143 626Q127 625 103 625T68 623L72 700H356L353 634Q323 633 304 624T279 570Q294 570 309 570T339 571Q427 572 491 552T590
486T618 359Q615 319 595 283T537 218T446 172T321 152Q300 151 286 151T256 152Q255 136 254 121T252 94T249 74Q265 76 289 76T324 77L320 0H35ZM260 225Q269 224 278 224T297 223Q380 223 420 259T464 368Q467 416 453 443T417 482T372 497T333 500Q316 500
302 500T275 500L260 225Z" />
<glyph unicode="&#xdf;" glyph-name="germandbls" horiz-adv-x="671" d="M-20 -271Q-66 -271 -90 -252T-115 -199Q-115 -187 -109 -172T-89 -146T-53 -136Q-30 -137 -15 -154T-4 -198Q-2 -199 1 -199T9 -200Q26 -200 37 -182T54 -135T64 -73T71 -11Q75 32 79 89T87
209T96 329T104 428L24 427L33 500H113Q122 577 148 627T212 707T294 748T381 760Q414 760 452 755T524 734T580 691T602 618Q602 587 589 563T556 519T512 483Q479 459 452 439T424 393Q424 381 427 371T447 346T504 307Q537 288 570 266T626 215T648 143Q648
98 622 63T552 9T449 -11Q401 -11 362 3T299 43T275 105Q275 136 293 155T339 175Q366 175 383 157T400 113Q400 106 399 99T394 83Q399 73 418 64T452 55Q496 55 511 74T526 117Q526 145 498 165T430 208Q384 234 357 256T317 301T304 347Q304 380 319 404T357
449T405 487T451 525Q470 543 481 564T491 612Q489 643 474 659T437 682T395 688Q348 688 318 667T271 610T246 535T235 455Q231 409 228 362T220 269T212 176T205 83T197 -11Q188 -88 163 -147T93 -238T-20 -271Z" />
<glyph unicode="&#xe0;" glyph-name="agrave" horiz-adv-x="549" d="M327 511Q355 511 392 506T471 490Q466 453 458 399T443 289T430 185T425 111Q425 93 429 88T439 82Q451 82 464 99T490 161L544 145Q540 124 530 97T504 46T463 5T405 -11Q373 -11 349 8T325
80Q325 93 326 109T329 138H328Q310 95 290 66T248 20T204 -4T158 -11Q103 -11 64 33T25 171Q25 240 45 301T104 409T199 484T327 511ZM290 445Q262 445 239 427T198 374T171 287T162 166Q162 125 172 102T200 78Q222 78 241 100T275 161T302 247T321 344T331 439Q326
441 314 443T290 445ZM361 565L247 672Q235 685 228 702T222 738T241 770Q258 783 275 783T307 773T331 746L409 606L361 565Z" />
<glyph unicode="&#xe1;" glyph-name="aacute" horiz-adv-x="549" d="M327 511Q355 511 392 506T471 490Q466 453 458 399T443 289T430 185T425 111Q425 93 429 88T439 82Q451 82 464 99T490 161L544 145Q540 124 530 97T504 46T463 5T405 -11Q373 -11 349 8T325
80Q325 93 326 109T329 138H328Q310 95 290 66T248 20T204 -4T158 -11Q103 -11 64 33T25 171Q25 240 45 301T104 409T199 484T327 511ZM290 445Q262 445 239 427T198 374T171 287T162 166Q162 125 172 102T200 78Q222 78 241 100T275 161T302 247T321 344T331 439Q326
441 314 443T290 445ZM267 565L223 606L312 746Q323 763 340 773T375 783T407 770Q423 756 424 738T418 701T394 671L267 565Z" />
<glyph unicode="&#xe2;" glyph-name="acircumflex" horiz-adv-x="549" d="M327 511Q355 511 392 506T471 490Q466 453 458 399T443 289T430 185T425 111Q425 93 429 88T439 82Q451 82 464 99T490 161L544 145Q540 124 530 97T504 46T463 5T405 -11Q373 -11 349
8T325 80Q325 93 326 109T329 138H328Q310 95 290 66T248 20T204 -4T158 -11Q103 -11 64 33T25 171Q25 240 45 301T104 409T199 484T327 511ZM290 445Q262 445 239 427T198 374T171 287T162 166Q162 125 172 102T200 78Q222 78 241 100T275 161T302 247T321 344T331
439Q326 441 314 443T290 445ZM451 567L326 671H325L189 571L154 618L333 783H343L495 613L451 567Z" />
<glyph unicode="&#xe3;" glyph-name="atilde" horiz-adv-x="549" d="M327 511Q355 511 392 506T471 490Q466 453 458 399T443 289T430 185T425 111Q425 93 429 88T439 82Q451 82 464 99T490 161L544 145Q540 124 530 97T504 46T463 5T405 -11Q373 -11 349 8T325
80Q325 93 326 109T329 138H328Q310 95 290 66T248 20T204 -4T158 -11Q103 -11 64 33T25 171Q25 240 45 301T104 409T199 484T327 511ZM290 445Q262 445 239 427T198 374T171 287T162 166Q162 125 172 102T200 78Q222 78 241 100T275 161T302 247T321 344T331 439Q326
441 314 443T290 445ZM200 606L147 640Q163 685 196 711T262 738Q293 738 311 729T344 710T384 700Q402 700 418 714T448 751L501 723Q481 660 448 635T384 609Q357 609 338 618T301 637T264 647Q252 647 234 639T200 606Z" />
<glyph unicode="&#xe4;" glyph-name="adieresis" horiz-adv-x="549" d="M327 511Q355 511 392 506T471 490Q466 453 458 399T443 289T430 185T425 111Q425 93 429 88T439 82Q451 82 464 99T490 161L544 145Q540 124 530 97T504 46T463 5T405 -11Q373 -11 349 8T325
80Q325 93 326 109T329 138H328Q310 95 290 66T248 20T204 -4T158 -11Q103 -11 64 33T25 171Q25 240 45 301T104 409T199 484T327 511ZM290 445Q262 445 239 427T198 374T171 287T162 166Q162 125 172 102T200 78Q222 78 241 100T275 161T302 247T321 344T331 439Q326
441 314 443T290 445ZM407 600Q381 600 364 620T346 670Q346 703 367 727T416 751Q443 751 459 731T476 681Q476 647 456 624T407 600ZM233 600Q207 600 190 620T172 670Q172 703 193 727T242 751Q269 751 285 731T302 681Q302 647 282 624T233 600Z" />
<glyph unicode="&#xe5;" glyph-name="aring" horiz-adv-x="549" d="M327 511Q355 511 392 506T471 490Q466 453 458 399T443 289T430 185T425 111Q425 93 429 88T439 82Q451 82 464 99T490 161L544 145Q540 124 530 97T504 46T463 5T405 -11Q373 -11 349 8T325
80Q325 93 326 109T329 138H328Q310 95 290 66T248 20T204 -4T158 -11Q103 -11 64 33T25 171Q25 240 45 301T104 409T199 484T327 511ZM290 445Q262 445 239 427T198 374T171 287T162 166Q162 125 172 102T200 78Q222 78 241 100T275 161T302 247T321 344T331 439Q326
441 314 443T290 445ZM318 563Q291 563 265 576T222 614T205 674Q206 709 223 736T269 779T329 795Q357 795 383 783T426 747T442 685Q441 648 422 621T375 578T318 563ZM326 623Q339 624 350 636T363 672Q365 706 354 721T326 736Q313 735 301 724T287 687Q286
656 297 640T326 623Z" />
<glyph unicode="&#xe6;" glyph-name="ae" horiz-adv-x="731" d="M538 511Q571 511 599 504T647 481T678 442T690 385Q690 344 665 317T600 272T512 245T420 228Q420 171 434 139T469 94T512 81Q529 81 553 88T602 116T645 178L701 150Q673 85 638 50T563 2T485
-11Q433 -12 401 7T343 61Q299 18 251 4T159 -11Q87 -11 52 27T19 122Q22 170 47 200T112 249T202 275T302 285Q303 302 303 318T305 350Q307 376 301 397T281 429T240 440Q221 439 204 433T173 414Q180 405 181 393T183 374Q182 353 165 332T112 311Q83 312 68
332T54 379Q56 416 83 446T156 493T260 511Q307 511 341 496T388 438Q416 473 455 492T538 511ZM298 224Q270 221 244 216T197 200T164 175T150 139Q149 111 168 97T208 83Q231 83 260 92T306 117Q302 148 300 172T298 224ZM527 445Q493 445 472 423T440 365T424
292Q478 302 511 317T559 354T574 399Q574 416 566 426T548 440T527 445Z" />
<glyph unicode="&#xe7;" glyph-name="ccedilla" horiz-adv-x="467" d="M273 511Q319 511 355 496T413 455T435 391Q435 361 418 342T371 322Q337 321 323 342T309 381Q309 390 311 401T319 423Q315 432 302 438T271 445Q239 445 219 424T187 369T170 300T164 233Q162
179 174 146T206 98T247 81Q266 80 290 86T339 115T384 185L441 157Q413 92 378 56T304 5T223 -11Q135 -10 81 43T27 207Q27 255 42 308T87 407T164 482T273 511ZM114 -259L109 -207Q121 -205 141 -201T183 -189T218 -170T234 -144Q235 -127 222 -122T192 -121T165
-133L128 -117L166 10H242L209 -69Q223 -62 244 -58T279 -53Q310 -54 330 -70T348 -123Q346 -158 321 -182T258 -221T182 -246T114 -259Z" />
<glyph unicode="&#xe8;" glyph-name="egrave" horiz-adv-x="470" d="M280 511Q324 511 358 498T411 457T430 385Q430 344 406 316T342 269T255 240T164 222Q164 165 177 135T212 93T254 81Q271 81 294 87T342 115T384 177L440 150Q412 85 377 50T304 2T227 -11Q135
-12 81 42T27 207Q27 255 42 308T87 407T166 482T280 511ZM269 445Q235 445 214 421T182 361T167 287Q221 297 253 314T299 353T313 399Q312 424 298 434T269 445ZM300 565L186 672Q174 685 167 702T161 738T180 770Q197 783 214 783T246 773T270 746L348 606L300
565Z" />
<glyph unicode="&#xe9;" glyph-name="eacute" horiz-adv-x="470" d="M280 511Q324 511 358 498T411 457T430 385Q430 344 406 316T342 269T255 240T164 222Q164 165 177 135T212 93T254 81Q271 81 294 87T342 115T384 177L440 150Q412 85 377 50T304 2T227 -11Q135
-12 81 42T27 207Q27 255 42 308T87 407T166 482T280 511ZM269 445Q235 445 214 421T182 361T167 287Q221 297 253 314T299 353T313 399Q312 424 298 434T269 445ZM206 565L162 606L251 746Q262 763 279 773T314 783T346 770Q362 756 363 738T357 701T333 671L206
565Z" />
<glyph unicode="&#xea;" glyph-name="ecircumflex" horiz-adv-x="470" d="M280 511Q324 511 358 498T411 457T430 385Q430 344 406 316T342 269T255 240T164 222Q164 165 177 135T212 93T254 81Q271 81 294 87T342 115T384 177L440 150Q412 85 377 50T304 2T227
-11Q135 -12 81 42T27 207Q27 255 42 308T87 407T166 482T280 511ZM269 445Q235 445 214 421T182 361T167 287Q221 297 253 314T299 353T313 399Q312 424 298 434T269 445ZM390 567L265 671H264L128 571L93 618L272 783H282L434 613L390 567Z" />
<glyph unicode="&#xeb;" glyph-name="edieresis" horiz-adv-x="470" d="M280 511Q324 511 358 498T411 457T430 385Q430 344 406 316T342 269T255 240T164 222Q164 165 177 135T212 93T254 81Q271 81 294 87T342 115T384 177L440 150Q412 85 377 50T304 2T227
-11Q135 -12 81 42T27 207Q27 255 42 308T87 407T166 482T280 511ZM269 445Q235 445 214 421T182 361T167 287Q221 297 253 314T299 353T313 399Q312 424 298 434T269 445ZM346 600Q320 600 303 620T285 670Q285 703 306 727T355 751Q382 751 398 731T415 681Q415
647 395 624T346 600ZM172 600Q146 600 129 620T111 670Q111 703 132 727T181 751Q208 751 224 731T241 681Q241 647 221 624T172 600Z" />
<glyph unicode="&#xec;" glyph-name="igrave" horiz-adv-x="344" d="M156 511Q208 511 228 480T249 395Q249 371 244 330T233 244T222 162T217 108Q217 92 222 87T232 82Q244 82 256 99T281 161L335 145Q331 124 320 97T289 46T244 5T183 -11Q128 -11 108 19T87
102Q87 131 92 171T103 253T115 331T120 392Q120 409 115 413T104 418Q93 418 81 401T56 339L2 355Q6 376 18 403T49 454T95 495T156 511ZM222 565L108 672Q96 685 89 702T83 738T102 770Q119 783 136 783T168 773T192 746L270 606L222 565Z" />
<glyph unicode="&#xed;" glyph-name="iacute" horiz-adv-x="344" d="M156 511Q208 511 228 480T249 395Q249 371 244 330T233 244T222 162T217 108Q217 92 222 87T232 82Q244 82 256 99T281 161L335 145Q331 124 320 97T289 46T244 5T183 -11Q128 -11 108 19T87
102Q87 131 92 171T103 253T115 331T120 392Q120 409 115 413T104 418Q93 418 81 401T56 339L2 355Q6 376 18 403T49 454T95 495T156 511ZM128 565L84 606L173 746Q184 763 201 773T236 783T268 770Q284 756 285 738T279 701T255 671L128 565Z" />
<glyph unicode="&#xee;" glyph-name="icircumflex" horiz-adv-x="344" d="M156 511Q208 511 228 480T249 395Q249 371 244 330T233 244T222 162T217 108Q217 92 222 87T232 82Q244 82 256 99T281 161L335 145Q331 124 320 97T289 46T244 5T183 -11Q128 -11 108
19T87 102Q87 131 92 171T103 253T115 331T120 392Q120 409 115 413T104 418Q93 418 81 401T56 339L2 355Q6 376 18 403T49 454T95 495T156 511ZM200 783L337 613L293 567L180 671H179L56 571L21 618L190 783H200Z" />
<glyph unicode="&#xef;" glyph-name="idieresis" horiz-adv-x="344" d="M156 511Q208 511 228 480T249 395Q249 371 244 330T233 244T222 162T217 108Q217 92 222 87T232 82Q244 82 256 99T281 161L335 145Q331 124 320 97T289 46T244 5T183 -11Q128 -11 108 19T87
102Q87 131 92 171T103 253T115 331T120 392Q120 409 115 413T104 418Q93 418 81 401T56 339L2 355Q6 376 18 403T49 454T95 495T156 511ZM524 600Q498 600 481 620T463 670Q463 703 484 727T533 751Q560 751 576 731T593 681Q593 647 573 624T524 600ZM350 600Q324
600 307 620T289 670Q289 703 310 727T359 751Q386 751 402 731T419 681Q419 647 399 624T350 600Z" />
<glyph unicode="&#xf0;" glyph-name="eth" horiz-adv-x="522" d="M290 790L345 738L291 688Q346 649 387 594T452 468T475 312Q475 248 461 190T416 87T339 15T229 -11Q177 -11 131 11T57 85T29 221Q29 264 41 312T81 403T150 473T253 500Q291 500 313 486T350
455Q347 483 330 515T289 576T242 617L180 546L123 599L174 656Q157 667 135 675T86 689L103 760Q147 756 180 745T235 723L290 790ZM269 435Q230 435 207 404T174 324T163 227Q163 153 180 104T243 55Q266 55 283 68T312 103T331 152T341 207T344 260Q344 307
338 347T316 411T269 435Z" />
<glyph unicode="&#xf1;" glyph-name="ntilde" horiz-adv-x="610" d="M453 -11Q398 -11 379 19T359 102Q359 132 363 169T371 246T380 319T384 377Q384 392 381 401T372 415T356 419Q338 419 319 397T281 338T249 255T227 162T218 72Q218 59 219 36T221 0H92Q90
21 90 29T89 48Q89 69 91 97T98 159T106 226Q109 253 112 278T119 326T123 366T125 392Q125 409 121 413T111 418Q100 418 88 401T63 339L8 355Q13 376 22 403T47 454T86 495T142 511Q164 511 183 503T214 476T226 420Q226 401 224 389T220 360H221Q245 420 273
453T332 498T392 511Q435 511 461 492T499 439T512 357Q512 321 506 277T494 189T487 108Q487 92 492 87T502 82Q513 82 525 99T550 161L604 145Q600 124 589 97T558 46T513 5T453 -11ZM217 606L164 640Q180 685 213 711T279 738Q310 738 328 729T361 710T401 700Q419
700 435 714T465 751L518 723Q498 660 465 635T401 609Q374 609 355 618T318 637T281 647Q269 647 251 639T217 606Z" />
<glyph unicode="&#xf2;" glyph-name="ograve" horiz-adv-x="515" d="M279 511Q335 511 380 485T453 409T480 288Q480 209 450 141T363 31T229 -11Q162 -11 117 19T50 102T28 216Q28 296 58 363T145 470T279 511ZM264 445Q234 446 212 419T177 345T164 244Q164
214 167 181T180 120T205 73T245 55Q271 55 289 75T318 126T335 193T342 259Q343 286 340 318T329 379T305 426T264 445ZM310 565L196 672Q184 685 177 702T171 738T190 770Q207 783 224 783T256 773T280 746L358 606L310 565Z" />
<glyph unicode="&#xf3;" glyph-name="oacute" horiz-adv-x="515" d="M279 511Q335 511 380 485T453 409T480 288Q480 209 450 141T363 31T229 -11Q162 -11 117 19T50 102T28 216Q28 296 58 363T145 470T279 511ZM264 445Q234 446 212 419T177 345T164 244Q164
214 167 181T180 120T205 73T245 55Q271 55 289 75T318 126T335 193T342 259Q343 286 340 318T329 379T305 426T264 445ZM216 565L172 606L261 746Q272 763 289 773T324 783T356 770Q372 756 373 738T367 701T343 671L216 565Z" />
<glyph unicode="&#xf4;" glyph-name="ocircumflex" horiz-adv-x="515" d="M279 511Q335 511 380 485T453 409T480 288Q480 209 450 141T363 31T229 -11Q162 -11 117 19T50 102T28 216Q28 296 58 363T145 470T279 511ZM264 445Q234 446 212 419T177 345T164 244Q164
214 167 181T180 120T205 73T245 55Q271 55 289 75T318 126T335 193T342 259Q343 286 340 318T329 379T305 426T264 445ZM400 567L275 671H274L138 571L103 618L282 783H292L444 613L400 567Z" />
<glyph unicode="&#xf5;" glyph-name="otilde" horiz-adv-x="515" d="M279 511Q335 511 380 485T453 409T480 288Q480 209 450 141T363 31T229 -11Q162 -11 117 19T50 102T28 216Q28 296 58 363T145 470T279 511ZM264 445Q234 446 212 419T177 345T164 244Q164
214 167 181T180 120T205 73T245 55Q271 55 289 75T318 126T335 193T342 259Q343 286 340 318T329 379T305 426T264 445ZM149 606L96 640Q112 685 145 711T211 738Q242 738 260 729T293 710T333 700Q351 700 367 714T397 751L450 723Q430 660 397 635T333 609Q306
609 287 618T250 637T213 647Q201 647 183 639T149 606Z" />
<glyph unicode="&#xf6;" glyph-name="odieresis" horiz-adv-x="515" d="M279 511Q335 511 380 485T453 409T480 288Q480 209 450 141T363 31T229 -11Q162 -11 117 19T50 102T28 216Q28 296 58 363T145 470T279 511ZM264 445Q234 446 212 419T177 345T164 244Q164
214 167 181T180 120T205 73T245 55Q271 55 289 75T318 126T335 193T342 259Q343 286 340 318T329 379T305 426T264 445ZM356 600Q330 600 313 620T295 670Q295 703 316 727T365 751Q392 751 408 731T425 681Q425 647 405 624T356 600ZM182 600Q156 600 139 620T121
670Q121 703 142 727T191 751Q218 751 234 731T251 681Q251 647 231 624T182 600Z" />
<glyph unicode="&#xf7;" glyph-name="divide" horiz-adv-x="530" d="M268 279Q299 279 318 256T336 201Q335 169 314 146T261 123Q228 123 209 146T191 201Q193 233 216 256T268 279ZM285 602Q316 602 335 579T353 524Q352 492 331 469T278 446Q245 446 226 469T208
524Q210 556 233 579T285 602ZM50 399H496L492 321H46L50 399Z" />
<glyph unicode="&#xf8;" glyph-name="oslash" horiz-adv-x="515" d="M435 570L499 521L436 436Q457 408 468 371T480 288Q480 209 450 141T363 31T229 -11Q172 -11 131 12L66 -77L13 -33L77 57Q52 88 40 129T28 216Q28 296 58 363T145 470T279 511Q334 511 376
487L435 570ZM351 326L185 95Q196 77 211 66T247 55Q276 55 296 75T329 126T348 193T355 259Q355 274 354 291T351 326ZM264 445Q231 445 206 418T166 345T151 244Q151 225 153 205T159 165L326 405Q316 423 301 434T264 445Z" />
<glyph unicode="&#xf9;" glyph-name="ugrave" horiz-adv-x="598" d="M211 -11Q169 -11 143 8T104 61T91 143Q91 180 97 224T110 312T117 392Q117 409 112 413T101 418Q90 418 78 401T53 339L-1 355Q3 376 14 403T45 454T90 495T150 511Q206 511 225 481T245 398Q245
368 241 331T232 254T223 181T219 123Q219 108 222 99T231 85T247 81Q264 81 282 103T318 162T349 245T371 338T380 428Q380 442 380 465T377 500H506Q508 479 508 471T509 452Q509 431 507 402T500 338T491 270Q488 243 485 218T478 172T474 134T472 108Q472 92
476 87T486 82Q497 82 509 99T534 161L588 145Q584 124 575 97T550 46T511 5T455 -11Q423 -11 397 8T371 80Q371 100 373 114T376 145H375Q352 85 325 51T269 3T211 -11ZM352 565L238 672Q226 685 219 702T213 738T232 770Q249 783 266 783T298 773T322 746L400
606L352 565Z" />
<glyph unicode="&#xfa;" glyph-name="uacute" horiz-adv-x="598" d="M211 -11Q169 -11 143 8T104 61T91 143Q91 180 97 224T110 312T117 392Q117 409 112 413T101 418Q90 418 78 401T53 339L-1 355Q3 376 14 403T45 454T90 495T150 511Q206 511 225 481T245 398Q245
368 241 331T232 254T223 181T219 123Q219 108 222 99T231 85T247 81Q264 81 282 103T318 162T349 245T371 338T380 428Q380 442 380 465T377 500H506Q508 479 508 471T509 452Q509 431 507 402T500 338T491 270Q488 243 485 218T478 172T474 134T472 108Q472 92
476 87T486 82Q497 82 509 99T534 161L588 145Q584 124 575 97T550 46T511 5T455 -11Q423 -11 397 8T371 80Q371 100 373 114T376 145H375Q352 85 325 51T269 3T211 -11ZM258 565L214 606L303 746Q314 763 331 773T366 783T398 770Q414 756 415 738T409 701T385
671L258 565Z" />
<glyph unicode="&#xfb;" glyph-name="ucircumflex" horiz-adv-x="598" d="M211 -11Q169 -11 143 8T104 61T91 143Q91 180 97 224T110 312T117 392Q117 409 112 413T101 418Q90 418 78 401T53 339L-1 355Q3 376 14 403T45 454T90 495T150 511Q206 511 225 481T245
398Q245 368 241 331T232 254T223 181T219 123Q219 108 222 99T231 85T247 81Q264 81 282 103T318 162T349 245T371 338T380 428Q380 442 380 465T377 500H506Q508 479 508 471T509 452Q509 431 507 402T500 338T491 270Q488 243 485 218T478 172T474 134T472 108Q472
92 476 87T486 82Q497 82 509 99T534 161L588 145Q584 124 575 97T550 46T511 5T455 -11Q423 -11 397 8T371 80Q371 100 373 114T376 145H375Q352 85 325 51T269 3T211 -11ZM442 567L317 671H316L180 571L145 618L324 783H334L486 613L442 567Z" />
<glyph unicode="&#xfc;" glyph-name="udieresis" horiz-adv-x="598" d="M211 -11Q169 -11 143 8T104 61T91 143Q91 180 97 224T110 312T117 392Q117 409 112 413T101 418Q90 418 78 401T53 339L-1 355Q3 376 14 403T45 454T90 495T150 511Q206 511 225 481T245
398Q245 368 241 331T232 254T223 181T219 123Q219 108 222 99T231 85T247 81Q264 81 282 103T318 162T349 245T371 338T380 428Q380 442 380 465T377 500H506Q508 479 508 471T509 452Q509 431 507 402T500 338T491 270Q488 243 485 218T478 172T474 134T472 108Q472
92 476 87T486 82Q497 82 509 99T534 161L588 145Q584 124 575 97T550 46T511 5T455 -11Q423 -11 397 8T371 80Q371 100 373 114T376 145H375Q352 85 325 51T269 3T211 -11ZM398 600Q372 600 355 620T337 670Q337 703 358 727T407 751Q434 751 450 731T467 681Q467
647 447 624T398 600ZM224 600Q198 600 181 620T163 670Q163 703 184 727T233 751Q260 751 276 731T293 681Q293 647 273 624T224 600Z" />
<glyph unicode="&#xfd;" glyph-name="yacute" horiz-adv-x="561" d="M123 -271Q77 -271 53 -249T28 -193Q28 -161 48 -142T92 -123Q145 -123 153 -177Q155 -178 158 -178T163 -178Q180 -178 198 -165T234 -133T264 -95T284 -61Q277 -13 261 42T225 155T182 266T141
364Q134 380 123 399T94 418Q81 418 68 404T49 343L-7 351Q-5 373 3 400T29 452T74 494T142 511Q175 511 198 496T238 456T265 407Q279 373 299 319T337 202T367 73H368Q389 119 403 162T425 244T436 316Q437 327 436 350T424 386Q420 385 417 385T410 385Q385
385 367 402T349 443Q349 478 371 494T418 511Q455 511 477 490T510 437T520 371Q520 328 506 267T467 138T407 2Q369 -71 323 -133T226 -233T123 -271ZM223 565L179 606L268 746Q279 763 296 773T331 783T363 770Q379 756 380 738T374 701T350 671L223 565Z" />
<glyph unicode="&#xfe;" glyph-name="thorn" horiz-adv-x="520" d="M225 755Q220 704 215 653T205 551Q202 521 200 499T195 452T187 390H188Q206 424 224 447T262 485T302 505T342 511Q392 511 423 486T469 417T484 321Q484 250 468 190T419 84T334 14T210 -11Q205
-11 194 -11T174 -10L170 -92Q169 -106 167 -132T162 -182Q179 -180 198 -180T229 -179V-255H-25V-190Q0 -190 13 -179T31 -147T38 -100Q44 -5 49 77T58 236T67 392T77 560Q79 577 80 603T84 652Q68 651 47 651T15 649L19 725Q65 725 96 730T145 742T171 755H225ZM294
420Q276 420 260 406T231 364T207 294T189 193T177 62Q188 59 202 57T223 55Q257 55 279 74T316 125T336 193T345 262T348 320Q348 375 332 397T294 420Z" />
<glyph unicode="&#xff;" glyph-name="ydieresis" horiz-adv-x="561" d="M123 -271Q77 -271 53 -249T28 -193Q28 -161 48 -142T92 -123Q145 -123 153 -177Q155 -178 158 -178T163 -178Q180 -178 198 -165T234 -133T264 -95T284 -61Q277 -13 261 42T225 155T182
266T141 364Q134 380 123 399T94 418Q81 418 68 404T49 343L-7 351Q-5 373 3 400T29 452T74 494T142 511Q175 511 198 496T238 456T265 407Q279 373 299 319T337 202T367 73H368Q389 119 403 162T425 244T436 316Q437 327 436 350T424 386Q420 385 417 385T410
385Q385 385 367 402T349 443Q349 478 371 494T418 511Q455 511 477 490T510 437T520 371Q520 328 506 267T467 138T407 2Q369 -71 323 -133T226 -233T123 -271ZM363 600Q337 600 320 620T302 670Q302 703 323 727T372 751Q399 751 415 731T432 681Q432 647 412
624T363 600ZM189 600Q163 600 146 620T128 670Q128 703 149 727T198 751Q225 751 241 731T258 681Q258 647 238 624T189 600Z" />
<glyph unicode="&#x2013;" glyph-name="endash" horiz-adv-x="563" d="M514 366L509 265L49 261L55 366H514Z" />
<glyph unicode="&#x2014;" glyph-name="emdash" horiz-adv-x="769" d="M720 366L715 265L50 261L55 366H720Z" />
<glyph unicode="&#x2018;" glyph-name="quoteleft" horiz-adv-x="225" d="M138 441Q91 440 71 470T52 546Q53 578 65 614T99 688T155 765L192 737Q181 723 166 697T139 640T127 579Q134 581 138 581T148 582Q175 582 195 566T214 516Q212 486 191 464T138 441Z" />
<glyph unicode="&#x2019;" glyph-name="quoteright" horiz-adv-x="212" d="M122 759Q169 760 189 730T208 654Q207 622 195 586T161 512T105 435L68 463Q79 477 94 503T121 560T133 621Q126 619 122 619T112 618Q85 618 65 634T46 684Q48 714 69 736T122 759Z" />
<glyph unicode="&#x201a;" glyph-name="quotesinglbase" horiz-adv-x="249" d="M103 137Q150 138 170 108T189 32Q188 0 176 -36T142 -110T86 -187L49 -159Q60 -145 75 -119T102 -62T114 -1Q107 -3 103 -3T93 -4Q66 -4 46 12T27 62Q29 92 50 114T103 137Z" />
<glyph unicode="&#x201c;" glyph-name="quotedblleft" horiz-adv-x="415" d="M138 441Q91 440 71 470T52 546Q53 578 65 614T99 688T155 765L192 737Q181 723 166 697T139 640T127 579Q134 581 138 581T148 582Q175 582 195 566T214 516Q212 486 191 464T138 441ZM328
441Q281 440 261 470T242 546Q243 578 255 614T289 688T345 765L382 737Q371 723 356 697T329 640T317 579Q324 581 328 581T338 582Q365 582 385 566T404 516Q402 486 381 464T328 441Z" />
<glyph unicode="&#x201d;" glyph-name="quotedblright" horiz-adv-x="396" d="M121 760Q168 761 188 731T207 655Q206 623 194 587T160 513T104 436L67 464Q78 478 93 504T120 561T132 622Q125 620 121 620T111 619Q84 619 64 635T45 685Q47 715 68 737T121 760ZM307
760Q354 761 374 731T393 655Q392 623 380 587T346 513T290 436L253 464Q264 478 279 504T306 561T318 622Q311 620 307 620T297 619Q270 619 250 635T231 685Q233 715 254 737T307 760Z" />
<glyph unicode="&#x201e;" glyph-name="quotedblbase" horiz-adv-x="439" d="M103 137Q150 138 170 108T189 32Q188 0 176 -36T142 -110T86 -187L49 -159Q60 -145 75 -119T102 -62T114 -1Q107 -3 103 -3T93 -4Q66 -4 46 12T27 62Q29 92 50 114T103 137ZM293 137Q340
138 360 108T379 32Q378 0 366 -36T332 -110T276 -187L239 -159Q250 -145 265 -119T292 -62T304 -1Q297 -3 293 -3T283 -4Q256 -4 236 12T217 62Q219 92 240 114T293 137Z" />
<glyph unicode="&#x2022;" glyph-name="bullet" horiz-adv-x="378" d="M201 518Q245 518 279 498T333 442T351 363Q349 319 326 284T266 229T185 208Q141 208 106 228T52 284T35 363Q38 407 60 442T120 497T201 518Z" />
<glyph unicode="&#x2039;" glyph-name="guilsinglleft" horiz-adv-x="372" d="M272 -16L16 258L17 280L304 553L350 502L153 267V266L323 32L272 -16Z" />
<glyph unicode="&#x203a;" glyph-name="guilsinglright" horiz-adv-x="371" d="M63 -16L17 35L214 270V271L44 505L95 553L351 279L350 257L63 -16Z" />
</font>
</defs>
</svg>
